<svg width="258" height="163" viewBox="0 0 258 163" fill="none" xmlns="http://www.w3.org/2000/svg">
<g clip-path="url(#clip0)">
<path d="M189.032 83.7879C188.477 82.6518 188.477 81.3489 189.032 80.2131L194.179 69.6839C197.044 63.8214 194.774 56.8338 189.01 53.7755L178.657 48.2825C177.54 47.6901 176.774 46.6357 176.556 45.3907L174.531 33.847C173.404 27.4198 167.458 23.1009 160.999 24.0148L149.395 25.6563C148.142 25.8331 146.904 25.4304 145.995 24.5515L137.572 16.403C132.882 11.8658 125.534 11.8655 120.845 16.403L112.421 24.5523C111.512 25.4315 110.274 25.8334 109.022 25.6571L97.4176 24.0156C90.9556 23.1011 85.0125 27.4206 83.885 33.8478L81.8603 45.391C81.6418 46.6362 80.876 47.6903 79.7594 48.283L69.4067 53.776C63.6426 56.8341 61.372 63.8222 64.2377 69.6847L69.3844 80.2137C69.9396 81.3497 69.9396 82.6526 69.3844 83.7884L64.2374 94.3173C61.3718 100.18 63.6423 107.167 69.4065 110.226L79.7591 115.719C80.876 116.311 81.6418 117.366 81.8603 118.611L83.885 130.154C84.9114 136.005 89.9284 140.109 95.6945 140.108C96.2624 140.108 96.8386 140.068 97.4179 139.986L109.022 138.345C110.273 138.167 111.513 138.571 112.422 139.45L120.845 147.598C123.19 149.867 126.199 151.001 129.208 151.001C132.217 151.001 135.227 149.866 137.572 147.598L145.995 139.45C146.904 138.571 148.143 138.169 149.395 138.345L160.999 139.986C167.461 140.9 173.404 136.581 174.531 130.154L176.556 118.611C176.775 117.366 177.54 116.311 178.657 115.719L189.01 110.226C194.774 107.168 197.044 100.18 194.179 94.3171L189.032 83.7879ZM185.279 103.195L174.927 108.688C171.626 110.439 169.362 113.554 168.717 117.235L166.692 128.779C166.31 130.953 164.3 132.414 162.113 132.105L150.509 130.464C146.809 129.939 143.147 131.131 140.461 133.729L132.038 141.877C130.451 143.411 127.965 143.411 126.378 141.877L117.955 133.728C115.685 131.532 112.718 130.342 109.62 130.342C109.052 130.342 108.48 130.382 107.907 130.463L96.3028 132.105C94.118 132.414 92.106 130.953 91.7243 128.778L89.6993 117.235C89.0535 113.554 86.79 110.438 83.4891 108.687L73.1365 103.194C71.1862 102.16 70.418 99.7955 71.3875 97.8121L76.5344 87.2829C78.1753 83.9256 78.1753 80.0751 76.5344 76.7179L71.3875 66.1887C70.418 64.2052 71.1862 61.8412 73.1365 60.8064L83.4891 55.3134C86.7898 53.5618 89.0535 50.4465 89.6991 46.7658L91.7238 35.2224C92.1054 33.0479 94.1156 31.587 96.3023 31.8959L107.906 33.5373C111.606 34.061 115.269 32.8705 117.955 30.2725L126.378 22.1241C127.964 20.5894 130.45 20.5894 132.037 22.1241L140.46 30.2725C143.146 32.8708 146.809 34.061 150.509 33.5373L162.113 31.8959C164.298 31.5867 166.31 33.0479 166.691 35.2224L168.716 46.7661C169.362 50.4468 171.625 53.5623 174.926 55.3134L185.279 60.8064C187.229 61.8412 187.997 64.2052 187.028 66.1887L181.881 76.7176C180.24 80.0746 180.24 83.9256 181.881 87.2826L187.028 97.8115C187.998 99.7955 187.229 102.16 185.279 103.195Z" fill="#427AA1"/>
<path d="M158.078 52.9217C156.524 51.3676 154.004 51.3676 152.45 52.9217L99.9217 105.45C98.3676 107.004 98.3676 109.524 99.9217 111.078C100.699 111.855 101.717 112.244 102.736 112.244C103.754 112.244 104.773 111.856 105.549 111.078L158.078 58.55C159.632 56.9956 159.632 54.4761 158.078 52.9217Z" fill="#427AA1"/>
<path d="M113.081 46.1835C105.035 46.1835 98.4893 52.7295 98.4893 60.7755C98.4893 68.8215 105.035 75.3676 113.081 75.3676C121.127 75.3676 127.673 68.8215 127.673 60.7755C127.673 52.7295 121.127 46.1835 113.081 46.1835ZM113.081 67.4081C109.424 67.4081 106.449 64.4328 106.449 60.7753C106.449 57.118 109.424 54.1427 113.081 54.1427C116.739 54.1427 119.714 57.118 119.714 60.7753C119.714 64.4328 116.739 67.4081 113.081 67.4081Z" fill="#FE7F2D"/>
<path d="M144.918 88.6327C136.872 88.6327 130.326 95.1788 130.326 103.225C130.326 111.271 136.872 117.817 144.918 117.817C152.964 117.817 159.51 111.271 159.51 103.225C159.51 95.1788 152.964 88.6327 144.918 88.6327ZM144.918 109.857C141.261 109.857 138.285 106.882 138.285 103.225C138.285 99.5675 141.261 96.5922 144.918 96.5922C148.575 96.5922 151.551 99.5675 151.551 103.225C151.551 106.882 148.575 109.857 144.918 109.857Z" fill="#FE7F2D"/>
</g>
<defs>
<clipPath id="clip0">
<rect x="60" y="13" width="138" height="138" fill="white"/>
</clipPath>
</defs>
</svg>
