<svg width="284" height="402" viewBox="0 0 284 402" fill="none" xmlns="http://www.w3.org/2000/svg">
<g clip-path="url(#clip0)" filter="url(#filter0_d)">
<rect width="268" height="386" transform="translate(8 8)" fill="white"/>
<rect x="-24" y="81.7731" width="151" height="35" transform="rotate(-45 -24 81.7731)" fill="#624372"/>
<path d="M78.3688 57.152V74H74.2648V63.896L70.4968 74H67.1848L63.3928 63.872V74H59.2888V57.152H64.1368L68.8648 68.816L73.5448 57.152H78.3688ZM89.288 74.168C87.704 74.168 86.248 73.8 84.92 73.064C83.608 72.328 82.56 71.304 81.776 69.992C81.008 68.664 80.624 67.176 80.624 65.528C80.624 63.88 81.008 62.4 81.776 61.088C82.56 59.776 83.608 58.752 84.92 58.016C86.248 57.28 87.704 56.912 89.288 56.912C90.872 56.912 92.32 57.28 93.632 58.016C94.96 58.752 96 59.776 96.752 61.088C97.52 62.4 97.904 63.88 97.904 65.528C97.904 67.176 97.52 68.664 96.752 69.992C95.984 71.304 94.944 72.328 93.632 73.064C92.32 73.8 90.872 74.168 89.288 74.168ZM89.288 70.424C90.632 70.424 91.704 69.976 92.504 69.08C93.32 68.184 93.728 67 93.728 65.528C93.728 64.04 93.32 62.856 92.504 61.976C91.704 61.08 90.632 60.632 89.288 60.632C87.928 60.632 86.84 61.072 86.024 61.952C85.224 62.832 84.824 64.024 84.824 65.528C84.824 67.016 85.224 68.208 86.024 69.104C86.84 69.984 87.928 70.424 89.288 70.424ZM112.307 57.152V60.44H107.843V74H103.739V60.44H99.2752V57.152H112.307ZM122.335 74.168C120.751 74.168 119.295 73.8 117.967 73.064C116.655 72.328 115.607 71.304 114.823 69.992C114.055 68.664 113.671 67.176 113.671 65.528C113.671 63.88 114.055 62.4 114.823 61.088C115.607 59.776 116.655 58.752 117.967 58.016C119.295 57.28 120.751 56.912 122.335 56.912C123.919 56.912 125.367 57.28 126.679 58.016C128.007 58.752 129.047 59.776 129.799 61.088C130.567 62.4 130.951 63.88 130.951 65.528C130.951 67.176 130.567 68.664 129.799 69.992C129.031 71.304 127.991 72.328 126.679 73.064C125.367 73.8 123.919 74.168 122.335 74.168ZM122.335 70.424C123.679 70.424 124.751 69.976 125.551 69.08C126.367 68.184 126.775 67 126.775 65.528C126.775 64.04 126.367 62.856 125.551 61.976C124.751 61.08 123.679 60.632 122.335 60.632C120.975 60.632 119.887 61.072 119.071 61.952C118.271 62.832 117.871 64.024 117.871 65.528C117.871 67.016 118.271 68.208 119.071 69.104C119.887 69.984 120.975 70.424 122.335 70.424ZM141.826 74L138.322 67.64H137.338V74H133.234V57.152H140.122C141.45 57.152 142.578 57.384 143.506 57.848C144.45 58.312 145.154 58.952 145.618 59.768C146.082 60.568 146.314 61.464 146.314 62.456C146.314 63.576 145.994 64.576 145.354 65.456C144.73 66.336 143.802 66.96 142.57 67.328L146.458 74H141.826ZM137.338 64.736H139.882C140.634 64.736 141.194 64.552 141.562 64.184C141.946 63.816 142.138 63.296 142.138 62.624C142.138 61.984 141.946 61.48 141.562 61.112C141.194 60.744 140.634 60.56 139.882 60.56H137.338V64.736ZM148.194 65.552C148.194 63.888 148.554 62.408 149.274 61.112C149.994 59.8 150.994 58.784 152.274 58.064C153.57 57.328 155.034 56.96 156.666 56.96C158.666 56.96 160.378 57.488 161.802 58.544C163.226 59.6 164.178 61.04 164.658 62.864H160.146C159.81 62.16 159.33 61.624 158.706 61.256C158.098 60.888 157.402 60.704 156.618 60.704C155.354 60.704 154.33 61.144 153.546 62.024C152.762 62.904 152.37 64.08 152.37 65.552C152.37 67.024 152.762 68.2 153.546 69.08C154.33 69.96 155.354 70.4 156.618 70.4C157.402 70.4 158.098 70.216 158.706 69.848C159.33 69.48 159.81 68.944 160.146 68.24H164.658C164.178 70.064 163.226 71.504 161.802 72.56C160.378 73.6 158.666 74.12 156.666 74.12C155.034 74.12 153.57 73.76 152.274 73.04C150.994 72.304 149.994 71.288 149.274 69.992C148.554 68.696 148.194 67.216 148.194 65.552ZM175.764 74L172.26 67.64H171.276V74H167.172V57.152H174.06C175.388 57.152 176.516 57.384 177.444 57.848C178.388 58.312 179.092 58.952 179.556 59.768C180.02 60.568 180.252 61.464 180.252 62.456C180.252 63.576 179.932 64.576 179.292 65.456C178.668 66.336 177.74 66.96 176.508 67.328L180.396 74H175.764ZM171.276 64.736H173.82C174.572 64.736 175.132 64.552 175.5 64.184C175.884 63.816 176.076 63.296 176.076 62.624C176.076 61.984 175.884 61.48 175.5 61.112C175.132 60.744 174.572 60.56 173.82 60.56H171.276V64.736ZM193.316 71.024H187.028L186.02 74H181.724L187.82 57.152H192.572L198.668 74H194.324L193.316 71.024ZM192.26 67.856L190.172 61.688L188.108 67.856H192.26ZM212.643 57.152V60.44H208.179V74H204.075V60.44H199.611V57.152H212.643ZM218.807 60.44V63.848H224.303V67.016H218.807V70.712H225.023V74H214.703V57.152H225.023V60.44H218.807Z" fill="#624372"/>
<path d="M114.244 82.436V84.47H109.006V87.692H113.02V89.69H109.006V95H106.486V82.436H114.244ZM121.863 95.126C120.687 95.126 119.607 94.85 118.623 94.298C117.639 93.746 116.859 92.984 116.283 92.012C115.707 91.028 115.419 89.918 115.419 88.682C115.419 87.458 115.707 86.36 116.283 85.388C116.859 84.404 117.639 83.636 118.623 83.084C119.607 82.532 120.687 82.256 121.863 82.256C123.051 82.256 124.131 82.532 125.103 83.084C126.087 83.636 126.861 84.404 127.425 85.388C128.001 86.36 128.289 87.458 128.289 88.682C128.289 89.918 128.001 91.028 127.425 92.012C126.861 92.984 126.087 93.746 125.103 94.298C124.119 94.85 123.039 95.126 121.863 95.126ZM121.863 92.876C122.619 92.876 123.285 92.708 123.861 92.372C124.437 92.024 124.887 91.532 125.211 90.896C125.535 90.26 125.697 89.522 125.697 88.682C125.697 87.842 125.535 87.11 125.211 86.486C124.887 85.85 124.437 85.364 123.861 85.028C123.285 84.692 122.619 84.524 121.863 84.524C121.107 84.524 120.435 84.692 119.847 85.028C119.271 85.364 118.821 85.85 118.497 86.486C118.173 87.11 118.011 87.842 118.011 88.682C118.011 89.522 118.173 90.26 118.497 90.896C118.821 91.532 119.271 92.024 119.847 92.372C120.435 92.708 121.107 92.876 121.863 92.876ZM136.644 95L133.872 90.104H132.684V95H130.164V82.436H134.88C135.852 82.436 136.68 82.61 137.364 82.958C138.048 83.294 138.558 83.756 138.894 84.344C139.242 84.92 139.416 85.568 139.416 86.288C139.416 87.116 139.176 87.866 138.696 88.538C138.216 89.198 137.502 89.654 136.554 89.906L139.56 95H136.644ZM132.684 88.214H134.79C135.474 88.214 135.984 88.052 136.32 87.728C136.656 87.392 136.824 86.93 136.824 86.342C136.824 85.766 136.656 85.322 136.32 85.01C135.984 84.686 135.474 84.524 134.79 84.524H132.684V88.214ZM156.406 82.436V95H153.886V89.654H148.504V95H145.984V82.436H148.504V87.602H153.886V82.436H156.406ZM161.407 84.47V87.62H165.637V89.618H161.407V92.948H166.177V95H158.887V82.418H166.177V84.47H161.407ZM174.947 95L172.175 90.104H170.987V95H168.467V82.436H173.183C174.155 82.436 174.983 82.61 175.667 82.958C176.351 83.294 176.861 83.756 177.197 84.344C177.545 84.92 177.719 85.568 177.719 86.288C177.719 87.116 177.479 87.866 176.999 88.538C176.519 89.198 175.805 89.654 174.857 89.906L177.863 95H174.947ZM170.987 88.214H173.093C173.777 88.214 174.287 88.052 174.623 87.728C174.959 87.392 175.127 86.93 175.127 86.342C175.127 85.766 174.959 85.322 174.623 85.01C174.287 84.686 173.777 84.524 173.093 84.524H170.987V88.214Z" fill="#5E5E5E"/>
<path d="M70.0376 148.168C70.0376 148.663 69.9209 149.129 69.6876 149.568C69.4543 150.007 69.0809 150.366 68.5676 150.646C68.0543 150.917 67.3963 151.052 66.5936 151.052H64.8296V155H63.2336V145.27H66.5936C67.3403 145.27 67.9703 145.401 68.4836 145.662C69.0063 145.914 69.3936 146.259 69.6456 146.698C69.9069 147.137 70.0376 147.627 70.0376 148.168ZM66.5936 149.75C67.2003 149.75 67.6529 149.615 67.9516 149.344C68.2503 149.064 68.3996 148.672 68.3996 148.168C68.3996 147.104 67.7976 146.572 66.5936 146.572H64.8296V149.75H66.5936ZM73.1558 148.406C73.3891 148.014 73.6971 147.711 74.0798 147.496C74.4718 147.272 74.9338 147.16 75.4658 147.16V148.812H75.0598C74.4344 148.812 73.9584 148.971 73.6318 149.288C73.3144 149.605 73.1558 150.156 73.1558 150.94V155H71.5598V147.286H73.1558V148.406ZM84.0028 150.954C84.0028 151.243 83.9841 151.505 83.9468 151.738H78.0528C78.0995 152.354 78.3281 152.849 78.7388 153.222C79.1495 153.595 79.6535 153.782 80.2508 153.782C81.1095 153.782 81.7161 153.423 82.0708 152.704H83.7928C83.5595 153.413 83.1348 153.997 82.5188 154.454C81.9121 154.902 81.1561 155.126 80.2508 155.126C79.5135 155.126 78.8508 154.963 78.2628 154.636C77.6841 154.3 77.2268 153.833 76.8908 153.236C76.5641 152.629 76.4008 151.929 76.4008 151.136C76.4008 150.343 76.5595 149.647 76.8768 149.05C77.2035 148.443 77.6561 147.977 78.2348 147.65C78.8228 147.323 79.4948 147.16 80.2508 147.16C80.9788 147.16 81.6275 147.319 82.1968 147.636C82.7661 147.953 83.2095 148.401 83.5268 148.98C83.8441 149.549 84.0028 150.207 84.0028 150.954ZM82.3368 150.45C82.3275 149.862 82.1175 149.391 81.7068 149.036C81.2961 148.681 80.7875 148.504 80.1808 148.504C79.6301 148.504 79.1588 148.681 78.7668 149.036C78.3748 149.381 78.1415 149.853 78.0668 150.45H82.3368ZM94.9114 147.16C95.5181 147.16 96.0594 147.286 96.5354 147.538C97.0208 147.79 97.3988 148.163 97.6694 148.658C97.9494 149.153 98.0894 149.75 98.0894 150.45V155H96.5074V150.688C96.5074 149.997 96.3348 149.47 95.9894 149.106C95.6441 148.733 95.1728 148.546 94.5754 148.546C93.9781 148.546 93.5021 148.733 93.1474 149.106C92.8021 149.47 92.6294 149.997 92.6294 150.688V155H91.0474V150.688C91.0474 149.997 90.8748 149.47 90.5294 149.106C90.1841 148.733 89.7128 148.546 89.1154 148.546C88.5181 148.546 88.0421 148.733 87.6874 149.106C87.3421 149.47 87.1694 149.997 87.1694 150.688V155H85.5734V147.286H87.1694V148.168C87.4308 147.851 87.7621 147.603 88.1634 147.426C88.5648 147.249 88.9941 147.16 89.4514 147.16C90.0674 147.16 90.6181 147.291 91.1034 147.552C91.5888 147.813 91.9621 148.191 92.2234 148.686C92.4568 148.219 92.8208 147.851 93.3154 147.58C93.8101 147.3 94.3421 147.16 94.9114 147.16ZM100.932 146.264C100.643 146.264 100.4 146.166 100.204 145.97C100.008 145.774 99.9103 145.531 99.9103 145.242C99.9103 144.953 100.008 144.71 100.204 144.514C100.4 144.318 100.643 144.22 100.932 144.22C101.212 144.22 101.45 144.318 101.646 144.514C101.842 144.71 101.94 144.953 101.94 145.242C101.94 145.531 101.842 145.774 101.646 145.97C101.45 146.166 101.212 146.264 100.932 146.264ZM101.716 147.286V155H100.12V147.286H101.716ZM110.798 147.286V155H109.202V154.09C108.95 154.407 108.618 154.659 108.208 154.846C107.806 155.023 107.377 155.112 106.92 155.112C106.313 155.112 105.767 154.986 105.282 154.734C104.806 154.482 104.428 154.109 104.148 153.614C103.877 153.119 103.742 152.522 103.742 151.822V147.286H105.324V151.584C105.324 152.275 105.496 152.807 105.842 153.18C106.187 153.544 106.658 153.726 107.256 153.726C107.853 153.726 108.324 153.544 108.67 153.18C109.024 152.807 109.202 152.275 109.202 151.584V147.286H110.798ZM122.242 147.16C122.848 147.16 123.39 147.286 123.866 147.538C124.351 147.79 124.729 148.163 125 148.658C125.28 149.153 125.42 149.75 125.42 150.45V155H123.838V150.688C123.838 149.997 123.665 149.47 123.32 149.106C122.974 148.733 122.503 148.546 121.906 148.546C121.308 148.546 120.832 148.733 120.478 149.106C120.132 149.47 119.96 149.997 119.96 150.688V155H118.378V150.688C118.378 149.997 118.205 149.47 117.86 149.106C117.514 148.733 117.043 148.546 116.446 148.546C115.848 148.546 115.372 148.733 115.018 149.106C114.672 149.47 114.5 149.997 114.5 150.688V155H112.904V147.286H114.5V148.168C114.761 147.851 115.092 147.603 115.494 147.426C115.895 147.249 116.324 147.16 116.782 147.16C117.398 147.16 117.948 147.291 118.434 147.552C118.919 147.813 119.292 148.191 119.554 148.686C119.787 148.219 120.151 147.851 120.646 147.58C121.14 147.3 121.672 147.16 122.242 147.16ZM132.683 148.42C132.954 148.065 133.322 147.767 133.789 147.524C134.256 147.281 134.783 147.16 135.371 147.16C136.043 147.16 136.654 147.328 137.205 147.664C137.765 147.991 138.204 148.453 138.521 149.05C138.838 149.647 138.997 150.333 138.997 151.108C138.997 151.883 138.838 152.578 138.521 153.194C138.204 153.801 137.765 154.277 137.205 154.622C136.654 154.958 136.043 155.126 135.371 155.126C134.783 155.126 134.26 155.009 133.803 154.776C133.346 154.533 132.972 154.235 132.683 153.88V158.668H131.087V147.286H132.683V148.42ZM137.373 151.108C137.373 150.576 137.261 150.119 137.037 149.736C136.822 149.344 136.533 149.05 136.169 148.854C135.814 148.649 135.432 148.546 135.021 148.546C134.62 148.546 134.237 148.649 133.873 148.854C133.518 149.059 133.229 149.358 133.005 149.75C132.79 150.142 132.683 150.604 132.683 151.136C132.683 151.668 132.79 152.135 133.005 152.536C133.229 152.928 133.518 153.227 133.873 153.432C134.237 153.637 134.62 153.74 135.021 153.74C135.432 153.74 135.814 153.637 136.169 153.432C136.533 153.217 136.822 152.909 137.037 152.508C137.261 152.107 137.373 151.64 137.373 151.108ZM140.043 151.108C140.043 150.333 140.202 149.647 140.519 149.05C140.846 148.453 141.285 147.991 141.835 147.664C142.395 147.328 143.011 147.16 143.683 147.16C144.29 147.16 144.817 147.281 145.265 147.524C145.723 147.757 146.087 148.051 146.357 148.406V147.286H147.967V155H146.357V153.852C146.087 154.216 145.718 154.519 145.251 154.762C144.785 155.005 144.253 155.126 143.655 155.126C142.993 155.126 142.386 154.958 141.835 154.622C141.285 154.277 140.846 153.801 140.519 153.194C140.202 152.578 140.043 151.883 140.043 151.108ZM146.357 151.136C146.357 150.604 146.245 150.142 146.021 149.75C145.807 149.358 145.522 149.059 145.167 148.854C144.813 148.649 144.43 148.546 144.019 148.546C143.609 148.546 143.226 148.649 142.871 148.854C142.517 149.05 142.227 149.344 142.003 149.736C141.789 150.119 141.681 150.576 141.681 151.108C141.681 151.64 141.789 152.107 142.003 152.508C142.227 152.909 142.517 153.217 142.871 153.432C143.235 153.637 143.618 153.74 144.019 153.74C144.43 153.74 144.813 153.637 145.167 153.432C145.522 153.227 145.807 152.928 146.021 152.536C146.245 152.135 146.357 151.668 146.357 151.136ZM149.532 151.136C149.532 150.343 149.69 149.647 150.008 149.05C150.334 148.443 150.782 147.977 151.352 147.65C151.921 147.323 152.574 147.16 153.312 147.16C154.245 147.16 155.015 147.384 155.622 147.832C156.238 148.271 156.653 148.901 156.868 149.722H155.146C155.006 149.339 154.782 149.041 154.474 148.826C154.166 148.611 153.778 148.504 153.312 148.504C152.658 148.504 152.136 148.737 151.744 149.204C151.361 149.661 151.17 150.305 151.17 151.136C151.17 151.967 151.361 152.615 151.744 153.082C152.136 153.549 152.658 153.782 153.312 153.782C154.236 153.782 154.847 153.376 155.146 152.564H156.868C156.644 153.348 156.224 153.973 155.608 154.44C154.992 154.897 154.226 155.126 153.312 155.126C152.574 155.126 151.921 154.963 151.352 154.636C150.782 154.3 150.334 153.833 150.008 153.236C149.69 152.629 149.532 151.929 149.532 151.136ZM161.51 151.15L165.066 155H162.91L160.054 151.682V155H158.458V144.64H160.054V150.66L162.854 147.286H165.066L161.51 151.15ZM165.678 151.108C165.678 150.333 165.837 149.647 166.154 149.05C166.481 148.453 166.919 147.991 167.47 147.664C168.03 147.328 168.646 147.16 169.318 147.16C169.925 147.16 170.452 147.281 170.9 147.524C171.357 147.757 171.721 148.051 171.992 148.406V147.286H173.602V155H171.992V153.852C171.721 154.216 171.353 154.519 170.886 154.762C170.419 155.005 169.887 155.126 169.29 155.126C168.627 155.126 168.021 154.958 167.47 154.622C166.919 154.277 166.481 153.801 166.154 153.194C165.837 152.578 165.678 151.883 165.678 151.108ZM171.992 151.136C171.992 150.604 171.88 150.142 171.656 149.75C171.441 149.358 171.157 149.059 170.802 148.854C170.447 148.649 170.065 148.546 169.654 148.546C169.243 148.546 168.861 148.649 168.506 148.854C168.151 149.05 167.862 149.344 167.638 149.736C167.423 150.119 167.316 150.576 167.316 151.108C167.316 151.64 167.423 152.107 167.638 152.508C167.862 152.909 168.151 153.217 168.506 153.432C168.87 153.637 169.253 153.74 169.654 153.74C170.065 153.74 170.447 153.637 170.802 153.432C171.157 153.227 171.441 152.928 171.656 152.536C171.88 152.135 171.992 151.668 171.992 151.136ZM178.806 147.16C179.404 147.16 179.931 147.281 180.388 147.524C180.855 147.757 181.219 148.051 181.48 148.406V147.286H183.09V155.126C183.09 155.835 182.941 156.465 182.642 157.016C182.344 157.576 181.91 158.015 181.34 158.332C180.78 158.649 180.108 158.808 179.324 158.808C178.279 158.808 177.411 158.561 176.72 158.066C176.03 157.581 175.638 156.918 175.544 156.078H177.126C177.248 156.479 177.504 156.801 177.896 157.044C178.298 157.296 178.774 157.422 179.324 157.422C179.968 157.422 180.486 157.226 180.878 156.834C181.28 156.442 181.48 155.873 181.48 155.126V153.838C181.21 154.202 180.841 154.51 180.374 154.762C179.917 155.005 179.394 155.126 178.806 155.126C178.134 155.126 177.518 154.958 176.958 154.622C176.408 154.277 175.969 153.801 175.642 153.194C175.325 152.578 175.166 151.883 175.166 151.108C175.166 150.333 175.325 149.647 175.642 149.05C175.969 148.453 176.408 147.991 176.958 147.664C177.518 147.328 178.134 147.16 178.806 147.16ZM181.48 151.136C181.48 150.604 181.368 150.142 181.144 149.75C180.93 149.358 180.645 149.059 180.29 148.854C179.936 148.649 179.553 148.546 179.142 148.546C178.732 148.546 178.349 148.649 177.994 148.854C177.64 149.05 177.35 149.344 177.126 149.736C176.912 150.119 176.804 150.576 176.804 151.108C176.804 151.64 176.912 152.107 177.126 152.508C177.35 152.909 177.64 153.217 177.994 153.432C178.358 153.637 178.741 153.74 179.142 153.74C179.553 153.74 179.936 153.637 180.29 153.432C180.645 153.227 180.93 152.928 181.144 152.536C181.368 152.135 181.48 151.668 181.48 151.136ZM192.257 150.954C192.257 151.243 192.238 151.505 192.201 151.738H186.307C186.353 152.354 186.582 152.849 186.993 153.222C187.403 153.595 187.907 153.782 188.505 153.782C189.363 153.782 189.97 153.423 190.325 152.704H192.047C191.813 153.413 191.389 153.997 190.773 154.454C190.166 154.902 189.41 155.126 188.505 155.126C187.767 155.126 187.105 154.963 186.517 154.636C185.938 154.3 185.481 153.833 185.145 153.236C184.818 152.629 184.655 151.929 184.655 151.136C184.655 150.343 184.813 149.647 185.131 149.05C185.457 148.443 185.91 147.977 186.489 147.65C187.077 147.323 187.749 147.16 188.505 147.16C189.233 147.16 189.881 147.319 190.451 147.636C191.02 147.953 191.463 148.401 191.781 148.98C192.098 149.549 192.257 150.207 192.257 150.954ZM190.591 150.45C190.581 149.862 190.371 149.391 189.961 149.036C189.55 148.681 189.041 148.504 188.435 148.504C187.884 148.504 187.413 148.681 187.021 149.036C186.629 149.381 186.395 149.853 186.321 150.45H190.591ZM199.06 148.434C199.331 148.061 199.699 147.757 200.166 147.524C200.642 147.281 201.169 147.16 201.748 147.16C202.429 147.16 203.045 147.323 203.596 147.65C204.147 147.977 204.581 148.443 204.898 149.05C205.215 149.647 205.374 150.333 205.374 151.108C205.374 151.883 205.215 152.578 204.898 153.194C204.581 153.801 204.142 154.277 203.582 154.622C203.031 154.958 202.42 155.126 201.748 155.126C201.151 155.126 200.619 155.009 200.152 154.776C199.695 154.543 199.331 154.244 199.06 153.88V155H197.464V144.64H199.06V148.434ZM203.75 151.108C203.75 150.576 203.638 150.119 203.414 149.736C203.199 149.344 202.91 149.05 202.546 148.854C202.191 148.649 201.809 148.546 201.398 148.546C200.997 148.546 200.614 148.649 200.25 148.854C199.895 149.059 199.606 149.358 199.382 149.75C199.167 150.142 199.06 150.604 199.06 151.136C199.06 151.668 199.167 152.135 199.382 152.536C199.606 152.928 199.895 153.227 200.25 153.432C200.614 153.637 200.997 153.74 201.398 153.74C201.809 153.74 202.191 153.637 202.546 153.432C202.91 153.217 203.199 152.909 203.414 152.508C203.638 152.107 203.75 151.64 203.75 151.108ZM210.298 155.126C209.57 155.126 208.912 154.963 208.324 154.636C207.736 154.3 207.274 153.833 206.938 153.236C206.602 152.629 206.434 151.929 206.434 151.136C206.434 150.352 206.607 149.657 206.952 149.05C207.298 148.443 207.769 147.977 208.366 147.65C208.964 147.323 209.631 147.16 210.368 147.16C211.106 147.16 211.773 147.323 212.37 147.65C212.968 147.977 213.439 148.443 213.784 149.05C214.13 149.657 214.302 150.352 214.302 151.136C214.302 151.92 214.125 152.615 213.77 153.222C213.416 153.829 212.93 154.3 212.314 154.636C211.708 154.963 211.036 155.126 210.298 155.126ZM210.298 153.74C210.709 153.74 211.092 153.642 211.446 153.446C211.81 153.25 212.104 152.956 212.328 152.564C212.552 152.172 212.664 151.696 212.664 151.136C212.664 150.576 212.557 150.105 212.342 149.722C212.128 149.33 211.843 149.036 211.488 148.84C211.134 148.644 210.751 148.546 210.34 148.546C209.93 148.546 209.547 148.644 209.192 148.84C208.847 149.036 208.572 149.33 208.366 149.722C208.161 150.105 208.058 150.576 208.058 151.136C208.058 151.967 208.268 152.611 208.688 153.068C209.118 153.516 209.654 153.74 210.298 153.74ZM219.184 151.094L221.676 155H219.87L218.204 152.382L216.636 155H214.97L217.462 151.206L214.97 147.286H216.776L218.442 149.904L220.01 147.286H221.676L219.184 151.094ZM59.2799 175.27V176.572H55.1499V179.442H58.3699V180.744H55.1499V185H53.5539V175.27H59.2799ZM62.355 178.406C62.5883 178.014 62.8963 177.711 63.279 177.496C63.671 177.272 64.133 177.16 64.665 177.16V178.812H64.259C63.6337 178.812 63.1577 178.971 62.831 179.288C62.5137 179.605 62.355 180.156 62.355 180.94V185H60.759V177.286H62.355V178.406ZM73.202 180.954C73.202 181.243 73.1834 181.505 73.146 181.738H67.252C67.2987 182.354 67.5274 182.849 67.938 183.222C68.3487 183.595 68.8527 183.782 69.45 183.782C70.3087 183.782 70.9154 183.423 71.27 182.704H72.992C72.7587 183.413 72.334 183.997 71.718 184.454C71.1114 184.902 70.3554 185.126 69.45 185.126C68.7127 185.126 68.05 184.963 67.462 184.636C66.8834 184.3 66.426 183.833 66.09 183.236C65.7634 182.629 65.6 181.929 65.6 181.136C65.6 180.343 65.7587 179.647 66.076 179.05C66.4027 178.443 66.8554 177.977 67.434 177.65C68.022 177.323 68.694 177.16 69.45 177.16C70.178 177.16 70.8267 177.319 71.396 177.636C71.9654 177.953 72.4087 178.401 72.726 178.98C73.0434 179.549 73.202 180.207 73.202 180.954ZM71.536 180.45C71.5267 179.862 71.3167 179.391 70.906 179.036C70.4954 178.681 69.9867 178.504 69.38 178.504C68.8294 178.504 68.358 178.681 67.966 179.036C67.574 179.381 67.3407 179.853 67.266 180.45H71.536ZM81.8427 180.954C81.8427 181.243 81.824 181.505 81.7867 181.738H75.8927C75.9393 182.354 76.168 182.849 76.5787 183.222C76.9893 183.595 77.4933 183.782 78.0907 183.782C78.9493 183.782 79.556 183.423 79.9107 182.704H81.6327C81.3993 183.413 80.9747 183.997 80.3587 184.454C79.752 184.902 78.996 185.126 78.0907 185.126C77.3533 185.126 76.6907 184.963 76.1027 184.636C75.524 184.3 75.0667 183.833 74.7307 183.236C74.404 182.629 74.2407 181.929 74.2407 181.136C74.2407 180.343 74.3993 179.647 74.7167 179.05C75.0433 178.443 75.496 177.977 76.0747 177.65C76.6627 177.323 77.3347 177.16 78.0907 177.16C78.8187 177.16 79.4673 177.319 80.0367 177.636C80.606 177.953 81.0493 178.401 81.3667 178.98C81.684 179.549 81.8427 180.207 81.8427 180.954ZM80.1767 180.45C80.1673 179.862 79.9573 179.391 79.5467 179.036C79.136 178.681 78.6273 178.504 78.0207 178.504C77.47 178.504 76.9987 178.681 76.6067 179.036C76.2147 179.381 75.9813 179.853 75.9067 180.45H80.1767ZM86.518 181.108C86.518 180.333 86.6767 179.647 86.994 179.05C87.3207 178.453 87.7593 177.991 88.31 177.664C88.87 177.328 89.4907 177.16 90.172 177.16C90.676 177.16 91.1707 177.272 91.656 177.496C92.1507 177.711 92.5427 178 92.832 178.364V174.64H94.442V185H92.832V183.838C92.5707 184.211 92.2067 184.519 91.74 184.762C91.2827 185.005 90.7553 185.126 90.158 185.126C89.486 185.126 88.87 184.958 88.31 184.622C87.7593 184.277 87.3207 183.801 86.994 183.194C86.6767 182.578 86.518 181.883 86.518 181.108ZM92.832 181.136C92.832 180.604 92.72 180.142 92.496 179.75C92.2813 179.358 91.9967 179.059 91.642 178.854C91.2873 178.649 90.9047 178.546 90.494 178.546C90.0833 178.546 89.7007 178.649 89.346 178.854C88.9913 179.05 88.702 179.344 88.478 179.736C88.2633 180.119 88.156 180.576 88.156 181.108C88.156 181.64 88.2633 182.107 88.478 182.508C88.702 182.909 88.9913 183.217 89.346 183.432C89.71 183.637 90.0927 183.74 90.494 183.74C90.9047 183.74 91.2873 183.637 91.642 183.432C91.9967 183.227 92.2813 182.928 92.496 182.536C92.72 182.135 92.832 181.668 92.832 181.136ZM103.608 180.954C103.608 181.243 103.59 181.505 103.552 181.738H97.6583C97.7049 182.354 97.9336 182.849 98.3443 183.222C98.7549 183.595 99.2589 183.782 99.8563 183.782C100.715 183.782 101.322 183.423 101.676 182.704H103.398C103.165 183.413 102.74 183.997 102.124 184.454C101.518 184.902 100.762 185.126 99.8563 185.126C99.1189 185.126 98.4563 184.963 97.8683 184.636C97.2896 184.3 96.8323 183.833 96.4963 183.236C96.1696 182.629 96.0063 181.929 96.0063 181.136C96.0063 180.343 96.1649 179.647 96.4823 179.05C96.8089 178.443 97.2616 177.977 97.8403 177.65C98.4283 177.323 99.1003 177.16 99.8563 177.16C100.584 177.16 101.233 177.319 101.802 177.636C102.372 177.953 102.815 178.401 103.132 178.98C103.45 179.549 103.608 180.207 103.608 180.954ZM101.942 180.45C101.933 179.862 101.723 179.391 101.312 179.036C100.902 178.681 100.393 178.504 99.7863 178.504C99.2356 178.504 98.7643 178.681 98.3723 179.036C97.9803 179.381 97.7469 179.853 97.6723 180.45H101.942ZM106.775 174.64V185H105.179V174.64H106.775ZM109.682 176.264C109.393 176.264 109.15 176.166 108.954 175.97C108.758 175.774 108.66 175.531 108.66 175.242C108.66 174.953 108.758 174.71 108.954 174.514C109.15 174.318 109.393 174.22 109.682 174.22C109.962 174.22 110.2 174.318 110.396 174.514C110.592 174.71 110.69 174.953 110.69 175.242C110.69 175.531 110.592 175.774 110.396 175.97C110.2 176.166 109.962 176.264 109.682 176.264ZM110.466 177.286V185H108.87V177.286H110.466ZM115.544 183.572L117.728 177.286H119.422L116.482 185H114.578L111.652 177.286H113.36L115.544 183.572ZM127.698 180.954C127.698 181.243 127.679 181.505 127.642 181.738H121.748C121.795 182.354 122.023 182.849 122.434 183.222C122.845 183.595 123.349 183.782 123.946 183.782C124.805 183.782 125.411 183.423 125.766 182.704H127.488C127.255 183.413 126.83 183.997 126.214 184.454C125.607 184.902 124.851 185.126 123.946 185.126C123.209 185.126 122.546 184.963 121.958 184.636C121.379 184.3 120.922 183.833 120.586 183.236C120.259 182.629 120.096 181.929 120.096 181.136C120.096 180.343 120.255 179.647 120.572 179.05C120.899 178.443 121.351 177.977 121.93 177.65C122.518 177.323 123.19 177.16 123.946 177.16C124.674 177.16 125.323 177.319 125.892 177.636C126.461 177.953 126.905 178.401 127.222 178.98C127.539 179.549 127.698 180.207 127.698 180.954ZM126.032 180.45C126.023 179.862 125.813 179.391 125.402 179.036C124.991 178.681 124.483 178.504 123.876 178.504C123.325 178.504 122.854 178.681 122.462 179.036C122.07 179.381 121.837 179.853 121.762 180.45H126.032ZM130.865 178.406C131.098 178.014 131.406 177.711 131.789 177.496C132.181 177.272 132.643 177.16 133.175 177.16V178.812H132.769C132.143 178.812 131.667 178.971 131.341 179.288C131.023 179.605 130.865 180.156 130.865 180.94V185H129.269V177.286H130.865V178.406ZM141.586 177.286L136.854 188.626H135.202L136.77 184.874L133.732 177.286H135.51L137.68 183.166L139.934 177.286H141.586ZM153.497 180.954C153.497 181.243 153.478 181.505 153.441 181.738H147.547C147.594 182.354 147.822 182.849 148.233 183.222C148.644 183.595 149.148 183.782 149.745 183.782C150.604 183.782 151.21 183.423 151.565 182.704H153.287C153.054 183.413 152.629 183.997 152.013 184.454C151.406 184.902 150.65 185.126 149.745 185.126C149.008 185.126 148.345 184.963 147.757 184.636C147.178 184.3 146.721 183.833 146.385 183.236C146.058 182.629 145.895 181.929 145.895 181.136C145.895 180.343 146.054 179.647 146.371 179.05C146.698 178.443 147.15 177.977 147.729 177.65C148.317 177.323 148.989 177.16 149.745 177.16C150.473 177.16 151.122 177.319 151.691 177.636C152.26 177.953 152.704 178.401 153.021 178.98C153.338 179.549 153.497 180.207 153.497 180.954ZM151.831 180.45C151.822 179.862 151.612 179.391 151.201 179.036C150.79 178.681 150.282 178.504 149.675 178.504C149.124 178.504 148.653 178.681 148.261 179.036C147.869 179.381 147.636 179.853 147.561 180.45H151.831ZM154.536 181.108C154.536 180.333 154.694 179.647 155.012 179.05C155.338 178.453 155.777 177.991 156.328 177.664C156.888 177.328 157.504 177.16 158.176 177.16C158.782 177.16 159.31 177.281 159.758 177.524C160.215 177.757 160.579 178.051 160.85 178.406V177.286H162.46V185H160.85V183.852C160.579 184.216 160.21 184.519 159.744 184.762C159.277 185.005 158.745 185.126 158.148 185.126C157.485 185.126 156.878 184.958 156.328 184.622C155.777 184.277 155.338 183.801 155.012 183.194C154.694 182.578 154.536 181.883 154.536 181.108ZM160.85 181.136C160.85 180.604 160.738 180.142 160.514 179.75C160.299 179.358 160.014 179.059 159.66 178.854C159.305 178.649 158.922 178.546 158.512 178.546C158.101 178.546 157.718 178.649 157.364 178.854C157.009 179.05 156.72 179.344 156.496 179.736C156.281 180.119 156.174 180.576 156.174 181.108C156.174 181.64 156.281 182.107 156.496 182.508C156.72 182.909 157.009 183.217 157.364 183.432C157.728 183.637 158.11 183.74 158.512 183.74C158.922 183.74 159.305 183.637 159.66 183.432C160.014 183.227 160.299 182.928 160.514 182.536C160.738 182.135 160.85 181.668 160.85 181.136ZM164.024 181.136C164.024 180.343 164.183 179.647 164.5 179.05C164.827 178.443 165.275 177.977 165.844 177.65C166.413 177.323 167.067 177.16 167.804 177.16C168.737 177.16 169.507 177.384 170.114 177.832C170.73 178.271 171.145 178.901 171.36 179.722H169.638C169.498 179.339 169.274 179.041 168.966 178.826C168.658 178.611 168.271 178.504 167.804 178.504C167.151 178.504 166.628 178.737 166.236 179.204C165.853 179.661 165.662 180.305 165.662 181.136C165.662 181.967 165.853 182.615 166.236 183.082C166.628 183.549 167.151 183.782 167.804 183.782C168.728 183.782 169.339 183.376 169.638 182.564H171.36C171.136 183.348 170.716 183.973 170.1 184.44C169.484 184.897 168.719 185.126 167.804 185.126C167.067 185.126 166.413 184.963 165.844 184.636C165.275 184.3 164.827 183.833 164.5 183.236C164.183 182.629 164.024 181.929 164.024 181.136ZM176.94 177.16C177.528 177.16 178.051 177.286 178.508 177.538C178.975 177.79 179.339 178.163 179.6 178.658C179.871 179.153 180.006 179.75 180.006 180.45V185H178.424V180.688C178.424 179.997 178.252 179.47 177.906 179.106C177.561 178.733 177.09 178.546 176.492 178.546C175.895 178.546 175.419 178.733 175.064 179.106C174.719 179.47 174.546 179.997 174.546 180.688V185H172.95V174.64H174.546V178.182C174.817 177.855 175.158 177.603 175.568 177.426C175.988 177.249 176.446 177.16 176.94 177.16ZM195.017 177.16C195.624 177.16 196.165 177.286 196.641 177.538C197.126 177.79 197.504 178.163 197.775 178.658C198.055 179.153 198.195 179.75 198.195 180.45V185H196.613V180.688C196.613 179.997 196.44 179.47 196.095 179.106C195.75 178.733 195.278 178.546 194.681 178.546C194.084 178.546 193.608 178.733 193.253 179.106C192.908 179.47 192.735 179.997 192.735 180.688V185H191.153V180.688C191.153 179.997 190.98 179.47 190.635 179.106C190.29 178.733 189.818 178.546 189.221 178.546C188.624 178.546 188.148 178.733 187.793 179.106C187.448 179.47 187.275 179.997 187.275 180.688V185H185.679V177.286H187.275V178.168C187.536 177.851 187.868 177.603 188.269 177.426C188.67 177.249 189.1 177.16 189.557 177.16C190.173 177.16 190.724 177.291 191.209 177.552C191.694 177.813 192.068 178.191 192.329 178.686C192.562 178.219 192.926 177.851 193.421 177.58C193.916 177.3 194.448 177.16 195.017 177.16ZM203.572 185.126C202.844 185.126 202.186 184.963 201.598 184.636C201.01 184.3 200.548 183.833 200.212 183.236C199.876 182.629 199.708 181.929 199.708 181.136C199.708 180.352 199.88 179.657 200.226 179.05C200.571 178.443 201.042 177.977 201.64 177.65C202.237 177.323 202.904 177.16 203.642 177.16C204.379 177.16 205.046 177.323 205.644 177.65C206.241 177.977 206.712 178.443 207.058 179.05C207.403 179.657 207.576 180.352 207.576 181.136C207.576 181.92 207.398 182.615 207.044 183.222C206.689 183.829 206.204 184.3 205.588 184.636C204.981 184.963 204.309 185.126 203.572 185.126ZM203.572 183.74C203.982 183.74 204.365 183.642 204.72 183.446C205.084 183.25 205.378 182.956 205.602 182.564C205.826 182.172 205.938 181.696 205.938 181.136C205.938 180.576 205.83 180.105 205.616 179.722C205.401 179.33 205.116 179.036 204.762 178.84C204.407 178.644 204.024 178.546 203.614 178.546C203.203 178.546 202.82 178.644 202.466 178.84C202.12 179.036 201.845 179.33 201.64 179.722C201.434 180.105 201.332 180.576 201.332 181.136C201.332 181.967 201.542 182.611 201.962 183.068C202.391 183.516 202.928 183.74 203.572 183.74ZM213.046 177.16C213.652 177.16 214.194 177.286 214.67 177.538C215.155 177.79 215.533 178.163 215.804 178.658C216.074 179.153 216.21 179.75 216.21 180.45V185H214.628V180.688C214.628 179.997 214.455 179.47 214.11 179.106C213.764 178.733 213.293 178.546 212.696 178.546C212.098 178.546 211.622 178.733 211.268 179.106C210.922 179.47 210.75 179.997 210.75 180.688V185H209.154V177.286H210.75V178.168C211.011 177.851 211.342 177.603 211.744 177.426C212.154 177.249 212.588 177.16 213.046 177.16ZM220.107 178.588V182.858C220.107 183.147 220.173 183.357 220.303 183.488C220.443 183.609 220.677 183.67 221.003 183.67H221.983V185H220.723C220.005 185 219.454 184.832 219.071 184.496C218.689 184.16 218.497 183.614 218.497 182.858V178.588H217.587V177.286H218.497V175.368H220.107V177.286H221.983V178.588H220.107ZM227.444 177.16C228.032 177.16 228.555 177.286 229.012 177.538C229.479 177.79 229.843 178.163 230.104 178.658C230.375 179.153 230.51 179.75 230.51 180.45V185H228.928V180.688C228.928 179.997 228.756 179.47 228.41 179.106C228.065 178.733 227.594 178.546 226.996 178.546C226.399 178.546 225.923 178.733 225.568 179.106C225.223 179.47 225.05 179.997 225.05 180.688V185H223.454V174.64H225.05V178.182C225.321 177.855 225.662 177.603 226.072 177.426C226.492 177.249 226.95 177.16 227.444 177.16ZM40.1007 215.098C39.4474 215.098 38.8594 214.986 38.3367 214.762C37.8141 214.529 37.4034 214.202 37.1047 213.782C36.8061 213.362 36.6567 212.872 36.6567 212.312H38.3647C38.4021 212.732 38.5654 213.077 38.8547 213.348C39.1534 213.619 39.5687 213.754 40.1007 213.754C40.6514 213.754 41.0807 213.623 41.3887 213.362C41.6967 213.091 41.8507 212.746 41.8507 212.326C41.8507 211.999 41.7527 211.733 41.5567 211.528C41.3701 211.323 41.1321 211.164 40.8427 211.052C40.5627 210.94 40.1707 210.819 39.6667 210.688C39.0321 210.52 38.5141 210.352 38.1127 210.184C37.7207 210.007 37.3847 209.736 37.1047 209.372C36.8247 209.008 36.6847 208.523 36.6847 207.916C36.6847 207.356 36.8247 206.866 37.1047 206.446C37.3847 206.026 37.7767 205.704 38.2807 205.48C38.7847 205.256 39.3681 205.144 40.0307 205.144C40.9734 205.144 41.7434 205.382 42.3407 205.858C42.9474 206.325 43.2834 206.969 43.3487 207.79H41.5847C41.5567 207.435 41.3887 207.132 41.0807 206.88C40.7727 206.628 40.3667 206.502 39.8627 206.502C39.4054 206.502 39.0321 206.619 38.7427 206.852C38.4534 207.085 38.3087 207.421 38.3087 207.86C38.3087 208.159 38.3974 208.406 38.5747 208.602C38.7614 208.789 38.9947 208.938 39.2747 209.05C39.5547 209.162 39.9374 209.283 40.4227 209.414C41.0667 209.591 41.5894 209.769 41.9907 209.946C42.4014 210.123 42.7467 210.399 43.0267 210.772C43.3161 211.136 43.4607 211.626 43.4607 212.242C43.4607 212.737 43.3254 213.203 43.0547 213.642C42.7934 214.081 42.4061 214.435 41.8927 214.706C41.3887 214.967 40.7914 215.098 40.1007 215.098ZM46.9399 208.42C47.2106 208.065 47.5793 207.767 48.0459 207.524C48.5126 207.281 49.0399 207.16 49.6279 207.16C50.2999 207.16 50.9113 207.328 51.4619 207.664C52.0219 207.991 52.4606 208.453 52.7779 209.05C53.0953 209.647 53.2539 210.333 53.2539 211.108C53.2539 211.883 53.0953 212.578 52.7779 213.194C52.4606 213.801 52.0219 214.277 51.4619 214.622C50.9113 214.958 50.2999 215.126 49.6279 215.126C49.0399 215.126 48.5173 215.009 48.0599 214.776C47.6026 214.533 47.2293 214.235 46.9399 213.88V218.668H45.3439V207.286H46.9399V208.42ZM51.6299 211.108C51.6299 210.576 51.5179 210.119 51.2939 209.736C51.0793 209.344 50.7899 209.05 50.4259 208.854C50.0713 208.649 49.6886 208.546 49.2779 208.546C48.8766 208.546 48.4939 208.649 48.1299 208.854C47.7753 209.059 47.4859 209.358 47.2619 209.75C47.0473 210.142 46.9399 210.604 46.9399 211.136C46.9399 211.668 47.0473 212.135 47.2619 212.536C47.4859 212.928 47.7753 213.227 48.1299 213.432C48.4939 213.637 48.8766 213.74 49.2779 213.74C49.6886 213.74 50.0713 213.637 50.4259 213.432C50.7899 213.217 51.0793 212.909 51.2939 212.508C51.5179 212.107 51.6299 211.64 51.6299 211.108ZM61.9022 210.954C61.9022 211.243 61.8836 211.505 61.8462 211.738H55.9522C55.9989 212.354 56.2276 212.849 56.6382 213.222C57.0489 213.595 57.5529 213.782 58.1502 213.782C59.0089 213.782 59.6156 213.423 59.9702 212.704H61.6922C61.4589 213.413 61.0342 213.997 60.4182 214.454C59.8116 214.902 59.0556 215.126 58.1502 215.126C57.4129 215.126 56.7502 214.963 56.1622 214.636C55.5836 214.3 55.1262 213.833 54.7902 213.236C54.4636 212.629 54.3002 211.929 54.3002 211.136C54.3002 210.343 54.4589 209.647 54.7762 209.05C55.1029 208.443 55.5556 207.977 56.1342 207.65C56.7222 207.323 57.3942 207.16 58.1502 207.16C58.8782 207.16 59.5269 207.319 60.0962 207.636C60.6656 207.953 61.1089 208.401 61.4262 208.98C61.7436 209.549 61.9022 210.207 61.9022 210.954ZM60.2362 210.45C60.2269 209.862 60.0169 209.391 59.6062 209.036C59.1956 208.681 58.6869 208.504 58.0802 208.504C57.5296 208.504 57.0582 208.681 56.6662 209.036C56.2742 209.381 56.0409 209.853 55.9662 210.45H60.2362ZM62.9409 211.136C62.9409 210.343 63.0995 209.647 63.4169 209.05C63.7435 208.443 64.1915 207.977 64.7609 207.65C65.3302 207.323 65.9835 207.16 66.7209 207.16C67.6542 207.16 68.4242 207.384 69.0309 207.832C69.6469 208.271 70.0622 208.901 70.2769 209.722H68.5549C68.4149 209.339 68.1909 209.041 67.8829 208.826C67.5749 208.611 67.1875 208.504 66.7209 208.504C66.0675 208.504 65.5449 208.737 65.1529 209.204C64.7702 209.661 64.5789 210.305 64.5789 211.136C64.5789 211.967 64.7702 212.615 65.1529 213.082C65.5449 213.549 66.0675 213.782 66.7209 213.782C67.6449 213.782 68.2562 213.376 68.5549 212.564H70.2769C70.0529 213.348 69.6329 213.973 69.0169 214.44C68.4009 214.897 67.6355 215.126 66.7209 215.126C65.9835 215.126 65.3302 214.963 64.7609 214.636C64.1915 214.3 63.7435 213.833 63.4169 213.236C63.0995 212.629 62.9409 211.929 62.9409 211.136ZM72.6794 206.264C72.39 206.264 72.1474 206.166 71.9514 205.97C71.7554 205.774 71.6574 205.531 71.6574 205.242C71.6574 204.953 71.7554 204.71 71.9514 204.514C72.1474 204.318 72.39 204.22 72.6794 204.22C72.9594 204.22 73.1974 204.318 73.3934 204.514C73.5894 204.71 73.6874 204.953 73.6874 205.242C73.6874 205.531 73.5894 205.774 73.3934 205.97C73.1974 206.166 72.9594 206.264 72.6794 206.264ZM73.4634 207.286V215H71.8674V207.286H73.4634ZM75.0268 211.108C75.0268 210.333 75.1855 209.647 75.5028 209.05C75.8295 208.453 76.2681 207.991 76.8188 207.664C77.3788 207.328 77.9948 207.16 78.6668 207.16C79.2735 207.16 79.8008 207.281 80.2488 207.524C80.7061 207.757 81.0701 208.051 81.3408 208.406V207.286H82.9508V215H81.3408V213.852C81.0701 214.216 80.7015 214.519 80.2348 214.762C79.7681 215.005 79.2361 215.126 78.6388 215.126C77.9761 215.126 77.3695 214.958 76.8188 214.622C76.2681 214.277 75.8295 213.801 75.5028 213.194C75.1855 212.578 75.0268 211.883 75.0268 211.108ZM81.3408 211.136C81.3408 210.604 81.2288 210.142 81.0048 209.75C80.7901 209.358 80.5055 209.059 80.1508 208.854C79.7961 208.649 79.4135 208.546 79.0028 208.546C78.5921 208.546 78.2095 208.649 77.8548 208.854C77.5001 209.05 77.2108 209.344 76.9868 209.736C76.7721 210.119 76.6648 210.576 76.6648 211.108C76.6648 211.64 76.7721 212.107 76.9868 212.508C77.2108 212.909 77.5001 213.217 77.8548 213.432C78.2188 213.637 78.6015 213.74 79.0028 213.74C79.4135 213.74 79.7961 213.637 80.1508 213.432C80.5055 213.227 80.7901 212.928 81.0048 212.536C81.2288 212.135 81.3408 211.668 81.3408 211.136ZM86.6431 204.64V215H85.0471V204.64H86.6431ZM90.3345 204.64V215H88.7385V204.64H90.3345ZM99.3739 207.286L94.6419 218.626H92.9899L94.5579 214.874L91.5199 207.286H93.2979L95.4679 213.166L97.7219 207.286H99.3739ZM103.683 211.108C103.683 210.333 103.842 209.647 104.159 209.05C104.486 208.453 104.924 207.991 105.475 207.664C106.035 207.328 106.656 207.16 107.337 207.16C107.841 207.16 108.336 207.272 108.821 207.496C109.316 207.711 109.708 208 109.997 208.364V204.64H111.607V215H109.997V213.838C109.736 214.211 109.372 214.519 108.905 214.762C108.448 215.005 107.92 215.126 107.323 215.126C106.651 215.126 106.035 214.958 105.475 214.622C104.924 214.277 104.486 213.801 104.159 213.194C103.842 212.578 103.683 211.883 103.683 211.108ZM109.997 211.136C109.997 210.604 109.885 210.142 109.661 209.75C109.446 209.358 109.162 209.059 108.807 208.854C108.452 208.649 108.07 208.546 107.659 208.546C107.248 208.546 106.866 208.649 106.511 208.854C106.156 209.05 105.867 209.344 105.643 209.736C105.428 210.119 105.321 210.576 105.321 211.108C105.321 211.64 105.428 212.107 105.643 212.508C105.867 212.909 106.156 213.217 106.511 213.432C106.875 213.637 107.258 213.74 107.659 213.74C108.07 213.74 108.452 213.637 108.807 213.432C109.162 213.227 109.446 212.928 109.661 212.536C109.885 212.135 109.997 211.668 109.997 211.136ZM120.773 210.954C120.773 211.243 120.755 211.505 120.717 211.738H114.823C114.87 212.354 115.099 212.849 115.509 213.222C115.92 213.595 116.424 213.782 117.021 213.782C117.88 213.782 118.487 213.423 118.841 212.704H120.563C120.33 213.413 119.905 213.997 119.289 214.454C118.683 214.902 117.927 215.126 117.021 215.126C116.284 215.126 115.621 214.963 115.033 214.636C114.455 214.3 113.997 213.833 113.661 213.236C113.335 212.629 113.171 211.929 113.171 211.136C113.171 210.343 113.33 209.647 113.647 209.05C113.974 208.443 114.427 207.977 115.005 207.65C115.593 207.323 116.265 207.16 117.021 207.16C117.749 207.16 118.398 207.319 118.967 207.636C119.537 207.953 119.98 208.401 120.297 208.98C120.615 209.549 120.773 210.207 120.773 210.954ZM119.107 210.45C119.098 209.862 118.888 209.391 118.477 209.036C118.067 208.681 117.558 208.504 116.951 208.504C116.401 208.504 115.929 208.681 115.537 209.036C115.145 209.381 114.912 209.853 114.837 210.45H119.107ZM125.144 215.126C124.537 215.126 123.991 215.019 123.506 214.804C123.03 214.58 122.652 214.281 122.372 213.908C122.092 213.525 121.943 213.101 121.924 212.634H123.576C123.604 212.961 123.758 213.236 124.038 213.46C124.327 213.675 124.687 213.782 125.116 213.782C125.564 213.782 125.909 213.698 126.152 213.53C126.404 213.353 126.53 213.129 126.53 212.858C126.53 212.569 126.39 212.354 126.11 212.214C125.839 212.074 125.405 211.92 124.808 211.752C124.229 211.593 123.758 211.439 123.394 211.29C123.03 211.141 122.713 210.912 122.442 210.604C122.181 210.296 122.05 209.89 122.05 209.386C122.05 208.975 122.171 208.602 122.414 208.266C122.657 207.921 123.002 207.65 123.45 207.454C123.907 207.258 124.43 207.16 125.018 207.16C125.895 207.16 126.6 207.384 127.132 207.832C127.673 208.271 127.963 208.873 128 209.638H126.404C126.376 209.293 126.236 209.017 125.984 208.812C125.732 208.607 125.391 208.504 124.962 208.504C124.542 208.504 124.22 208.583 123.996 208.742C123.772 208.901 123.66 209.111 123.66 209.372C123.66 209.577 123.735 209.75 123.884 209.89C124.033 210.03 124.215 210.142 124.43 210.226C124.645 210.301 124.962 210.399 125.382 210.52C125.942 210.669 126.399 210.823 126.754 210.982C127.118 211.131 127.431 211.355 127.692 211.654C127.953 211.953 128.089 212.349 128.098 212.844C128.098 213.283 127.977 213.675 127.734 214.02C127.491 214.365 127.146 214.636 126.698 214.832C126.259 215.028 125.741 215.126 125.144 215.126ZM130.634 206.264C130.345 206.264 130.102 206.166 129.906 205.97C129.71 205.774 129.612 205.531 129.612 205.242C129.612 204.953 129.71 204.71 129.906 204.514C130.102 204.318 130.345 204.22 130.634 204.22C130.914 204.22 131.152 204.318 131.348 204.514C131.544 204.71 131.642 204.953 131.642 205.242C131.642 205.531 131.544 205.774 131.348 205.97C131.152 206.166 130.914 206.264 130.634 206.264ZM131.418 207.286V215H129.822V207.286H131.418ZM136.622 207.16C137.219 207.16 137.747 207.281 138.204 207.524C138.671 207.757 139.035 208.051 139.296 208.406V207.286H140.906V215.126C140.906 215.835 140.757 216.465 140.458 217.016C140.159 217.576 139.725 218.015 139.156 218.332C138.596 218.649 137.924 218.808 137.14 218.808C136.095 218.808 135.227 218.561 134.536 218.066C133.845 217.581 133.453 216.918 133.36 216.078H134.942C135.063 216.479 135.32 216.801 135.712 217.044C136.113 217.296 136.589 217.422 137.14 217.422C137.784 217.422 138.302 217.226 138.694 216.834C139.095 216.442 139.296 215.873 139.296 215.126V213.838C139.025 214.202 138.657 214.51 138.19 214.762C137.733 215.005 137.21 215.126 136.622 215.126C135.95 215.126 135.334 214.958 134.774 214.622C134.223 214.277 133.785 213.801 133.458 213.194C133.141 212.578 132.982 211.883 132.982 211.108C132.982 210.333 133.141 209.647 133.458 209.05C133.785 208.453 134.223 207.991 134.774 207.664C135.334 207.328 135.95 207.16 136.622 207.16ZM139.296 211.136C139.296 210.604 139.184 210.142 138.96 209.75C138.745 209.358 138.461 209.059 138.106 208.854C137.751 208.649 137.369 208.546 136.958 208.546C136.547 208.546 136.165 208.649 135.81 208.854C135.455 209.05 135.166 209.344 134.942 209.736C134.727 210.119 134.62 210.576 134.62 211.108C134.62 211.64 134.727 212.107 134.942 212.508C135.166 212.909 135.455 213.217 135.81 213.432C136.174 213.637 136.557 213.74 136.958 213.74C137.369 213.74 137.751 213.637 138.106 213.432C138.461 213.227 138.745 212.928 138.96 212.536C139.184 212.135 139.296 211.668 139.296 211.136ZM146.894 207.16C147.501 207.16 148.042 207.286 148.518 207.538C149.003 207.79 149.381 208.163 149.652 208.658C149.923 209.153 150.058 209.75 150.058 210.45V215H148.476V210.688C148.476 209.997 148.303 209.47 147.958 209.106C147.613 208.733 147.141 208.546 146.544 208.546C145.947 208.546 145.471 208.733 145.116 209.106C144.771 209.47 144.598 209.997 144.598 210.688V215H143.002V207.286H144.598V208.168C144.859 207.851 145.191 207.603 145.592 207.426C146.003 207.249 146.437 207.16 146.894 207.16ZM159.164 210.954C159.164 211.243 159.145 211.505 159.108 211.738H153.214C153.261 212.354 153.489 212.849 153.9 213.222C154.311 213.595 154.815 213.782 155.412 213.782C156.271 213.782 156.877 213.423 157.232 212.704H158.954C158.721 213.413 158.296 213.997 157.68 214.454C157.073 214.902 156.317 215.126 155.412 215.126C154.675 215.126 154.012 214.963 153.424 214.636C152.845 214.3 152.388 213.833 152.052 213.236C151.725 212.629 151.562 211.929 151.562 211.136C151.562 210.343 151.721 209.647 152.038 209.05C152.365 208.443 152.817 207.977 153.396 207.65C153.984 207.323 154.656 207.16 155.412 207.16C156.14 207.16 156.789 207.319 157.358 207.636C157.927 207.953 158.371 208.401 158.688 208.98C159.005 209.549 159.164 210.207 159.164 210.954ZM157.498 210.45C157.489 209.862 157.279 209.391 156.868 209.036C156.457 208.681 155.949 208.504 155.342 208.504C154.791 208.504 154.32 208.681 153.928 209.036C153.536 209.381 153.303 209.853 153.228 210.45H157.498ZM160.203 211.108C160.203 210.333 160.361 209.647 160.679 209.05C161.005 208.453 161.444 207.991 161.995 207.664C162.555 207.328 163.175 207.16 163.857 207.16C164.361 207.16 164.855 207.272 165.341 207.496C165.835 207.711 166.227 208 166.517 208.364V204.64H168.127V215H166.517V213.838C166.255 214.211 165.891 214.519 165.425 214.762C164.967 215.005 164.44 215.126 163.843 215.126C163.171 215.126 162.555 214.958 161.995 214.622C161.444 214.277 161.005 213.801 160.679 213.194C160.361 212.578 160.203 211.883 160.203 211.108ZM166.517 211.136C166.517 210.604 166.405 210.142 166.181 209.75C165.966 209.358 165.681 209.059 165.327 208.854C164.972 208.649 164.589 208.546 164.179 208.546C163.768 208.546 163.385 208.649 163.031 208.854C162.676 209.05 162.387 209.344 162.163 209.736C161.948 210.119 161.841 210.576 161.841 211.108C161.841 211.64 161.948 212.107 162.163 212.508C162.387 212.909 162.676 213.217 163.031 213.432C163.395 213.637 163.777 213.74 164.179 213.74C164.589 213.74 164.972 213.637 165.327 213.432C165.681 213.227 165.966 212.928 166.181 212.536C166.405 212.135 166.517 211.668 166.517 211.136ZM177.094 208.588H175.666V215H174.056V208.588H173.146V207.286H174.056V206.74C174.056 205.853 174.289 205.209 174.756 204.808C175.232 204.397 175.974 204.192 176.982 204.192V205.522C176.496 205.522 176.156 205.615 175.96 205.802C175.764 205.979 175.666 206.292 175.666 206.74V207.286H177.094V208.588ZM181.854 215.126C181.126 215.126 180.468 214.963 179.88 214.636C179.292 214.3 178.83 213.833 178.494 213.236C178.158 212.629 177.99 211.929 177.99 211.136C177.99 210.352 178.163 209.657 178.508 209.05C178.853 208.443 179.325 207.977 179.922 207.65C180.519 207.323 181.187 207.16 181.924 207.16C182.661 207.16 183.329 207.323 183.926 207.65C184.523 207.977 184.995 208.443 185.34 209.05C185.685 209.657 185.858 210.352 185.858 211.136C185.858 211.92 185.681 212.615 185.326 213.222C184.971 213.829 184.486 214.3 183.87 214.636C183.263 214.963 182.591 215.126 181.854 215.126ZM181.854 213.74C182.265 213.74 182.647 213.642 183.002 213.446C183.366 213.25 183.66 212.956 183.884 212.564C184.108 212.172 184.22 211.696 184.22 211.136C184.22 210.576 184.113 210.105 183.898 209.722C183.683 209.33 183.399 209.036 183.044 208.84C182.689 208.644 182.307 208.546 181.896 208.546C181.485 208.546 181.103 208.644 180.748 208.84C180.403 209.036 180.127 209.33 179.922 209.722C179.717 210.105 179.614 210.576 179.614 211.136C179.614 211.967 179.824 212.611 180.244 213.068C180.673 213.516 181.21 213.74 181.854 213.74ZM189.032 208.406C189.265 208.014 189.573 207.711 189.956 207.496C190.348 207.272 190.81 207.16 191.342 207.16V208.812H190.936C190.31 208.812 189.834 208.971 189.508 209.288C189.19 209.605 189.032 210.156 189.032 210.94V215H187.436V207.286H189.032V208.406ZM206.806 207.286L204.412 215H202.732L201.178 209.302L199.624 215H197.944L195.536 207.286H197.16L198.77 213.488L200.408 207.286H202.074L203.642 213.46L205.238 207.286H206.806ZM211.344 215.126C210.616 215.126 209.958 214.963 209.37 214.636C208.782 214.3 208.32 213.833 207.984 213.236C207.648 212.629 207.48 211.929 207.48 211.136C207.48 210.352 207.653 209.657 207.998 209.05C208.344 208.443 208.815 207.977 209.412 207.65C210.01 207.323 210.677 207.16 211.414 207.16C212.152 207.16 212.819 207.323 213.416 207.65C214.014 207.977 214.485 208.443 214.83 209.05C215.176 209.657 215.348 210.352 215.348 211.136C215.348 211.92 215.171 212.615 214.816 213.222C214.462 213.829 213.976 214.3 213.36 214.636C212.754 214.963 212.082 215.126 211.344 215.126ZM211.344 213.74C211.755 213.74 212.138 213.642 212.492 213.446C212.856 213.25 213.15 212.956 213.374 212.564C213.598 212.172 213.71 211.696 213.71 211.136C213.71 210.576 213.603 210.105 213.388 209.722C213.174 209.33 212.889 209.036 212.534 208.84C212.18 208.644 211.797 208.546 211.386 208.546C210.976 208.546 210.593 208.644 210.238 208.84C209.893 209.036 209.618 209.33 209.412 209.722C209.207 210.105 209.104 210.576 209.104 211.136C209.104 211.967 209.314 212.611 209.734 213.068C210.164 213.516 210.7 213.74 211.344 213.74ZM226.264 207.16C226.871 207.16 227.412 207.286 227.888 207.538C228.373 207.79 228.751 208.163 229.022 208.658C229.302 209.153 229.442 209.75 229.442 210.45V215H227.86V210.688C227.86 209.997 227.687 209.47 227.342 209.106C226.997 208.733 226.525 208.546 225.928 208.546C225.331 208.546 224.855 208.733 224.5 209.106C224.155 209.47 223.982 209.997 223.982 210.688V215H222.4V210.688C222.4 209.997 222.227 209.47 221.882 209.106C221.537 208.733 221.065 208.546 220.468 208.546C219.871 208.546 219.395 208.733 219.04 209.106C218.695 209.47 218.522 209.997 218.522 210.688V215H216.926V207.286H218.522V208.168C218.783 207.851 219.115 207.603 219.516 207.426C219.917 207.249 220.347 207.16 220.804 207.16C221.42 207.16 221.971 207.291 222.456 207.552C222.941 207.813 223.315 208.191 223.576 208.686C223.809 208.219 224.173 207.851 224.668 207.58C225.163 207.3 225.695 207.16 226.264 207.16ZM238.543 210.954C238.543 211.243 238.524 211.505 238.487 211.738H232.593C232.64 212.354 232.868 212.849 233.279 213.222C233.69 213.595 234.194 213.782 234.791 213.782C235.65 213.782 236.256 213.423 236.611 212.704H238.333C238.1 213.413 237.675 213.997 237.059 214.454C236.452 214.902 235.696 215.126 234.791 215.126C234.054 215.126 233.391 214.963 232.803 214.636C232.224 214.3 231.767 213.833 231.431 213.236C231.104 212.629 230.941 211.929 230.941 211.136C230.941 210.343 231.1 209.647 231.417 209.05C231.744 208.443 232.196 207.977 232.775 207.65C233.363 207.323 234.035 207.16 234.791 207.16C235.519 207.16 236.168 207.319 236.737 207.636C237.306 207.953 237.75 208.401 238.067 208.98C238.384 209.549 238.543 210.207 238.543 210.954ZM236.877 210.45C236.868 209.862 236.658 209.391 236.247 209.036C235.836 208.681 235.328 208.504 234.721 208.504C234.17 208.504 233.699 208.681 233.307 209.036C232.915 209.381 232.682 209.853 232.607 210.45H236.877ZM244.005 207.16C244.612 207.16 245.153 207.286 245.629 207.538C246.115 207.79 246.493 208.163 246.763 208.658C247.034 209.153 247.169 209.75 247.169 210.45V215H245.587V210.688C245.587 209.997 245.415 209.47 245.069 209.106C244.724 208.733 244.253 208.546 243.655 208.546C243.058 208.546 242.582 208.733 242.227 209.106C241.882 209.47 241.709 209.997 241.709 210.688V215H240.113V207.286H241.709V208.168C241.971 207.851 242.302 207.603 242.703 207.426C243.114 207.249 243.548 207.16 244.005 207.16Z" fill="#666666"/>
<path d="M108.894 283.79C108.894 285.12 108.532 286.345 107.809 287.465C107.109 288.562 106.071 289.448 104.694 290.125C103.341 290.802 101.707 291.175 99.7941 291.245V294.045H97.5891V291.175C95.0225 290.942 92.9225 290.16 91.2891 288.83C89.6791 287.5 88.8275 285.692 88.7341 283.405H96.0491C96.1425 284.595 96.6558 285.377 97.5891 285.75V281.27C95.6291 280.733 94.0891 280.243 92.9691 279.8C91.8491 279.333 90.8458 278.587 89.9591 277.56C89.0958 276.533 88.6641 275.133 88.6641 273.36C88.6641 271.89 89.0491 270.618 89.8191 269.545C90.6125 268.448 91.6858 267.608 93.0391 267.025C94.3925 266.418 95.9091 266.068 97.5891 265.975V263.14H99.7941V265.975C102.384 266.162 104.437 266.908 105.954 268.215C107.494 269.522 108.346 271.318 108.509 273.605H101.124C101.031 272.532 100.587 271.82 99.7941 271.47V275.915L100.669 276.195C102.349 276.662 103.737 277.152 104.834 277.665C105.954 278.155 106.911 278.902 107.704 279.905C108.497 280.885 108.894 282.18 108.894 283.79ZM95.9791 273.045C95.9791 273.885 96.5158 274.573 97.5891 275.11V271.26C96.5158 271.447 95.9791 272.042 95.9791 273.045ZM99.7941 285.925C100.354 285.808 100.797 285.587 101.124 285.26C101.451 284.91 101.614 284.478 101.614 283.965C101.614 283.148 101.007 282.483 99.7941 281.97V285.925ZM111.664 285.505C113.927 283.732 115.782 282.203 117.229 280.92C118.675 279.637 119.889 278.318 120.869 276.965C121.849 275.588 122.339 274.282 122.339 273.045C122.339 272.298 122.164 271.715 121.814 271.295C121.487 270.875 120.997 270.665 120.344 270.665C119.667 270.665 119.142 270.957 118.769 271.54C118.395 272.1 118.22 272.928 118.244 274.025H111.594C111.664 271.948 112.119 270.233 112.959 268.88C113.799 267.503 114.895 266.5 116.249 265.87C117.602 265.217 119.107 264.89 120.764 264.89C123.634 264.89 125.769 265.602 127.169 267.025C128.569 268.448 129.269 270.292 129.269 272.555C129.269 274.982 128.452 277.257 126.819 279.38C125.209 281.503 123.19 283.405 120.764 285.085H129.514V290.65H111.664V285.505ZM143.946 272.765C143.782 271.972 143.514 271.388 143.141 271.015C142.767 270.642 142.219 270.455 141.496 270.455C140.399 270.455 139.629 270.968 139.186 271.995C138.766 273.022 138.544 274.632 138.521 276.825C138.987 276.102 139.664 275.53 140.551 275.11C141.437 274.69 142.417 274.48 143.491 274.48C145.754 274.48 147.562 275.18 148.916 276.58C150.292 277.98 150.981 279.987 150.981 282.6C150.981 284.327 150.619 285.843 149.896 287.15C149.196 288.433 148.169 289.425 146.816 290.125C145.486 290.825 143.911 291.175 142.091 291.175C138.474 291.175 135.954 290.055 134.531 287.815C133.131 285.552 132.431 282.355 132.431 278.225C132.431 273.652 133.177 270.292 134.671 268.145C136.164 265.998 138.567 264.925 141.881 264.925C144.564 264.925 146.594 265.683 147.971 267.2C149.371 268.693 150.152 270.548 150.316 272.765H143.946ZM141.811 279.8C140.994 279.8 140.317 280.033 139.781 280.5C139.267 280.967 139.011 281.632 139.011 282.495C139.011 283.405 139.256 284.105 139.746 284.595C140.236 285.085 140.936 285.33 141.846 285.33C142.686 285.33 143.339 285.097 143.806 284.63C144.296 284.14 144.541 283.452 144.541 282.565C144.541 281.702 144.296 281.025 143.806 280.535C143.339 280.045 142.674 279.8 141.811 279.8ZM157.937 291.28C156.724 291.28 155.744 290.953 154.997 290.3C154.274 289.623 153.912 288.772 153.912 287.745C153.912 286.718 154.274 285.867 154.997 285.19C155.744 284.513 156.724 284.175 157.937 284.175C159.127 284.175 160.084 284.513 160.807 285.19C161.554 285.867 161.927 286.718 161.927 287.745C161.927 288.748 161.554 289.588 160.807 290.265C160.084 290.942 159.127 291.28 157.937 291.28ZM171.65 283.265C171.93 284.852 172.793 285.645 174.24 285.645C175.29 285.645 176.001 285.155 176.375 284.175C176.771 283.172 176.97 281.573 176.97 279.38C176.503 280.057 175.85 280.593 175.01 280.99C174.17 281.387 173.225 281.585 172.175 281.585C169.935 281.585 168.115 280.885 166.715 279.485C165.315 278.085 164.615 276.067 164.615 273.43C164.615 271.703 164.976 270.198 165.7 268.915C166.423 267.608 167.45 266.605 168.78 265.905C170.133 265.205 171.708 264.855 173.505 264.855C177.075 264.855 179.56 265.94 180.96 268.11C182.383 270.257 183.095 273.383 183.095 277.49C183.095 282.087 182.406 285.517 181.03 287.78C179.676 290.043 177.343 291.175 174.03 291.175C172.233 291.175 170.681 290.813 169.375 290.09C168.091 289.343 167.1 288.375 166.4 287.185C165.723 285.972 165.338 284.665 165.245 283.265H171.65ZM173.82 276.265C174.636 276.265 175.278 276.032 175.745 275.565C176.211 275.075 176.445 274.422 176.445 273.605C176.445 272.672 176.2 271.972 175.71 271.505C175.243 271.038 174.59 270.805 173.75 270.805C172.91 270.805 172.245 271.05 171.755 271.54C171.288 272.007 171.055 272.683 171.055 273.57C171.055 274.387 171.288 275.04 171.755 275.53C172.245 276.02 172.933 276.265 173.82 276.265ZM192.875 283.265C193.155 284.852 194.019 285.645 195.465 285.645C196.515 285.645 197.227 285.155 197.6 284.175C197.997 283.172 198.195 281.573 198.195 279.38C197.729 280.057 197.075 280.593 196.235 280.99C195.395 281.387 194.45 281.585 193.4 281.585C191.16 281.585 189.34 280.885 187.94 279.485C186.54 278.085 185.84 276.067 185.84 273.43C185.84 271.703 186.202 270.198 186.925 268.915C187.649 267.608 188.675 266.605 190.005 265.905C191.359 265.205 192.934 264.855 194.73 264.855C198.3 264.855 200.785 265.94 202.185 268.11C203.609 270.257 204.32 273.383 204.32 277.49C204.32 282.087 203.632 285.517 202.255 287.78C200.902 290.043 198.569 291.175 195.255 291.175C193.459 291.175 191.907 290.813 190.6 290.09C189.317 289.343 188.325 288.375 187.625 287.185C186.949 285.972 186.564 284.665 186.47 283.265H192.875ZM195.045 276.265C195.862 276.265 196.504 276.032 196.97 275.565C197.437 275.075 197.67 274.422 197.67 273.605C197.67 272.672 197.425 271.972 196.935 271.505C196.469 271.038 195.815 270.805 194.975 270.805C194.135 270.805 193.47 271.05 192.98 271.54C192.514 272.007 192.28 272.683 192.28 273.57C192.28 274.387 192.514 275.04 192.98 275.53C193.47 276.02 194.159 276.265 195.045 276.265Z" fill="#FE7F2D"/>
<g filter="url(#filter1_d)">
<rect x="59" y="340" width="166" height="33" rx="16.5" fill="#624372"/>
</g>
<path d="M107.309 362.112C106.563 362.112 105.891 361.984 105.293 361.728C104.696 361.461 104.227 361.088 103.885 360.608C103.544 360.128 103.373 359.568 103.373 358.928H105.325C105.368 359.408 105.555 359.803 105.885 360.112C106.227 360.421 106.701 360.576 107.309 360.576C107.939 360.576 108.429 360.427 108.781 360.128C109.133 359.819 109.309 359.424 109.309 358.944C109.309 358.571 109.197 358.267 108.973 358.032C108.76 357.797 108.488 357.616 108.157 357.488C107.837 357.36 107.389 357.221 106.813 357.072C106.088 356.88 105.496 356.688 105.037 356.496C104.589 356.293 104.205 355.984 103.885 355.568C103.565 355.152 103.405 354.597 103.405 353.904C103.405 353.264 103.565 352.704 103.885 352.224C104.205 351.744 104.653 351.376 105.229 351.12C105.805 350.864 106.472 350.736 107.229 350.736C108.307 350.736 109.187 351.008 109.869 351.552C110.563 352.085 110.947 352.821 111.021 353.76H109.005C108.973 353.355 108.781 353.008 108.429 352.72C108.077 352.432 107.613 352.288 107.037 352.288C106.515 352.288 106.088 352.421 105.757 352.688C105.427 352.955 105.261 353.339 105.261 353.84C105.261 354.181 105.363 354.464 105.565 354.688C105.779 354.901 106.045 355.072 106.365 355.2C106.685 355.328 107.123 355.467 107.677 355.616C108.413 355.819 109.011 356.021 109.469 356.224C109.939 356.427 110.333 356.741 110.653 357.168C110.984 357.584 111.149 358.144 111.149 358.848C111.149 359.413 110.995 359.947 110.685 360.448C110.387 360.949 109.944 361.355 109.357 361.664C108.781 361.963 108.099 362.112 107.309 362.112ZM121.286 353.184V362H119.462V360.96C119.174 361.323 118.795 361.611 118.326 361.824C117.867 362.027 117.376 362.128 116.854 362.128C116.16 362.128 115.536 361.984 114.982 361.696C114.438 361.408 114.006 360.981 113.686 360.416C113.376 359.851 113.222 359.168 113.222 358.368V353.184H115.03V358.096C115.03 358.885 115.227 359.493 115.622 359.92C116.016 360.336 116.555 360.544 117.238 360.544C117.92 360.544 118.459 360.336 118.854 359.92C119.259 359.493 119.462 358.885 119.462 358.096V353.184H121.286ZM125.516 354.496C125.826 354.069 126.247 353.723 126.78 353.456C127.324 353.179 127.927 353.04 128.588 353.04C129.367 353.04 130.071 353.227 130.7 353.6C131.33 353.973 131.826 354.507 132.188 355.2C132.551 355.883 132.732 356.667 132.732 357.552C132.732 358.437 132.551 359.232 132.188 359.936C131.826 360.629 131.324 361.173 130.684 361.568C130.055 361.952 129.356 362.144 128.588 362.144C127.906 362.144 127.298 362.011 126.764 361.744C126.242 361.477 125.826 361.136 125.516 360.72V362H123.692V350.16H125.516V354.496ZM130.876 357.552C130.876 356.944 130.748 356.421 130.492 355.984C130.247 355.536 129.916 355.2 129.5 354.976C129.095 354.741 128.658 354.624 128.188 354.624C127.73 354.624 127.292 354.741 126.876 354.976C126.471 355.211 126.14 355.552 125.884 356C125.639 356.448 125.516 356.976 125.516 357.584C125.516 358.192 125.639 358.725 125.884 359.184C126.14 359.632 126.471 359.973 126.876 360.208C127.292 360.443 127.73 360.56 128.188 360.56C128.658 360.56 129.095 360.443 129.5 360.208C129.916 359.963 130.247 359.611 130.492 359.152C130.748 358.693 130.876 358.16 130.876 357.552ZM137.736 362.144C137.043 362.144 136.419 362.021 135.864 361.776C135.32 361.52 134.888 361.179 134.568 360.752C134.248 360.315 134.077 359.829 134.056 359.296H135.944C135.976 359.669 136.152 359.984 136.472 360.24C136.803 360.485 137.213 360.608 137.704 360.608C138.216 360.608 138.611 360.512 138.888 360.32C139.176 360.117 139.32 359.861 139.32 359.552C139.32 359.221 139.16 358.976 138.84 358.816C138.531 358.656 138.035 358.48 137.352 358.288C136.691 358.107 136.152 357.931 135.736 357.76C135.32 357.589 134.957 357.328 134.648 356.976C134.349 356.624 134.2 356.16 134.2 355.584C134.2 355.115 134.339 354.688 134.616 354.304C134.893 353.909 135.288 353.6 135.8 353.376C136.323 353.152 136.92 353.04 137.592 353.04C138.595 353.04 139.4 353.296 140.008 353.808C140.627 354.309 140.957 354.997 141 355.872H139.176C139.144 355.477 138.984 355.163 138.696 354.928C138.408 354.693 138.019 354.576 137.528 354.576C137.048 354.576 136.68 354.667 136.424 354.848C136.168 355.029 136.04 355.269 136.04 355.568C136.04 355.803 136.125 356 136.296 356.16C136.467 356.32 136.675 356.448 136.92 356.544C137.165 356.629 137.528 356.741 138.008 356.88C138.648 357.051 139.171 357.227 139.576 357.408C139.992 357.579 140.349 357.835 140.648 358.176C140.947 358.517 141.101 358.971 141.112 359.536C141.112 360.037 140.973 360.485 140.696 360.88C140.419 361.275 140.024 361.584 139.512 361.808C139.011 362.032 138.419 362.144 137.736 362.144ZM142.475 357.584C142.475 356.677 142.656 355.883 143.019 355.2C143.392 354.507 143.904 353.973 144.555 353.6C145.205 353.227 145.952 353.04 146.795 353.04C147.861 353.04 148.741 353.296 149.435 353.808C150.139 354.309 150.613 355.029 150.859 355.968H148.891C148.731 355.531 148.475 355.189 148.123 354.944C147.771 354.699 147.328 354.576 146.795 354.576C146.048 354.576 145.451 354.843 145.003 355.376C144.565 355.899 144.347 356.635 144.347 357.584C144.347 358.533 144.565 359.275 145.003 359.808C145.451 360.341 146.048 360.608 146.795 360.608C147.851 360.608 148.549 360.144 148.891 359.216H150.859C150.603 360.112 150.123 360.827 149.419 361.36C148.715 361.883 147.84 362.144 146.795 362.144C145.952 362.144 145.205 361.957 144.555 361.584C143.904 361.2 143.392 360.667 143.019 359.984C142.656 359.291 142.475 358.491 142.475 357.584ZM154.501 354.464C154.767 354.016 155.119 353.669 155.557 353.424C156.005 353.168 156.533 353.04 157.141 353.04V354.928H156.677C155.962 354.928 155.418 355.109 155.045 355.472C154.682 355.835 154.501 356.464 154.501 357.36V362H152.677V353.184H154.501V354.464ZM159.745 352.016C159.415 352.016 159.137 351.904 158.913 351.68C158.689 351.456 158.577 351.179 158.577 350.848C158.577 350.517 158.689 350.24 158.913 350.016C159.137 349.792 159.415 349.68 159.745 349.68C160.065 349.68 160.337 349.792 160.561 350.016C160.785 350.24 160.897 350.517 160.897 350.848C160.897 351.179 160.785 351.456 160.561 351.68C160.337 351.904 160.065 352.016 159.745 352.016ZM160.641 353.184V362H158.817V353.184H160.641ZM164.86 354.496C165.169 354.069 165.591 353.723 166.124 353.456C166.668 353.179 167.271 353.04 167.932 353.04C168.711 353.04 169.415 353.227 170.044 353.6C170.673 353.973 171.169 354.507 171.532 355.2C171.895 355.883 172.076 356.667 172.076 357.552C172.076 358.437 171.895 359.232 171.532 359.936C171.169 360.629 170.668 361.173 170.028 361.568C169.399 361.952 168.7 362.144 167.932 362.144C167.249 362.144 166.641 362.011 166.108 361.744C165.585 361.477 165.169 361.136 164.86 360.72V362H163.036V350.16H164.86V354.496ZM170.22 357.552C170.22 356.944 170.092 356.421 169.836 355.984C169.591 355.536 169.26 355.2 168.844 354.976C168.439 354.741 168.001 354.624 167.532 354.624C167.073 354.624 166.636 354.741 166.22 354.976C165.815 355.211 165.484 355.552 165.228 356C164.983 356.448 164.86 356.976 164.86 357.584C164.86 358.192 164.983 358.725 165.228 359.184C165.484 359.632 165.815 359.973 166.22 360.208C166.636 360.443 167.073 360.56 167.532 360.56C168.001 360.56 168.439 360.443 168.844 360.208C169.26 359.963 169.591 359.611 169.836 359.152C170.092 358.693 170.22 358.16 170.22 357.552ZM181.96 357.376C181.96 357.707 181.938 358.005 181.896 358.272H175.16C175.213 358.976 175.474 359.541 175.944 359.968C176.413 360.395 176.989 360.608 177.672 360.608C178.653 360.608 179.346 360.197 179.752 359.376H181.72C181.453 360.187 180.968 360.853 180.264 361.376C179.57 361.888 178.706 362.144 177.672 362.144C176.829 362.144 176.072 361.957 175.4 361.584C174.738 361.2 174.216 360.667 173.832 359.984C173.458 359.291 173.272 358.491 173.272 357.584C173.272 356.677 173.453 355.883 173.816 355.2C174.189 354.507 174.706 353.973 175.368 353.6C176.04 353.227 176.808 353.04 177.672 353.04C178.504 353.04 179.245 353.221 179.896 353.584C180.546 353.947 181.053 354.459 181.416 355.12C181.778 355.771 181.96 356.523 181.96 357.376ZM180.056 356.8C180.045 356.128 179.805 355.589 179.336 355.184C178.866 354.779 178.285 354.576 177.592 354.576C176.962 354.576 176.424 354.779 175.976 355.184C175.528 355.579 175.261 356.117 175.176 356.8H180.056Z" fill="white"/>
</g>
<defs>
<filter id="filter0_d" x="0" y="0" width="284" height="402" filterUnits="userSpaceOnUse" color-interpolation-filters="sRGB">
<feFlood flood-opacity="0" result="BackgroundImageFix"/>
<feColorMatrix in="SourceAlpha" type="matrix" values="0 0 0 0 0 0 0 0 0 0 0 0 0 0 0 0 0 0 127 0"/>
<feOffset/>
<feGaussianBlur stdDeviation="4"/>
<feColorMatrix type="matrix" values="0 0 0 0 0 0 0 0 0 0 0 0 0 0 0 0 0 0 0.1 0"/>
<feBlend mode="normal" in2="BackgroundImageFix" result="effect1_dropShadow"/>
<feBlend mode="normal" in="SourceGraphic" in2="effect1_dropShadow" result="shape"/>
</filter>
<filter id="filter1_d" x="51" y="334" width="182" height="49" filterUnits="userSpaceOnUse" color-interpolation-filters="sRGB">
<feFlood flood-opacity="0" result="BackgroundImageFix"/>
<feColorMatrix in="SourceAlpha" type="matrix" values="0 0 0 0 0 0 0 0 0 0 0 0 0 0 0 0 0 0 127 0"/>
<feOffset dy="2"/>
<feGaussianBlur stdDeviation="4"/>
<feColorMatrix type="matrix" values="0 0 0 0 0.384314 0 0 0 0 0.262745 0 0 0 0 0.447059 0 0 0 0.5 0"/>
<feBlend mode="normal" in2="BackgroundImageFix" result="effect1_dropShadow"/>
<feBlend mode="normal" in="SourceGraphic" in2="effect1_dropShadow" result="shape"/>
</filter>
<clipPath id="clip0">
<rect width="268" height="386" fill="white" transform="translate(8 8)"/>
</clipPath>
</defs>
</svg>
