<svg width="80" height="80" viewBox="0 0 80 80" fill="none" xmlns="http://www.w3.org/2000/svg">
<path d="M9.5 19.5H17L18 29.5L26.5 60.5L8.5 57L6 35.5V24L9.5 19.5Z" fill="white"/>
<path d="M70 19H62.5L61.5 29L53 60L71 56.5L73.5 35V23.5L70 19Z" fill="white"/>
<path d="M46 4L30.5 4.5L24 14L29.5 33L35.5 46.5L45 46L49.5 20V8.5L46 4Z" fill="white"/>
<path d="M17.2279 8.42126C16.9093 8.42126 16.5991 8.31319 16.3507 8.11389L9.33317 2.49986C8.72825 2.01565 8.63001 1.13144 9.11422 0.526526C9.59843 -0.078386 10.4826 -0.176632 11.0876 0.307579L18.1051 5.92161C18.5711 6.29354 18.7507 6.9195 18.5528 7.48231C18.3549 8.04512 17.8244 8.42126 17.2279 8.42126Z" fill="#233D4D"/>
<path d="M62.1403 8.42126C61.5438 8.42126 61.0133 8.04512 60.8154 7.48231C60.6175 6.9195 60.7971 6.29354 61.2631 5.92161L68.2806 0.307579C68.8855 -0.176632 69.7697 -0.078386 70.254 0.526526C70.7382 1.13144 70.6399 2.01565 70.035 2.49986L63.0175 8.11389C62.769 8.31319 62.4589 8.42126 62.1403 8.42126Z" fill="#233D4D"/>
<path d="M69.1579 16.8424H60.5263C61.4975 23.5904 59.0821 30.3834 54.0702 35.0038C51.0975 37.8796 49.4456 41.8571 49.5088 45.9932V54.7371C49.5004 57.2901 47.7698 59.516 45.2982 60.1546V61.7546C45.2982 62.5294 44.6695 63.1582 43.8947 63.1582C43.12 63.1582 42.4912 62.5294 42.4912 61.7546V60.3511H36.8772V61.7546C36.8772 62.5294 36.2484 63.1582 35.4737 63.1582C34.6989 63.1582 34.0702 62.5294 34.0702 61.7546V60.1546C31.5986 59.516 29.8681 57.2901 29.8596 54.7371V46.2318C29.9214 41.9848 28.2428 37.8978 25.214 34.9196C20.5207 30.4929 18.1235 24.1518 18.7158 17.7266C18.7439 17.4318 18.8 17.1371 18.8421 16.8424H10.2105C7.88772 16.8494 6.00702 18.7301 6 21.0529V58.9476C6.00702 61.2704 7.88772 63.1511 10.2105 63.1582H24.2456C25.5691 63.1666 26.8126 63.7897 27.614 64.8424L38.6456 79.5511C38.9333 79.8262 39.3193 79.975 39.7165 79.9638C40.1151 79.9525 40.4912 79.7841 40.7649 79.495L51.7544 64.8424C52.5558 63.7897 53.7993 63.1666 55.1228 63.1582H69.1579C71.4807 63.1511 73.3614 61.2704 73.3684 58.9476V21.0529C73.3614 18.7301 71.4807 16.8494 69.1579 16.8424ZM10.2105 21.0529H14.4211C15.1958 21.0529 15.8246 21.6817 15.8246 22.4564C15.8246 23.2311 15.1958 23.8599 14.4211 23.8599H10.2105C9.43579 23.8599 8.80702 23.2311 8.80702 22.4564C8.80702 21.6817 9.43579 21.0529 10.2105 21.0529ZM18.0982 43.2003L11.0807 48.8143C10.8365 49.0164 10.5277 49.1259 10.2105 49.1231C9.78386 49.1217 9.38105 48.9252 9.11579 48.5897C8.88 48.302 8.77053 47.9301 8.81263 47.5596C8.85474 47.189 9.04561 46.8522 9.34035 46.6248L16.3579 41.0108C16.7439 40.6473 17.3011 40.5308 17.7993 40.7118C18.2975 40.8929 18.6512 41.3378 18.7158 41.8641C18.7775 42.3904 18.5389 42.9069 18.0982 43.2003ZM70.2526 48.5897C69.9874 48.9252 69.5846 49.1217 69.1579 49.1231C68.8407 49.1259 68.5319 49.0164 68.2877 48.8143L61.2702 43.2003C60.7397 42.6992 60.6807 41.8767 61.1354 41.3069C61.5888 40.7357 62.4042 40.608 63.0105 41.0108L70.0281 46.6248C70.3228 46.8522 70.5137 47.189 70.5558 47.5596C70.5979 47.9301 70.4884 48.302 70.2526 48.5897ZM69.1579 23.8599H64.9474C64.1726 23.8599 63.5439 23.2311 63.5439 22.4564C63.5439 21.6817 64.1726 21.0529 64.9474 21.0529H69.1579C69.9326 21.0529 70.5614 21.6817 70.5614 22.4564C70.5614 23.2311 69.9326 23.8599 69.1579 23.8599ZM52.2737 6.44236C47.5635 1.89359 40.7747 0.219199 34.4898 2.05499C28.2049 3.89078 23.3853 8.95744 21.8653 15.328C20.3453 21.6985 22.3579 28.3932 27.1368 32.8704C30.7312 36.3792 32.7298 41.2087 32.6667 46.2318V47.7196H46.7018V45.9932C46.6386 41.081 48.6091 36.3624 52.1474 32.9546C55.8133 29.5287 57.906 24.7427 57.9298 19.7252C57.9537 14.7076 55.9074 9.90201 52.2737 6.44236ZM34.6035 8.30902C34.5474 8.33709 29.4386 10.5406 28.4281 15.7055C28.3004 16.3652 27.7235 16.841 27.0526 16.8424C26.9628 16.8396 26.8744 16.8311 26.786 16.8143C26.4211 16.7455 26.0982 16.5322 25.8891 16.2248C25.68 15.9174 25.6042 15.5371 25.6772 15.1722C26.6625 10.9617 29.5747 7.4613 33.5368 5.72657C34.0084 5.47674 34.5811 5.51604 35.0147 5.82762C35.4484 6.1392 35.6674 6.66973 35.5804 7.19604C35.4919 7.72236 35.1144 8.15323 34.6035 8.30902ZM38.2807 43.509C38.2807 44.2838 37.6519 44.9125 36.8772 44.9125C36.1025 44.9125 35.4737 44.2838 35.4737 43.509V39.2985C35.4737 38.5238 36.1025 37.895 36.8772 37.895C37.6519 37.895 38.2807 38.5238 38.2807 39.2985V43.509ZM38.2807 32.281C38.2807 33.0557 37.6519 33.6845 36.8772 33.6845C36.1025 33.6845 35.4737 33.0557 35.4737 32.281V30.8774C35.4737 30.1027 36.1025 29.4739 36.8772 29.4739C37.6519 29.4739 38.2807 30.1027 38.2807 30.8774V32.281ZM43.8947 43.509C43.8947 44.2838 43.266 44.9125 42.4912 44.9125C41.7165 44.9125 41.0877 44.2838 41.0877 43.509V39.2985C41.0877 38.5238 41.7165 37.895 42.4912 37.895C43.266 37.895 43.8947 38.5238 43.8947 39.2985V43.509ZM43.8947 32.281C43.8947 33.0557 43.266 33.6845 42.4912 33.6845C41.7165 33.6845 41.0877 33.0557 41.0877 32.281V30.8774C41.0877 30.1027 41.7165 29.4739 42.4912 29.4739C43.266 29.4739 43.8947 30.1027 43.8947 30.8774V32.281Z" fill="#233D4D"/>
<path d="M32.6665 50.5265V54.737C32.6707 56.2851 33.9255 57.5398 35.4735 57.544H43.8946C45.4426 57.5398 46.6974 56.2851 46.7016 54.737V50.5265H32.6665Z" fill="#233D4D"/>
</svg>
