<svg width="89" height="89" viewBox="0 0 89 89" fill="none" xmlns="http://www.w3.org/2000/svg">
<path d="M0 16L33 19.5L48.25 22L55.5 24.5H63.5L69 28.5L71.625 36.125L72.75 47.75L71.625 68L56.25 71L54 60.5L39 59.5L18.75 71L10.5 63.5L0 57.25V43.5V16Z" fill="white"/>
<path d="M22.4537 32.6774C22.7187 32.3397 22.7936 31.905 22.683 31.3487C22.574 30.7993 22.3319 30.4091 21.9431 30.156C21.5574 29.9051 21.0306 29.844 20.3802 29.9732L18.2646 30.393L18.9431 33.8107L21.0137 33.3996C21.7004 33.2636 22.1847 33.0205 22.4537 32.6774Z" fill="#233D4D"/>
<path d="M82.0553 40.3991C81.7112 40.327 81.3862 40.2587 81.0964 40.1834C77.8947 39.3507 76.3061 38.8547 75.193 36.7054L71.015 28.2464C69.6814 25.672 66.2378 23.5775 63.3388 23.5775H55.8386V17.8113C55.8386 16.0908 54.4388 14.691 52.7179 14.691L2.93379 14.743C1.26122 14.743 0 16.0736 0 17.838V61.0027C0 62.7232 1.39975 64.123 3.12027 64.123H8.56377C9.37672 69.8717 14.3276 74.3088 20.2979 74.3088C26.2686 74.3088 31.2199 69.8719 32.0328 64.123H51.8678C51.9985 64.123 52.1321 64.1157 52.2664 64.1056C53.0717 69.8628 58.0264 74.3088 64.0028 74.3088C69.9735 74.3088 74.9248 69.8719 75.7378 64.123H83.5334C86.5476 64.123 88.9996 61.6709 88.9996 58.657V49.2792C89 41.8561 84.8207 40.9793 82.0553 40.3991ZM8.70039 38.1752L9.78637 43.6456L6.72996 44.2523L4.03399 30.6711L13.5282 28.7863L14.0147 31.2369L7.57686 32.5148L8.21393 35.7244L13.7296 34.6295L14.2158 37.0803L8.70039 38.1752ZM20.2981 66.8486C17.8764 66.8486 15.9064 64.8784 15.9064 62.4567C15.9064 60.0351 17.8764 58.0649 20.2981 58.0649C22.7206 58.0649 24.6914 60.0351 24.6914 62.4567C24.6914 64.8784 22.7206 66.8486 20.2981 66.8486ZM25.3379 40.5582L25.2719 40.5241C24.9456 40.3548 24.6887 40.0221 24.5084 39.5352C24.3431 39.0889 24.2177 38.6533 24.1358 38.2403L23.9508 37.309C23.8323 36.7116 23.5787 36.2771 23.1973 36.0172C22.8161 35.7577 22.3249 35.6865 21.735 35.8036L19.4295 36.2612L20.4742 41.5235L17.4175 42.1302L14.7216 28.549L19.8937 27.5222C21.4369 27.2158 22.7374 27.3329 23.7593 27.8697C24.7971 28.4147 25.4524 29.342 25.7074 30.6257C25.8508 31.3485 25.7832 32.0182 25.5065 32.6163C25.2927 33.0781 24.9583 33.5035 24.5098 33.8855C25.145 34.0183 25.6595 34.2884 26.0437 34.6911C26.5168 35.1877 26.8399 35.8581 27.0041 36.684L27.1961 37.6516C27.2654 38.0012 27.3872 38.3625 27.5582 38.7259C27.7162 39.0622 27.9159 39.2947 28.1516 39.4171L28.2422 39.464L28.341 39.9619L25.3379 40.5582ZM29.6604 39.7003L26.9644 26.119L36.3774 24.2504L36.8638 26.7009L30.5075 27.9628L31.0818 30.8561L36.5342 29.7737L37.0204 32.2244L31.5682 33.3068L32.2305 36.643L38.6052 35.3776L39.0916 37.8283L29.6604 39.7003ZM40.2938 37.5894L37.5979 24.0081L47.0109 22.1395L47.4973 24.5901L41.141 25.8519L41.7155 28.745L47.1676 27.6626L47.6539 30.1133L42.2017 31.1957L42.864 34.5319L49.2384 33.2665L49.7249 35.7172L40.2938 37.5894ZM64.0031 66.8486C61.5814 66.8486 59.6114 64.8784 59.6114 62.4567C59.6114 60.0351 61.5814 58.0649 64.0031 58.0649C66.4256 58.0649 68.3964 60.0351 68.3964 62.4567C68.3964 64.8784 66.4256 66.8486 64.0031 66.8486ZM55.8386 39.7268V28.0697H61.5846C63.7898 28.0697 66.51 29.7245 67.5202 31.6737L71.2381 39.2011C71.334 39.3863 71.4342 39.5613 71.5392 39.7268H55.8386Z" fill="#233D4D"/>
</svg>
