<svg width="89" height="89" viewBox="0 0 89 89" fill="none" xmlns="http://www.w3.org/2000/svg">
<g clip-path="url(#clip0)">
<rect x="21" y="35" width="43" height="43" fill="white"/>
<path d="M77.875 44.5001V51.9167C78.6085 51.9167 79.3254 52.1342 79.9353 52.5417C80.5451 52.9492 81.0204 53.5283 81.3011 54.2059C81.5817 54.8835 81.6552 55.6292 81.5121 56.3485C81.369 57.0679 81.0158 57.7286 80.4972 58.2472C79.9786 58.7659 79.3178 59.119 78.5985 59.2621C77.8791 59.4052 77.1335 59.3318 76.4559 59.0511C75.7783 58.7704 75.1991 58.2951 74.7916 57.6853C74.3842 57.0755 74.1667 56.3585 74.1667 55.6251V48.2084C74.1612 43.2925 72.2059 38.5796 68.7299 35.1036C65.2538 31.6275 60.5409 29.6723 55.625 29.6667H43.687L40.6809 17.6425C40.5109 16.9625 40.1517 16.3446 39.6449 15.8604C39.1381 15.3763 38.5044 15.0456 37.8174 14.9069C37.1304 14.7681 36.4181 14.8269 35.7631 15.0765C35.1081 15.326 34.5372 15.756 34.1167 16.3167L24.0295 29.7664C20.1098 30.1828 16.4239 31.8345 13.5044 34.483C10.5848 37.1314 8.5828 40.6393 7.7875 44.5001H3.70833C2.72482 44.5001 1.78159 44.8908 1.08615 45.5862C0.390698 46.2817 0 47.2249 0 48.2084L0 59.3334C2.34054e-05 60.022 0.191795 60.697 0.55383 61.2828C0.915865 61.8686 1.43386 62.342 2.04978 62.65L7.56593 65.4086C8.14724 69.8772 10.3336 73.9821 13.7175 76.958C17.1014 79.9339 21.452 81.5778 25.9583 81.5834V89H33.375V81.5834H48.2083V89H55.625V81.5834C60.024 81.5774 64.278 80.0099 67.6292 77.1602C70.9803 74.3105 73.211 70.3636 73.9238 66.0228C75.4487 66.603 77.0825 66.8407 78.7095 66.7191C80.3365 66.5975 81.9169 66.1195 83.3386 65.319C84.7602 64.5185 85.9884 63.4151 86.9361 62.087C87.8838 60.7589 88.5277 59.2386 88.8224 57.6339C89.117 56.0291 89.055 54.3792 88.6408 52.8011C88.2267 51.223 87.4705 49.7553 86.4259 48.502C85.3812 47.2488 84.0737 46.2406 82.596 45.549C81.1183 44.8574 79.5066 44.4993 77.875 44.5001ZM33.375 40.7917C34.1084 40.7917 34.8254 41.0092 35.4352 41.4167C36.0451 41.8242 36.5204 42.4033 36.8011 43.0809C37.0817 43.7586 37.1552 44.5042 37.0121 45.2235C36.869 45.9429 36.5158 46.6036 35.9972 47.1222C35.4786 47.6409 34.8178 47.9941 34.0985 48.1371C33.3791 48.2802 32.6335 48.2068 31.9559 47.9261C31.2783 47.6454 30.6991 47.1701 30.2916 46.5603C29.8842 45.9505 29.6667 45.2335 29.6667 44.5001C29.6667 43.5165 30.0574 42.5733 30.7528 41.8779C31.4483 41.1824 32.3915 40.7917 33.375 40.7917ZM48.2083 70.4584C47.4749 70.4584 46.7579 70.2409 46.1481 69.8334C45.5383 69.4259 45.063 68.8468 44.7823 68.1692C44.5016 67.4916 44.4282 66.7459 44.5713 66.0266C44.7143 65.3072 45.0675 64.6465 45.5862 64.1279C46.1048 63.6092 46.7655 63.2561 47.4849 63.113C48.2042 62.9699 48.9499 63.0433 49.6275 63.324C50.3051 63.6047 50.8842 64.08 51.2917 64.6898C51.6992 65.2996 51.9167 66.0166 51.9167 66.7501C51.9167 67.7336 51.526 68.6768 50.8305 69.3722C50.1351 70.0677 49.1919 70.4584 48.2083 70.4584ZM28.1833 69.7167L23.7333 63.7834L53.4 41.5334L57.85 47.4667L28.1833 69.7167Z" fill="#233D4D"/>
</g>
<defs>
<clipPath id="clip0">
<rect width="89" height="89" fill="white"/>
</clipPath>
</defs>
</svg>
