<svg width="80" height="80" viewBox="0 0 80 80" fill="none" xmlns="http://www.w3.org/2000/svg">
<g clip-path="url(#clip0)">
<path d="M35.9938 27.2488H27.5574V52.7509H35.9938V27.2488Z" fill="white"/>
<path d="M35.9949 55.0198H27.558C26.3053 55.0198 25.2896 54.0041 25.2896 52.7513V27.2488C25.2896 25.996 26.3053 24.9803 27.558 24.9803H35.9949C37.2475 24.9803 38.2633 25.996 38.2633 27.2488V52.7513C38.2633 54.0041 37.2475 55.0198 35.9949 55.0198ZM29.8263 50.4829H33.7263V29.5172H29.8263V50.4829Z" fill="#233D4D"/>
<path d="M52.4403 27.2488H44.0039V52.7509H52.4403V27.2488Z" fill="white"/>
<path d="M52.4412 55.0198H44.0043C42.7516 55.0198 41.7358 54.0041 41.7358 52.7513V27.2488C41.7358 25.996 42.7516 24.9803 44.0043 24.9803H52.4412C53.6938 24.9803 54.7096 25.996 54.7096 27.2488V52.7513C54.7096 54.0041 53.6938 55.0198 52.4412 55.0198ZM46.2726 50.4829H50.1726V29.5172H46.2726V50.4829Z" fill="#233D4D"/>
<path d="M39.9993 79.9826C29.7561 79.9826 19.5129 76.0835 11.7146 68.2857C10.8289 67.3999 10.8289 65.9635 11.7146 65.0776C12.6007 64.1918 14.0367 64.1915 14.9229 65.0776C28.7498 78.9048 51.2492 78.905 65.0761 65.0776C71.7742 58.3794 75.4631 49.4736 75.4631 40.0011C75.4631 30.5286 71.7742 21.6225 65.0761 14.9243C51.2492 1.09694 28.7498 1.09741 14.9229 14.9243C5.97651 23.8704 2.46526 37.0259 5.75885 49.2574C6.08464 50.4672 5.36776 51.7119 4.15807 52.0375C2.94916 52.3638 1.70385 51.6468 1.37791 50.4369C-0.419119 43.7628 -0.458806 36.6966 1.26291 30.0014C3.03713 23.1025 6.65135 16.7795 11.7148 11.716C27.3114 -3.87995 52.6878 -3.87995 68.2844 11.716C75.8395 19.2712 80 29.3162 80 40.0008C80 50.6853 75.8392 60.7302 68.2844 68.2855C60.4861 76.0835 50.2426 79.9826 39.9993 79.9826Z" fill="#233D4D"/>
<path d="M39.9993 70.6298C23.1102 70.6298 9.36987 56.8891 9.36987 40.0001C9.36987 23.111 23.1102 9.37 39.9993 9.37C50.9263 9.37 61.1045 15.2588 66.5617 24.7381C67.1868 25.8238 66.8133 27.2108 65.7276 27.836C64.6415 28.461 63.255 28.0874 62.63 27.0019C57.9798 18.9249 49.3082 13.907 39.9993 13.907C25.6118 13.907 13.9068 25.6124 13.9068 39.9999C13.9068 54.3874 25.6121 66.0928 39.9993 66.0928C54.387 66.0928 66.0922 54.3874 66.0922 39.9999C66.0922 38.7471 67.1079 37.7315 68.3606 37.7315C69.6133 37.7315 70.629 38.7471 70.629 39.9999C70.629 56.8895 56.8887 70.6298 39.9993 70.6298Z" fill="#233D4D"/>
</g>
<defs>
<clipPath id="clip0">
<rect width="80" height="80" fill="white"/>
</clipPath>
</defs>
</svg>
