<svg width="129" height="129" viewBox="0 0 129 129" fill="none" xmlns="http://www.w3.org/2000/svg">
<path d="M127.805 122.433L122.686 110.846C122.045 109.394 121.427 106.83 121.338 105.246L120.931 98.0299C120.832 96.2897 120.752 61.0277 120.752 61.0277C120.753 58.5022 119.155 56.3469 116.178 56.2486L103.531 55.6977C101.916 55.6266 99.2839 56.3106 98.624 59.6614L96.3251 74.2757C96.1861 75.1596 95.2793 75.9472 94.3847 75.9608L84.3867 76.114C82.0203 76.1502 80.0457 77.71 79.8916 79.6643C79.8235 80.5261 80.1217 81.3778 80.7311 82.0624C81.5045 82.9309 82.7002 83.4568 84.0117 83.5053L98.5274 84.0425L98.4908 87.3158L92.087 104.043C91.4082 105.815 90.7294 108.683 90.542 110.574L89.1888 124.218C89.064 125.475 89.4481 126.668 90.2702 127.579C91.0923 128.49 92.2404 128.994 93.5032 128.998L94.074 129C94.0743 129 94.0743 129 94.0746 129C96.5429 129 98.7763 127.005 99.0533 124.553L100.32 113.331C100.49 111.824 101.368 109.389 102.197 108.121L108.781 98.052L111.49 109.335C111.921 111.132 112.935 113.943 113.749 115.603L118.523 125.335C119.406 127.134 121.399 128.344 123.483 128.344C123.891 128.344 124.293 128.295 124.677 128.2L125.021 128.114C126.25 127.809 127.256 127.019 127.783 125.945C128.309 124.871 128.317 123.591 127.805 122.433ZM94.0732 127.549V127.55V127.549Z" fill="#2E4E65"/>
<path d="M89.5683 72.9188C91.9115 72.9188 93.9496 71.0176 94.1127 68.6804L95.0302 55.4913C95.1117 54.3165 94.7227 53.2031 93.9349 52.357C93.147 51.5108 92.0644 51.0435 90.8864 51.0411L72.7548 51.0095C70.4118 51.0095 68.3734 52.911 68.2107 55.2479L67.2929 68.4371C67.2114 69.6119 67.6004 70.7249 68.3882 71.5714C69.1764 72.4179 70.259 72.8852 71.437 72.8872L89.561 72.9188H89.5683Z" fill="#A89271"/>
<path d="M94.9033 37.854C95.4774 39.421 97.1607 40.7437 98.8188 40.9306L101.49 41.232C101.345 43.1178 101.692 45.0175 102.528 46.7705C103.788 49.4108 106 51.4022 108.758 52.3781C109.939 52.7964 111.168 53.0084 112.412 53.0084C112.412 53.0084 112.412 53.0084 112.413 53.0084C117.041 53.0084 121.189 50.0751 122.735 45.7097C123.711 42.9527 123.555 39.9805 122.296 37.3402C121.036 34.7002 118.824 32.7085 116.067 31.7321C114.885 31.3143 113.656 31.1023 112.413 31.1023C110.27 31.1023 108.231 31.7315 106.505 32.839L96.8938 31.9247C96.7787 31.9137 96.6661 31.9084 96.5576 31.9084C95.6186 31.9084 94.8021 32.3061 94.3176 32.9997C93.8207 33.711 93.7311 34.652 94.0713 35.5817L94.9033 37.854Z" fill="#FE7F2D"/>
<path d="M52.8248 0H4.00804C2.24869 0 0.817139 1.43155 0.817139 3.1909V84.7863C0.817139 86.5456 2.24869 87.9772 4.00804 87.9772H52.8248C54.5841 87.9772 56.0157 86.5456 56.0157 84.7863V3.1909C56.0157 1.43155 54.5844 0 52.8248 0ZM17.7927 58.4013H7.73675V53.5407H17.793V58.4013H17.7927ZM47.0594 40.1006H9.77371V9.2919H47.0594V40.1006Z" fill="#427AA1"/>
</svg>
