<svg width="300" height="231" viewBox="0 0 300 231" fill="none" xmlns="http://www.w3.org/2000/svg">
<g clip-path="url(#clip0)">
<path opacity="0.1" d="M294.192 62.1831C291.224 55.2768 287.211 48.87 282.295 43.1881L117.198 41.5578L253.126 22.432C244.345 18.9297 234.997 17.0723 225.546 16.952C212.543 6.53936 196.532 0.610048 179.895 0.0461367C163.258 -0.517774 146.883 4.31385 133.208 13.8223C122.277 8.19096 110.159 5.26407 97.868 5.2865C61.1848 5.2865 30.6194 30.7401 23.7633 64.4906L294.192 62.1831Z" fill="#427AA1"/>
<path opacity="0.1" d="M299.997 90.4905C300.005 81.3371 298.259 72.2673 294.854 63.7736L8.72204 93.8621C5.78187 99.2085 3.53243 104.908 2.02785 110.823L90.6399 124.053L0 133.701C2.72652 171.91 35.4221 202.081 75.3628 202.081C95.4681 202.081 113.739 194.436 127.275 181.968C140.853 194.672 159.3 202.485 179.621 202.485C209.775 202.485 235.799 185.286 247.918 160.418C272.232 152.688 291.119 133.277 297.583 108.993L185.529 91.5831H299.986C299.992 91.2189 299.997 90.8547 299.997 90.4905Z" fill="#427AA1"/>
<path opacity="0.1" d="M7.9836 211.217C12.0336 211.217 15.3168 210.765 15.3168 210.207C15.3168 209.649 12.0336 209.197 7.9836 209.197C3.93358 209.197 0.650391 209.649 0.650391 210.207C0.650391 210.765 3.93358 211.217 7.9836 211.217Z" fill="#427AA1"/>
<path opacity="0.1" d="M36.0753 214.071C40.1253 214.071 43.4085 213.619 43.4085 213.061C43.4085 212.503 40.1253 212.051 36.0753 212.051C32.0253 212.051 28.7421 212.503 28.7421 213.061C28.7421 213.619 32.0253 214.071 36.0753 214.071Z" fill="#427AA1"/>
<path opacity="0.1" d="M69.1657 210.207C73.2158 210.207 76.499 209.755 76.499 209.197C76.499 208.639 73.2158 208.187 69.1657 208.187C65.1157 208.187 61.8325 208.639 61.8325 209.197C61.8325 209.755 65.1157 210.207 69.1657 210.207Z" fill="#427AA1"/>
<path opacity="0.1" d="M24.8312 221.904C27.7111 221.904 30.0457 221.583 30.0457 221.187C30.0457 220.791 27.7111 220.47 24.8312 220.47C21.9513 220.47 19.6167 220.791 19.6167 221.187C19.6167 221.583 21.9513 221.904 24.8312 221.904Z" fill="#427AA1"/>
<path opacity="0.1" d="M53.9908 221.187C56.8707 221.187 59.2053 220.866 59.2053 220.47C59.2053 220.074 56.8707 219.753 53.9908 219.753C51.111 219.753 48.7764 220.074 48.7764 220.47C48.7764 220.866 51.111 221.187 53.9908 221.187Z" fill="#427AA1"/>
<path d="M36.2343 212.834C36.2343 212.834 25.9474 179.055 37.8419 165.526C46.7428 155.402 56.8423 156.614 61.3667 157.866C62.5373 158.179 63.6262 158.742 64.5579 159.518C65.4897 160.294 66.242 161.263 66.7629 162.359C68.3449 165.773 68.058 171.324 56.8934 177.8C38.1997 188.643 37.0381 203.515 37.0381 203.515L36.2343 212.834Z" fill="#427AA1"/>
<path d="M59.7563 162.658C59.7563 162.658 29.4351 172.155 36.2344 212.834" stroke="#565987" stroke-miterlimit="10"/>
<path d="M42.0481 166.063C42.0481 166.063 46.2231 168.88 44.8882 173.117" stroke="#565987" stroke-miterlimit="10"/>
<path d="M56.7145 168.567C56.7145 168.567 54.1584 165.967 51.057 167.401" stroke="#565987" stroke-miterlimit="10"/>
<path d="M44.7292 181.655C44.7292 181.655 40.2475 179.379 39.0887 182.224" stroke="#565987" stroke-miterlimit="10"/>
<path d="M33.6385 186.401C33.6385 186.401 37.0041 186.134 37.0666 187.747" stroke="#565987" stroke-miterlimit="10"/>
<path d="M35.8253 213.104C35.8253 213.104 47.8731 188.552 51.1819 189.09C52.7525 189.346 53.4767 190.894 53.8062 192.45C54.2145 194.467 53.9851 196.562 53.1501 198.442C51.446 202.355 46.8393 209.823 35.8253 213.104Z" fill="#427AA1"/>
<path d="M51.0825 193.75C51.0825 193.75 38.4382 212.119 35.9957 212.925" stroke="#565987" stroke-miterlimit="10"/>
<path d="M52.247 196.616H49.2961" stroke="#565987" stroke-miterlimit="10"/>
<path d="M48.7111 203.336L44.0874 203.535" stroke="#565987" stroke-miterlimit="10"/>
<path d="M45.8965 197.961L46.3992 200.374" stroke="#565987" stroke-miterlimit="10"/>
<path d="M40.9774 205.308L41.0683 207.502" stroke="#565987" stroke-miterlimit="10"/>
<path d="M36.1747 213.104C36.1747 213.104 24.1269 188.552 20.8182 189.09C19.2476 189.346 18.5233 190.894 18.1939 192.45C17.7888 194.462 18.0191 196.55 18.8528 198.425C20.5597 202.355 25.1522 209.823 36.1747 213.104Z" fill="#427AA1"/>
<path d="M20.9091 193.75C20.9091 193.75 33.5533 212.119 35.9958 212.925" stroke="#565987" stroke-miterlimit="10"/>
<path d="M19.7474 196.616H22.6983" stroke="#565987" stroke-miterlimit="10"/>
<path d="M23.2805 203.336L27.9071 203.535" stroke="#565987" stroke-miterlimit="10"/>
<path d="M26.0979 197.961L25.5952 200.374" stroke="#565987" stroke-miterlimit="10"/>
<path d="M31.017 205.308L30.9261 207.502" stroke="#565987" stroke-miterlimit="10"/>
<path d="M56.8594 218.837C57.1879 218.57 57.4276 218.208 57.5468 217.801C57.5995 217.597 57.5806 217.381 57.4932 217.189C57.4059 216.996 57.2553 216.84 57.0668 216.746C56.6266 216.575 56.1551 216.882 55.8001 217.19C55.4451 217.497 55.0332 217.853 54.5675 217.787C54.8052 217.568 54.9824 217.291 55.0819 216.983C55.1815 216.675 55.1999 216.346 55.1355 216.029C55.1159 215.897 55.0609 215.773 54.9764 215.67C54.7322 215.409 54.2891 215.522 53.9966 215.727C53.065 216.382 52.8066 217.648 52.8009 218.789C52.7497 218.37 52.744 217.948 52.7839 217.528C52.7839 217.107 52.6646 216.638 52.3096 216.413C52.0899 216.292 51.8415 216.233 51.591 216.242C51.1707 216.242 50.7077 216.268 50.4209 216.575C50.0658 216.956 50.1567 217.594 50.4663 218.015C50.8116 218.405 51.2208 218.733 51.6762 218.985C52.0177 219.194 52.3087 219.475 52.5282 219.81C52.5537 219.857 52.5746 219.907 52.5907 219.958H55.2122C55.81 219.662 56.3643 219.285 56.8594 218.837V218.837Z" fill="#427AA1"/>
<path d="M10.9543 208.95C11.2831 208.683 11.5229 208.321 11.6417 207.914C11.694 207.709 11.675 207.493 11.5877 207.3C11.5004 207.108 11.3501 206.951 11.1617 206.856C10.7215 206.688 10.2528 206.995 9.89498 207.302C9.53712 207.61 9.13098 207.963 8.66236 207.897C8.9008 207.678 9.07849 207.401 9.17806 207.093C9.27762 206.785 9.29565 206.456 9.23039 206.139C9.2091 206.008 9.1532 205.885 9.0685 205.783C8.82425 205.521 8.38119 205.632 8.08866 205.84C7.15709 206.494 6.89864 207.761 6.89296 208.901C6.8418 208.482 6.83608 208.059 6.87592 207.638C6.87592 207.217 6.75948 206.75 6.40446 206.526C6.18372 206.405 5.93449 206.346 5.68307 206.355C5.26557 206.338 4.79979 206.381 4.51294 206.688C4.15792 207.069 4.25164 207.706 4.55838 208.11C4.90327 208.503 5.31362 208.832 5.77111 209.084C6.11342 209.291 6.40465 209.573 6.62315 209.909C6.64884 209.956 6.67068 210.006 6.68847 210.057H9.30991C9.90561 209.764 10.4588 209.392 10.9543 208.95V208.95Z" fill="#427AA1"/>
<path d="M26.2541 218.837C26.5826 218.57 26.8223 218.208 26.9414 217.801C26.9942 217.597 26.9753 217.381 26.8879 217.189C26.8005 216.996 26.65 216.84 26.4614 216.746C26.0212 216.575 25.5497 216.882 25.1947 217.19C24.8397 217.497 24.4279 217.853 23.9621 217.787C24.1999 217.568 24.3771 217.291 24.4766 216.983C24.5761 216.675 24.5945 216.346 24.5301 216.029C24.5106 215.897 24.4556 215.773 24.3711 215.67C24.1268 215.409 23.6838 215.522 23.3912 215.727C22.4597 216.382 22.2012 217.648 22.1955 218.789C22.1444 218.37 22.1387 217.948 22.1785 217.528C22.1785 217.107 22.0621 216.638 21.707 216.413C21.4862 216.292 21.237 216.233 20.9857 216.242C20.5682 216.242 20.1024 216.268 19.8155 216.575C19.4605 216.956 19.5514 217.594 19.861 218.015C20.2063 218.405 20.6155 218.733 21.0709 218.985C21.4123 219.194 21.7034 219.475 21.9229 219.81C21.9483 219.857 21.9692 219.907 21.9854 219.958H24.6068C25.2046 219.662 25.7589 219.285 26.2541 218.837V218.837Z" fill="#427AA1"/>
<path d="M69.6428 198.849C69.6428 198.849 70.6255 200.138 69.1883 202.081C67.7512 204.025 66.5697 205.666 67.0469 206.878C67.0469 206.878 69.2139 203.268 70.9776 203.217C72.7413 203.165 71.5826 201.02 69.6428 198.849Z" fill="#427AA1"/>
<path opacity="0.1" d="M69.6427 198.849C69.7283 198.974 69.7962 199.11 69.8444 199.253C71.5655 201.279 72.48 203.168 70.8271 203.217C69.2849 203.262 67.4388 206.022 66.9957 206.719C67.0099 206.773 67.027 206.824 67.0468 206.878C67.0468 206.878 69.2139 203.268 70.9776 203.217C72.7413 203.165 71.5825 201.02 69.6427 198.849Z" fill="black"/>
<path d="M71.469 200.491C71.469 200.943 71.4179 201.31 71.3554 201.31C71.2929 201.31 71.2418 200.943 71.2418 200.491C71.2418 200.039 71.3071 200.252 71.3696 200.252C71.4321 200.252 71.469 200.039 71.469 200.491Z" fill="#FFD037"/>
<path d="M72.0967 201.032C71.6991 201.248 71.3526 201.379 71.3242 201.316C71.2958 201.253 71.5911 201.032 71.9887 200.824C72.3864 200.616 72.2273 200.764 72.2586 200.824C72.2898 200.884 72.4943 200.815 72.0967 201.032Z" fill="#FFD037"/>
<path d="M64.4511 198.849C64.4511 198.849 63.4684 200.138 64.9055 202.081C66.3426 204.025 67.5269 205.666 67.0469 206.878C67.0469 206.878 64.8799 203.268 63.1162 203.217C61.3525 203.165 62.5226 201.02 64.4511 198.849Z" fill="#427AA1"/>
<path opacity="0.1" d="M64.4511 198.849C64.3659 198.974 64.2989 199.11 64.2523 199.253C62.5311 201.279 61.6138 203.168 63.2667 203.217C64.8089 203.262 66.6578 206.022 67.1009 206.719C67.0839 206.773 67.0668 206.824 67.0469 206.878C67.0469 206.878 64.8799 203.268 63.1162 203.217C61.3525 203.165 62.5226 201.02 64.4511 198.849Z" fill="black"/>
<path d="M62.6249 200.491C62.6249 200.943 62.676 201.31 62.7385 201.31C62.801 201.31 62.8521 200.943 62.8521 200.491C62.8521 200.039 62.7896 200.252 62.7271 200.252C62.6646 200.252 62.6249 200.039 62.6249 200.491Z" fill="#FFD037"/>
<path d="M61.9972 201.032C62.3948 201.248 62.7413 201.379 62.7726 201.316C62.8038 201.253 62.5028 201.032 62.108 200.824C61.7132 200.616 61.8666 200.764 61.824 200.824C61.7814 200.884 61.6025 200.815 61.9972 201.032Z" fill="#FFD037"/>
<path d="M62.9373 206.708C62.9373 206.708 65.6865 206.625 66.513 206.033C67.3395 205.442 70.7391 204.736 70.9464 205.683C71.1538 206.631 75.0731 210.395 71.9717 210.421C68.8703 210.446 64.7663 209.937 63.9398 209.433C63.1133 208.93 62.9373 206.708 62.9373 206.708Z" fill="#A8A8A8"/>
<path opacity="0.2" d="M72.0285 210.091C68.9271 210.116 64.8203 209.607 63.9938 209.103C63.3633 208.719 63.1133 207.342 63.031 206.705H62.9373C62.9373 206.705 63.1133 208.927 63.9398 209.431C64.7663 209.934 68.8703 210.444 71.9717 210.418C72.8692 210.418 73.1759 210.091 73.1589 209.619C73.0311 209.909 72.6931 210.085 72.0285 210.091Z" fill="black"/>
<path opacity="0.1" d="M173.927 230.153C225.598 230.153 267.486 228.249 267.486 225.902C267.486 223.554 225.598 221.651 173.927 221.651C122.255 221.651 80.3671 223.554 80.3671 225.902C80.3671 228.249 122.255 230.153 173.927 230.153Z" fill="#427AA1"/>
<path d="M164.395 98.8128C164.395 98.8128 170.359 110.117 170.822 111.73C170.943 112.178 171.203 112.576 171.565 112.865C171.926 113.155 172.371 113.322 172.833 113.341C172.833 113.341 178.775 114.763 180.195 114.954C181.615 115.145 193.924 116.186 193.924 116.186C193.924 116.186 197.048 116.283 197.426 115.145C197.772 114.103 203.808 108.632 207.301 113.406C207.623 113.848 207.837 114.359 207.925 114.899C208.012 115.439 207.972 115.992 207.807 116.513C207.165 118.562 205.847 121.814 204.433 119.791C202.444 116.946 200.133 117.745 200.133 119.262C200.133 120.778 196.952 120.215 195.912 120.428C195.344 120.545 193.39 121.066 191.7 121.521C189.739 122.052 187.729 122.386 185.702 122.519C182.348 122.739 177.403 122.921 175.651 122.258C173.535 121.452 169.845 121.268 168.266 121.225C167.743 121.212 167.238 121.031 166.826 120.707C164.634 118.988 162.781 116.876 161.359 114.479C158.897 110.211 153.833 101.374 154.174 98.8128C154.514 96.2521 164.395 98.8128 164.395 98.8128Z" fill="#EFB7B9"/>
<path opacity="0.05" d="M164.395 98.8128C164.395 98.8128 170.359 110.117 170.822 111.73C170.943 112.178 171.203 112.576 171.565 112.865C171.926 113.155 172.371 113.322 172.833 113.341C172.833 113.341 178.775 114.763 180.195 114.954C181.615 115.145 193.924 116.186 193.924 116.186C193.924 116.186 197.048 116.283 197.426 115.145C197.772 114.103 203.808 108.632 207.301 113.406C207.623 113.848 207.837 114.359 207.925 114.899C208.012 115.439 207.972 115.992 207.807 116.513C207.165 118.562 205.847 121.814 204.433 119.791C202.444 116.946 200.133 117.745 200.133 119.262C200.133 120.778 196.952 120.215 195.912 120.428C195.344 120.545 193.39 121.066 191.7 121.521C189.739 122.052 187.729 122.386 185.702 122.519C182.348 122.739 177.403 122.921 175.651 122.258C173.535 121.452 169.845 121.268 168.266 121.225C167.743 121.212 167.238 121.031 166.826 120.707C164.634 118.988 162.781 116.876 161.359 114.479C158.897 110.211 153.833 101.374 154.174 98.8128C154.514 96.2521 164.395 98.8128 164.395 98.8128Z" fill="black"/>
<path d="M256.052 204.702C256.041 210.748 253.703 216.556 249.523 220.918C245.343 225.279 239.645 227.856 233.616 228.113C227.586 228.37 221.69 226.286 217.156 222.296C212.623 218.306 209.8 212.717 209.278 206.694C209.244 206.312 209.218 205.931 209.207 205.555V205.536C209.195 205.253 209.19 204.968 209.19 204.682C209.19 198.456 211.658 192.486 216.052 188.084C220.447 183.682 226.406 181.209 232.621 181.209C238.835 181.209 244.795 183.682 249.189 188.084C253.583 192.486 256.052 198.456 256.052 204.682V204.702Z" fill="#65617D"/>
<path d="M232.621 217.491C239.679 217.491 245.401 211.759 245.401 204.688C245.401 197.616 239.679 191.884 232.621 191.884C225.562 191.884 219.84 197.616 219.84 204.688C219.84 211.759 225.562 217.491 232.621 217.491Z" fill="#DCE0ED"/>
<path d="M232.621 212.37C236.856 212.37 240.289 208.93 240.289 204.688C240.289 200.445 236.856 197.005 232.621 197.005C228.386 197.005 224.952 200.445 224.952 204.688C224.952 208.93 228.386 212.37 232.621 212.37Z" fill="#65617D"/>
<path d="M171.087 160.111L114.665 161.249V152.918C115.17 146.212 122.049 143.859 128.297 143.122C133.182 142.566 138.128 142.938 142.876 144.217C154.847 147.393 162.472 148.007 166.23 148.067C167.055 148.079 167.85 148.377 168.481 148.909C169.113 149.44 169.541 150.174 169.695 150.986C169.874 151.939 170.05 152.978 170.215 154.002C170.34 154.805 170.459 155.596 170.567 156.333C170.879 158.455 171.087 160.111 171.087 160.111Z" fill="#65617D"/>
<path d="M216.1 206.204H98.8905C97.9856 206.213 97.0979 205.956 96.3379 205.464C95.5779 204.971 94.9792 204.266 94.6161 203.436C93.7328 201.322 94.9683 199.973 96.2861 199.182C98.983 197.581 101.027 195.075 102.057 192.109C103.307 188.41 104.528 182.623 105.008 173.58C105.502 164.228 108.882 159.605 112.534 157.362C117.252 154.472 122.424 155.556 122.424 155.556L169.948 155.937C170.794 156.321 171.576 156.833 172.268 157.454C176.503 161.403 170.328 166.558 170.328 166.558C157.073 180.594 167.108 194.82 167.108 194.82H191.425C195.968 194.844 200.411 193.481 204.163 190.914C207.449 188.638 208.707 186.438 209.212 185.107C209.587 184.088 209.968 183.072 210.422 182.088C216.801 168.229 209.107 145.683 205.787 137.252C204.964 135.155 204.41 133.932 204.41 133.932L212.036 133.363L216.864 132.996H216.912C227.54 151.359 231.49 170.229 232.817 184.21C232.942 185.528 233.044 186.805 233.126 188.031C233.277 190.363 232.948 192.701 232.16 194.9C231.372 197.099 230.142 199.112 228.546 200.816C226.95 202.52 225.022 203.877 222.881 204.804C220.74 205.73 218.432 206.207 216.1 206.204V206.204Z" fill="#427AA1"/>
<path opacity="0.1" d="M170.57 156.332H114.665V154.002H170.217C170.342 154.79 170.462 155.581 170.57 156.332Z" fill="black"/>
<path opacity="0.1" d="M172.271 157.471H112.986C112.832 157.471 112.679 157.44 112.537 157.38C117.255 154.489 122.427 155.573 122.427 155.573L169.951 155.954C170.796 156.338 171.579 156.85 172.271 157.471Z" fill="black"/>
<path d="M172.765 154.557H92.2417C91.6001 154.557 91.0801 155.078 91.0801 155.721V155.724C91.0801 156.366 91.6001 156.887 92.2417 156.887H172.765C173.407 156.887 173.927 156.366 173.927 155.724V155.721C173.927 155.078 173.407 154.557 172.765 154.557Z" fill="#DCE0ED"/>
<path opacity="0.1" d="M232.817 184.216C230.116 187.158 228.128 188.316 228.221 185.212C228.505 175.823 212.033 133.371 212.033 133.371L216.903 133.001C227.534 151.351 231.488 170.22 232.817 184.216Z" fill="black"/>
<path opacity="0.1" d="M255.91 202.116C253.112 202.787 249.662 203.47 245.401 204.107C243.817 204.34 242.112 204.564 240.289 204.779C235.935 205.297 230.9 205.749 225.083 206.096C223.436 206.195 221.725 206.285 219.951 206.366C216.628 206.518 213.071 206.634 209.281 206.713L209.21 205.575V205.555C214.506 203.413 222.842 197.697 224.183 182.808C227.53 181.515 231.129 181.01 234.702 181.33C238.276 181.651 241.728 182.788 244.793 184.656C247.858 186.523 250.455 189.07 252.383 192.101C254.31 195.132 255.518 198.566 255.913 202.138L255.91 202.116Z" fill="black"/>
<path d="M204.79 206.204C204.79 206.204 231.686 203.279 222.422 162.225C222.422 162.225 235.711 174.431 243.978 181.214C252.246 187.997 266.984 197.35 266.984 197.35C266.984 197.35 258.185 205.587 204.79 206.204Z" fill="#427AA1"/>
<path opacity="0.1" d="M204.79 206.204C204.79 206.204 231.686 203.279 222.422 162.225C222.422 162.225 235.711 174.431 243.978 181.214C252.246 187.997 266.984 197.35 266.984 197.35C266.984 197.35 258.185 205.587 204.79 206.204Z" fill="white"/>
<path d="M132.935 228.161C145.876 228.161 156.366 217.652 156.366 204.688C156.366 191.724 145.876 181.214 132.935 181.214C119.994 181.214 109.504 191.724 109.504 204.688C109.504 217.652 119.994 228.161 132.935 228.161Z" fill="#65617D"/>
<path d="M132.935 217.491C139.994 217.491 145.716 211.759 145.716 204.688C145.716 197.616 139.994 191.884 132.935 191.884C125.877 191.884 120.154 197.616 120.154 204.688C120.154 211.759 125.877 217.491 132.935 217.491Z" fill="#DCE0ED"/>
<path d="M132.935 212.37C137.17 212.37 140.603 208.93 140.603 204.688C140.603 200.445 137.17 197.005 132.935 197.005C128.7 197.005 125.267 200.445 125.267 204.688C125.267 208.93 128.7 212.37 132.935 212.37Z" fill="#65617D"/>
<path opacity="0.1" d="M159.206 197.637C159.206 182.48 147.19 170.192 132.367 170.192C117.544 170.192 105.528 182.48 105.528 197.637C105.528 198.278 105.55 198.913 105.593 199.541H159.141C159.184 198.913 159.206 198.278 159.206 197.637Z" fill="black"/>
<path d="M158.212 197.165C158.212 182.569 146.642 170.735 132.367 170.735C118.093 170.735 106.522 182.569 106.522 197.165C106.522 197.782 106.545 198.391 106.584 198.997H158.15C158.189 198.391 158.212 197.782 158.212 197.165Z" fill="#427AA1"/>
<path opacity="0.1" d="M158.212 197.165C158.212 197.589 158.212 198.018 158.181 198.428C158.181 198.619 158.161 198.807 158.15 198.997H106.584C106.584 198.807 106.562 198.619 106.553 198.428C106.533 198.01 106.522 197.575 106.522 197.165C106.522 182.569 118.093 170.735 132.367 170.735C146.642 170.735 158.212 182.569 158.212 197.165Z" fill="white"/>
<path opacity="0.1" d="M158.181 198.442C158.181 198.633 158.161 198.821 158.15 199.011H106.584C106.584 198.821 106.562 198.633 106.553 198.442H158.181Z" fill="black"/>
<path opacity="0.1" d="M161.62 199.566H98.2458C96.5721 199.566 95.2153 200.925 95.2153 202.601C95.2153 204.277 96.5721 205.635 98.2458 205.635H161.62C163.294 205.635 164.651 204.277 164.651 202.601C164.651 200.925 163.294 199.566 161.62 199.566Z" fill="black"/>
<path d="M161.62 198.997H98.2458C96.5721 198.997 95.2153 200.356 95.2153 202.032C95.2153 203.707 96.5721 205.066 98.2458 205.066H161.62C163.294 205.066 164.651 203.707 164.651 202.032C164.651 200.356 163.294 198.997 161.62 198.997Z" fill="#DCE0ED"/>
<path opacity="0.1" d="M228.194 159.415C229.906 158.639 229.714 154.51 227.765 150.192C225.816 145.873 222.848 143.001 221.136 143.777C219.424 144.552 219.616 148.682 221.565 153C223.514 157.319 226.482 160.191 228.194 159.415Z" fill="black"/>
<path d="M228.478 159.13C230.19 158.354 229.998 154.225 228.049 149.906C226.1 145.588 223.132 142.716 221.42 143.491C219.708 144.267 219.9 148.396 221.849 152.715C223.798 157.033 226.766 159.905 228.478 159.13Z" fill="#DCE0ED"/>
<path opacity="0.1" d="M216.861 133.001V137.46H208.198C207.392 137.461 206.586 137.396 205.79 137.267C204.966 135.17 204.413 133.946 204.413 133.946L212.038 133.377L216.861 133.001Z" fill="black"/>
<path d="M216.861 136.88H208.198C200.59 136.88 194.424 131.189 194.424 124.141V122.961C194.424 115.927 200.59 110.225 208.198 110.225L216.861 111.013V136.88Z" fill="#427AA1"/>
<path d="M202.589 117.765C202.589 117.765 207.773 120.539 204.79 125.234C204.79 125.234 201.132 131.243 195.381 130.674L193.288 117.765C193.288 117.765 200.175 117.125 202.589 117.765Z" fill="#427AA1"/>
<path opacity="0.1" d="M200.598 117.515C201.422 117.546 202.229 117.762 202.958 118.147C203.688 118.532 204.322 119.077 204.813 119.74C205.736 121.02 206.287 122.887 204.796 125.234C204.796 125.234 201.138 131.243 195.387 130.674L193.294 117.765C193.294 117.765 197.602 117.353 200.598 117.515Z" fill="black"/>
<path opacity="0.1" d="M216.577 111.013H218.247C219.649 111.013 220.995 111.571 221.986 112.565C222.978 113.559 223.535 114.906 223.535 116.311V131.584C223.535 132.99 222.978 134.337 221.986 135.331C220.995 136.324 219.649 136.882 218.247 136.882H216.577V111.013Z" fill="black"/>
<path d="M216.861 111.013H218.531C219.933 111.013 221.279 111.571 222.27 112.565C223.262 113.559 223.819 114.906 223.819 116.311V131.584C223.819 132.99 223.262 134.337 222.27 135.331C221.279 136.324 219.933 136.882 218.531 136.882H216.861V111.013Z" fill="#DCE0ED"/>
<path d="M155.361 144.234C155.361 144.234 156.698 144.724 158.485 145.407C161.325 146.502 165.33 148.101 166.721 148.978C168.113 149.854 173.302 151.294 177.187 152.306C180.068 153.054 183.033 153.42 186.009 153.396C189.03 153.368 192.691 153.339 193.702 153.339C193.879 153.338 194.056 153.351 194.231 153.379C195.293 153.556 195.25 154.27 195.225 154.44V154.477C188.977 158.27 181.402 175.248 180.93 178.093C180.575 180.227 177.454 186.142 175.915 188.97C175.398 189.918 175.063 190.518 175.063 190.518L176.957 192.698L182.447 195.165L187.653 197.441C187.653 197.441 193.146 197.725 193.24 197.441C193.333 197.156 193.333 194.217 193.333 194.217C192.665 193.785 192.031 193.302 191.436 192.772C190.176 191.673 189.006 190.475 187.937 189.19C184.909 185.585 190.967 178.662 190.967 178.662L202.612 163.488C202.612 163.488 203.558 161.781 208.102 154.953C212.646 148.124 208.102 144.425 208.102 144.425L200.104 141.099C186.233 135.898 169.502 131.73 169.502 131.73L169.263 131.698L165.716 131.254L155.361 144.234Z" fill="#EFB7B9"/>
<path d="M191.098 195.165C191.098 195.165 192.092 196.34 191.348 196.445C190.604 196.55 188.65 196.126 188.65 196.126L176.258 189.582C176.258 189.582 174.909 188.62 174.591 190.507C174.273 192.393 174.057 192.214 174.057 192.214C174.057 192.214 172.424 195.734 174.057 196.462C175.69 197.19 185.5 200.073 185.5 200.073C185.5 200.073 199.738 203.31 201.087 199.575C202.436 195.839 198.673 196.482 198.673 196.482C198.673 196.482 193.987 195.344 192.388 193.068C192.376 193.068 190.07 193.708 191.098 195.165Z" fill="#444053"/>
<path opacity="0.05" d="M208.091 144.425L200.093 141.099C186.222 135.898 169.49 131.73 169.49 131.73L169.252 131.698L165.704 131.254L155.361 144.234C155.361 144.234 156.698 144.724 158.485 145.407C161.325 146.502 165.33 148.101 166.721 148.978C168.113 149.854 173.302 151.294 177.187 152.306C180.068 153.054 183.033 153.42 186.009 153.396C189.03 153.368 192.691 153.339 193.702 153.339C193.879 153.338 194.056 153.351 194.231 153.379C195.293 153.556 195.25 154.27 195.225 154.44V154.477C188.977 158.27 181.402 175.248 180.93 178.093C180.575 180.227 177.454 186.142 175.915 188.97L175.707 189.352C175.296 189.283 174.782 189.431 174.6 190.507C174.279 192.39 174.066 192.214 174.066 192.214C174.066 192.214 172.433 195.734 174.066 196.462C175.699 197.19 185.5 200.073 185.5 200.073C185.5 200.073 199.738 203.31 201.087 199.575C202.436 195.839 198.673 196.482 198.673 196.482C198.673 196.482 193.987 195.344 192.388 193.068C192.246 193.109 192.107 193.16 191.973 193.221C191.805 193.085 191.626 192.937 191.436 192.772C190.176 191.673 189.006 190.475 187.937 189.189C184.909 185.585 190.967 178.662 190.967 178.662L202.612 163.488C202.612 163.488 203.558 161.781 208.102 154.953C212.646 148.124 208.091 144.425 208.091 144.425Z" fill="black"/>
<path d="M145.824 80.7796L146.255 81.3259L146.497 81.6304L148.002 83.5281C148.002 83.5281 151.595 84.6833 154.744 85.4316C158.025 86.2084 160.822 86.547 158.599 84.689C157.218 83.5367 157.127 81.6076 157.63 79.5391C158.053 77.9473 158.66 76.4101 159.436 74.9582C159.548 74.742 159.659 74.5314 159.769 74.3266C160.474 73.0194 161.256 71.7549 162.109 70.5395C160.09 69.1387 157.995 67.8497 155.835 66.6785C153.234 65.3299 151.098 64.7409 152.452 67.4098C153.322 69.1169 153.038 71.0346 152.225 72.8698C152.163 73.0149 152.095 73.1543 152.024 73.3051C151.294 74.7273 150.394 76.0545 149.343 77.2572C148.265 78.5235 147.088 79.7014 145.824 80.7796V80.7796Z" fill="#EFB7B9"/>
<path d="M163.813 124.121L165.739 125.883L167.599 133.053H164.495L161.067 128.586L163.813 124.121Z" fill="#444053"/>
<path opacity="0.1" d="M161.067 128.586L163.14 131.286L164.495 133.053H167.599L167.281 131.826L165.926 126.603L165.739 125.883L163.813 124.121L161.183 128.395L161.067 128.586Z" fill="black"/>
<path opacity="0.1" d="M161.067 128.586L163.14 131.286L164.495 133.053H167.599L167.281 131.826L165.926 126.603L165.739 125.883L163.813 124.121L161.183 128.395L161.067 128.586Z" fill="black"/>
<path d="M150.748 147.453C150.748 147.453 152.086 147.942 153.873 148.625C156.713 149.72 160.717 151.319 162.109 152.196C163.501 153.072 168.689 154.512 172.575 155.524C175.455 156.273 178.421 156.64 181.396 156.617C184.418 156.589 188.079 156.56 189.09 156.56C189.267 156.559 189.444 156.572 189.618 156.6C190.681 156.776 190.638 157.491 190.612 157.661V157.698C184.364 161.491 176.79 178.469 176.318 181.314C175.963 183.448 172.842 189.363 171.302 192.191C170.786 193.139 170.45 193.739 170.45 193.739L172.345 195.919L177.832 198.383L183.038 200.659C183.038 200.659 188.531 200.943 188.624 200.659C188.718 200.374 188.718 197.435 188.718 197.435C188.05 197.003 187.415 196.52 186.821 195.99C185.561 194.891 184.391 193.693 183.322 192.408C180.294 188.803 186.352 181.88 186.352 181.88L197.997 166.706C197.997 166.706 198.943 164.999 203.487 158.171C208.031 151.342 203.487 147.643 203.487 147.643L196.199 143.469C184.838 136.547 168.837 132.563 168.837 132.563L168.599 132.532L165.051 132.088L150.748 147.453Z" fill="#EFB7B9"/>
<path opacity="0.1" d="M170.448 193.736L172.342 195.916L177.832 198.383L183.038 200.659C183.038 200.659 188.531 200.943 188.624 200.659C188.718 200.374 188.718 197.435 188.718 197.435C188.05 197.003 187.415 196.52 186.821 195.99C186.233 196.306 185.566 196.897 186.21 197.813C186.21 197.813 187.204 198.986 186.46 199.094C185.716 199.202 183.762 198.775 183.762 198.775L171.371 192.231L171.3 192.183C170.777 193.136 170.448 193.736 170.448 193.736Z" fill="black"/>
<path d="M186.486 198.383C186.486 198.383 187.48 199.555 186.733 199.663C185.986 199.771 184.035 199.341 184.035 199.341L171.646 192.797C171.646 192.797 170.297 191.838 169.976 193.722C169.655 195.606 169.445 195.429 169.445 195.429C169.445 195.429 167.812 198.952 169.445 199.68C171.078 200.408 180.876 203.279 180.876 203.279C180.876 203.279 195.111 206.514 196.46 202.781C197.809 199.048 194.046 199.686 194.046 199.686C194.046 199.686 189.36 198.548 187.764 196.271C187.772 196.283 185.455 196.923 186.486 198.383Z" fill="#444053"/>
<path opacity="0.1" d="M151.504 72.1472C153.145 73.2853 155.65 75.0863 157.789 75.0863C158.341 75.0862 158.892 75.0424 159.436 74.9554C160.227 73.4242 161.12 71.948 162.109 70.5367C162.109 70.5367 149.612 61.8103 152.453 67.407C153.39 69.2678 152.467 70.1811 151.504 72.1472Z" fill="black"/>
<path d="M147.565 64.2743C147.563 65.9826 147.989 67.664 148.803 69.165C149.617 70.666 150.794 71.9387 152.225 72.867C152.547 73.0769 152.88 73.267 153.225 73.436C155.215 74.4306 157.475 74.748 159.661 74.34C161.848 73.932 163.842 72.821 165.341 71.1753C166.84 69.5296 167.763 67.4391 167.969 65.2206C168.176 63.0022 167.654 60.7768 166.484 58.8819C165.314 56.9871 163.56 55.5261 161.486 54.7204C159.413 53.9148 157.133 53.8084 154.994 54.4175C152.855 55.0266 150.972 56.3179 149.631 58.0956C148.29 59.8734 147.565 62.0405 147.565 64.2686V64.2743Z" fill="#EFB7B9"/>
<path opacity="0.1" d="M150.748 147.452C150.748 147.452 152.086 147.942 153.873 148.625C154.994 147.635 156.145 146.679 156.625 146.505C157.667 146.124 161.075 144.132 160.981 143.563C160.888 142.994 162.401 140.815 163.725 140.433C165.048 140.052 164.293 138.063 164.293 138.063C164.293 138.063 166.849 137.116 167.485 135.787C168.121 134.458 170.07 132.751 169.405 132.848C169.117 132.801 168.842 132.693 168.599 132.532L165.051 132.088L150.748 147.452Z" fill="black"/>
<path d="M142.983 144.038C142.983 144.038 147.34 147.643 147.542 149.253C147.743 150.864 150.652 150.773 150.652 150.773C150.652 150.773 155.009 146.599 156.048 146.22C157.087 145.842 160.498 143.848 160.405 143.278C160.311 142.709 161.825 140.53 163.148 140.149C164.472 139.767 163.716 137.779 163.716 137.779C163.716 137.779 166.272 136.831 166.909 135.502C167.545 134.174 169.493 132.466 168.829 132.563C168.641 132.589 168.042 132.279 167.281 131.826C166.346 131.257 165.162 130.486 164.196 129.835C163.174 129.14 162.393 128.588 162.393 128.588C162.393 128.588 161.947 128.509 161.183 128.398C157.062 127.8 143.639 126.275 140.524 131.243C140.109 131.9 139.797 132.616 139.601 133.368C138.206 138.661 142.983 144.038 142.983 144.038Z" fill="#444053"/>
<path opacity="0.1" d="M147.539 132.538C147.539 132.538 143.091 135.053 141.433 135.053C139.774 135.053 147.539 132.538 147.539 132.538Z" fill="black"/>
<path opacity="0.1" d="M150.51 134.458C150.51 134.458 143.887 136.689 143.887 138.441C143.887 140.194 143.267 133.747 150.51 134.458Z" fill="black"/>
<path opacity="0.1" d="M166.366 124.412L166.273 124.54C166.315 124.507 166.348 124.462 166.366 124.412V124.412Z" fill="black"/>
<path opacity="0.1" d="M145.824 80.7797L146.255 81.3259L146.497 81.6304L148.002 83.5282C148.002 83.5282 151.595 84.6833 154.744 85.4316C158.025 86.2084 160.822 86.547 158.599 84.689C157.218 83.5367 157.127 81.6076 157.63 79.5391L157.531 79.4111C157.531 79.4111 157.63 81.3288 156.497 81.3658C154.969 81.4141 154.949 80.8992 153.54 80.3045C151.725 79.5363 149.865 78.2531 149.343 77.2544C148.265 78.5217 147.089 79.7005 145.824 80.7797Z" fill="black"/>
<path opacity="0.1" d="M139.601 133.36C140.376 133.692 141.248 133.712 142.038 133.417C144.972 132.467 149.612 130.179 151.788 131.181C153.532 131.983 160.555 131.96 163.148 131.286C163.793 131.118 164.162 130.91 164.105 130.666C164.069 130.384 164.103 130.097 164.205 129.832C164.506 128.867 165.324 127.527 165.935 126.603L165.747 125.883L163.821 124.121L161.191 128.389C157.07 127.792 143.648 126.267 140.532 131.235C140.114 131.891 139.8 132.608 139.601 133.36Z" fill="black"/>
<path d="M137.684 131.141C137.684 131.141 138.82 133.795 141.754 132.848C144.688 131.9 149.328 129.61 151.504 130.611C153.679 131.613 164.097 131.328 163.813 130.096C163.529 128.864 166.369 124.975 166.369 124.975C166.369 124.975 164.818 124.69 163.858 119.617C163.716 118.878 163.589 118.035 163.481 117.079C163.246 115.122 163.191 113.146 163.316 111.178C163.699 105.687 165.619 103.445 165.619 103.445C165.619 103.445 168.269 100.412 165.997 96.2379C164.807 94.0499 160.004 87.9867 159.939 85.2837C159.879 82.8311 157.539 79.9801 157.539 79.9801C157.539 79.9801 157.639 81.8978 156.505 81.9348C154.977 81.9832 154.958 81.4682 153.549 80.8736C151.478 79.9972 149.351 78.4522 149.212 77.4194C149.212 77.4194 140.532 76.9841 138.638 85.8044C136.744 94.6247 137.408 99.4616 137.692 100.506C137.976 101.55 140.436 115.017 138.448 120.707C136.46 126.398 137.684 131.141 137.684 131.141Z" fill="#A36468"/>
<path opacity="0.1" d="M151.836 115.645C153.401 118.291 155.496 120.584 157.988 122.38C159.65 122.394 161.309 122.505 162.958 122.713C162.816 121.973 162.674 121.131 162.58 120.175C162.346 118.217 162.291 116.242 162.416 114.274C162.143 114.137 161.903 113.943 161.711 113.706C161.519 113.468 161.379 113.193 161.302 112.897C160.828 111.284 156.605 103.601 156.605 103.601C156.605 103.601 146.724 101.041 146.38 103.601C146.037 106.162 149.374 111.378 151.836 115.645Z" fill="black"/>
<path d="M155.111 98.8128C155.111 98.8128 161.075 110.117 161.538 111.73C161.659 112.178 161.919 112.576 162.28 112.865C162.642 113.155 163.086 113.322 163.549 113.341C163.549 113.341 169.49 114.763 170.91 114.954C172.331 115.145 184.648 116.186 184.648 116.186C184.648 116.186 187.772 116.283 188.15 115.145C188.497 114.103 194.532 108.632 198.025 113.406C198.347 113.848 198.561 114.359 198.649 114.899C198.737 115.439 198.696 115.992 198.531 116.513C197.889 118.562 196.571 121.814 195.157 119.791C193.169 116.946 190.857 117.745 190.857 119.262C190.857 120.778 187.676 120.215 186.636 120.428C186.068 120.545 184.114 121.066 182.424 121.521C180.458 122.053 178.444 122.387 176.412 122.519C173.058 122.739 168.113 122.921 166.361 122.258C164.248 121.452 160.558 121.268 158.976 121.225C158.453 121.212 157.948 121.031 157.536 120.707C155.345 118.988 153.493 116.876 152.072 114.479C149.61 110.211 144.546 101.374 144.886 98.8128C145.227 96.2521 155.111 98.8128 155.111 98.8128Z" fill="#EFB7B9"/>
<path opacity="0.1" d="M153.123 83.1497C153.123 83.1497 156.318 88.4618 157.798 92.2546C159.277 96.0473 161.075 102.688 161.075 102.688L152.174 101.644L151.419 100.412C151.419 100.412 145.062 104.395 145.821 106.102C146.579 107.81 144.117 103.542 144.307 98.7047C144.497 93.8678 143.623 85.2353 144.307 83.1497C144.991 81.0642 151.03 81.5365 153.123 83.1497Z" fill="black"/>
<path d="M144.318 98.1357C144.128 102.973 146.59 107.241 145.832 105.533C145.074 103.826 151.43 99.8429 151.43 99.8429L152.177 101.075L161.075 102.119C161.075 102.119 159.277 95.4783 157.798 91.6855C156.909 89.5398 155.892 87.4496 154.753 85.426C153.841 83.7672 153.123 82.5807 153.123 82.5807C151.899 81.6333 149.3 81.0784 147.227 81.2093C146.904 81.2277 146.582 81.2667 146.264 81.326C145.412 81.4938 144.724 81.8182 144.421 82.3303C144.374 82.4096 144.336 82.4935 144.307 82.5807C143.625 84.6663 144.5 93.2988 144.318 98.1357Z" fill="#A36468"/>
<path opacity="0.1" d="M140.342 111.378C140.342 111.378 144.105 116.57 145.241 116.712C145.233 116.724 140.405 115.645 140.342 111.378Z" fill="black"/>
<path opacity="0.1" d="M140.342 118.775C140.342 118.775 147.442 125.959 149.715 126.031C151.987 126.102 140.342 118.775 140.342 118.775Z" fill="black"/>
<path opacity="0.1" d="M140.342 121.774C140.342 121.774 144.886 127.109 145.17 127.109C145.454 127.109 140.263 125.259 140.342 121.774Z" fill="black"/>
<path opacity="0.1" d="M144.412 82.3303C145.143 82.2212 145.848 81.9843 146.497 81.6304C146.741 81.5023 146.982 81.3601 147.218 81.2093C148.149 80.5849 149.017 79.8701 149.808 79.0753C151.115 77.8035 152.418 76.415 152.958 74.6709C153.079 74.2689 153.169 73.8579 153.225 73.4417C153.549 71.2537 153.276 68.8381 154.838 67.35C155.132 67.0725 155.468 66.8447 155.835 66.6757C158.05 65.6201 161.263 66.303 162.916 64.3995C163.966 63.1931 163.941 61.5173 164.747 60.2056C165.1 59.6365 165.747 59.1443 166.321 58.6208C165.485 57.3466 164.376 56.2753 163.075 55.485C161.774 54.6948 160.313 54.2056 158.798 54.053C157.284 53.9004 155.755 54.0884 154.323 54.6032C152.89 55.118 151.591 55.9466 150.519 57.0286C149.447 58.1106 148.629 59.4187 148.126 60.8575C147.623 62.2963 147.446 63.8295 147.61 65.3452C147.774 66.8609 148.273 68.3209 149.071 69.6188C149.87 70.9166 150.947 72.0195 152.225 72.8471C152.163 72.9922 152.095 73.1316 152.024 73.2824C150.072 77.2657 145.824 80.7597 145.824 80.7597L146.255 81.306C145.395 81.5023 144.716 81.8181 144.412 82.3303Z" fill="black"/>
<path d="M162.347 64.1208C160.425 66.3287 156.383 65.0426 154.267 67.0656C152.41 68.8382 153.148 71.931 152.39 74.3865C151.85 76.1306 150.547 77.5162 149.24 78.7909C147.337 80.646 144.903 82.5296 142.302 81.9975C140.76 81.6817 139.249 80.5265 137.758 81.0586C137.016 81.326 136.485 81.9691 135.931 82.5353C134.05 84.4559 131.605 85.7231 128.953 86.1516C128.429 86.2701 127.882 86.2445 127.371 86.0776C126.576 85.7532 126.147 84.8826 125.423 84.4188C124.003 83.5083 122.18 84.4416 120.706 85.2553C116.583 87.4914 112.033 88.8223 107.357 89.1593C102.681 89.4963 97.9874 88.8318 93.588 87.21L95.8856 86.0719C95.3971 85.0732 94.0765 84.8541 93.2358 84.1229C91.5033 82.6178 92.5229 79.6075 94.3548 78.2275C96.1867 76.8476 98.5582 76.3668 100.455 75.0779C100.842 74.8161 101.234 74.469 101.271 74.0052C101.264 73.6646 101.156 73.3336 100.961 73.0549C99.9499 71.2709 98.8309 69.3561 99.0581 67.316C99.4046 64.1862 102.816 62.2628 105.948 62.0437C109.081 61.8247 112.182 62.7693 115.321 62.8233C116.457 62.8433 117.647 62.7323 118.621 62.1433C119.981 61.3239 120.666 59.7618 121.492 58.4047C122.967 55.9949 125.081 54.0427 127.599 52.7654C130.439 51.3285 133.654 50.8249 136.607 49.6356C139.624 48.4235 142.367 46.5058 145.523 45.7347C150.104 44.5966 155.011 46.0847 158.968 48.6568C160.873 49.8945 166.96 53.8665 166.92 56.4073C166.889 57.9153 164.932 58.7319 164.191 59.9155C163.373 61.2385 163.398 62.9144 162.347 64.1208Z" fill="#965D7B"/>
<g opacity="0.1">
<path opacity="0.1" d="M100.683 71.6293C100.877 71.9087 100.984 72.2392 100.992 72.5796C100.981 72.6996 100.947 72.8163 100.893 72.9239C100.058 71.45 99.1886 69.888 99.0494 68.2434C99.4187 69.4185 100.069 70.5481 100.683 71.6293Z" fill="black"/>
<path opacity="0.1" d="M92.9574 82.6973C93.7953 83.4285 95.1159 83.6476 95.6073 84.6463L94.795 85.0503C94.2477 84.7925 93.7273 84.4808 93.2414 84.1199C92.9334 83.845 92.6931 83.5023 92.5394 83.1187C92.3857 82.7352 92.3227 82.3212 92.3553 81.9092C92.5001 82.2104 92.705 82.4786 92.9574 82.6973V82.6973Z" fill="black"/>
<path opacity="0.1" d="M120.427 83.8326C121.901 83.0188 123.727 82.0856 125.145 82.9961C125.866 83.4598 126.298 84.3305 127.093 84.6548C127.603 84.8218 128.149 84.8473 128.672 84.7288C131.325 84.3003 133.771 83.0331 135.653 81.1125C136.204 80.5434 136.735 79.9033 137.479 79.6358C138.962 79.1037 140.473 80.2589 142.023 80.5747C144.625 81.1068 147.056 79.2232 148.962 77.3681C150.268 76.0963 151.569 74.7078 152.109 72.9637C152.87 70.5082 152.132 67.4154 153.989 65.6429C156.111 63.6199 160.144 64.9059 162.069 62.698C163.117 61.4916 163.094 59.8158 163.901 58.5041C164.583 57.3973 166.349 56.612 166.599 55.2776C166.794 55.6259 166.903 56.0164 166.914 56.4157C166.883 57.9237 164.926 58.7403 164.185 59.9239C163.378 61.2356 163.401 62.9114 162.353 64.1178C160.428 66.3257 156.389 65.0397 154.273 67.0626C152.416 68.8352 153.154 71.928 152.393 74.3835C151.853 76.1276 150.552 77.5132 149.246 78.7879C147.34 80.643 144.909 82.5266 142.308 81.9945C140.762 81.6787 139.252 80.5235 137.763 81.0556C137.019 81.323 136.488 81.9661 135.937 82.5323C134.055 84.4529 131.609 85.7201 128.956 86.1486C128.433 86.2671 127.887 86.2416 127.377 86.0746C126.582 85.7503 126.15 84.8796 125.429 84.4158C124.009 83.5054 122.185 84.4386 120.711 85.2523C116.589 87.4884 112.038 88.8193 107.363 89.1563C102.687 89.4933 97.9931 88.8288 93.5936 87.207L95.1813 86.4189C99.3521 87.6742 103.729 88.0919 108.062 87.6481C112.394 87.2042 116.596 85.9076 120.427 83.8326V83.8326Z" fill="black"/>
</g>
<path opacity="0.1" d="M190.612 157.658L193.001 156.5V156.048C193.001 155.874 191.095 156.259 189.618 156.586C190.681 156.774 190.638 157.488 190.612 157.658Z" fill="black"/>
<path d="M192.689 131.493C195.866 131.493 198.443 128.353 198.443 124.48C198.443 120.606 195.866 117.466 192.689 117.466C189.511 117.466 186.934 120.606 186.934 124.48C186.934 128.353 189.511 131.493 192.689 131.493Z" fill="#427AA1"/>
<path d="M137.306 115.352L128.056 124.491L97.6465 123.959L106.008 115.352H137.306Z" fill="#DDA2A6"/>
<path d="M137.306 146.616V115.352L128.056 124.491V155.083L137.306 146.616Z" fill="#B77B7F"/>
<path d="M97.6465 123.959V155.083H128.056V124.491L97.6465 123.959Z" fill="#DDA2A6"/>
<path opacity="0.3" d="M97.6465 123.959V155.083H128.056V124.491L97.6465 123.959Z" fill="white"/>
<path d="M125.585 133.058L102.969 129.169L100.021 144.044L123.304 148.329L125.585 133.058Z" fill="#DCE0ED"/>
<path d="M121.117 136.532L105.914 134.14L105.534 136.126L120.737 138.709L121.117 136.532Z" fill="#427AA1"/>
<path d="M116.937 140.78L108.288 139.523L107.908 141.728L116.937 142.997V140.78Z" fill="#427AA1"/>
<path d="M133.566 131.761L133.154 119.452L130.777 121.802L131.191 134.139L133.566 131.761Z" fill="#65617D"/>
<path d="M102.949 118.502L132.171 118.897L133.154 119.452L130.777 121.802L129.956 121.319L101.012 120.496L102.949 118.502Z" fill="#65617D"/>
</g>
<defs>
<clipPath id="clip0">
<rect width="300" height="230.153" fill="white"/>
</clipPath>
</defs>
</svg>
