<svg width="300" height="236" viewBox="0 0 300 236" fill="none" xmlns="http://www.w3.org/2000/svg">
<g clip-path="url(#clip0)">
<path d="M240.229 126.092L252.278 119.136L245.322 107.086L233.272 114.043L240.229 126.092Z" fill="#FF6584"/>
<path d="M245.475 128.604L238.211 116.022L250.792 108.758L258.056 121.34L245.475 128.604ZM239.05 116.247L245.7 127.764L257.217 121.115L250.567 109.598L239.05 116.247Z" fill="#2F2E41"/>
<path d="M234.203 162.413C237.427 162.413 240.042 159.799 240.042 156.574C240.042 153.349 237.427 150.735 234.203 150.735C230.978 150.735 228.364 153.349 228.364 156.574C228.364 159.799 230.978 162.413 234.203 162.413Z" fill="#D0CDE1"/>
<path d="M238.505 162.72C237.289 162.72 236.101 162.36 235.09 161.684C234.08 161.009 233.292 160.049 232.827 158.926C232.361 157.803 232.24 156.567 232.477 155.375C232.714 154.183 233.299 153.087 234.159 152.228C235.019 151.368 236.114 150.783 237.306 150.546C238.498 150.309 239.734 150.43 240.857 150.896C241.98 151.361 242.94 152.148 243.615 153.159C244.291 154.17 244.651 155.358 244.651 156.574C244.649 158.203 244.001 159.766 242.849 160.918C241.697 162.07 240.134 162.718 238.505 162.72V162.72ZM238.505 151.042C237.411 151.042 236.341 151.367 235.432 151.975C234.522 152.582 233.813 153.446 233.394 154.457C232.976 155.468 232.866 156.58 233.08 157.653C233.293 158.726 233.82 159.712 234.594 160.485C235.367 161.259 236.353 161.786 237.426 161.999C238.499 162.213 239.611 162.103 240.622 161.684C241.633 161.266 242.496 160.557 243.104 159.647C243.712 158.737 244.037 157.668 244.037 156.574C244.035 155.107 243.451 153.701 242.414 152.664C241.377 151.627 239.971 151.044 238.505 151.042Z" fill="#2F2E41"/>
<path d="M80.8223 153.89C98.8128 153.89 113.397 139.306 113.397 121.315C113.397 103.325 98.8128 88.7404 80.8223 88.7404C62.8318 88.7404 48.2476 103.325 48.2476 121.315C48.2476 139.306 62.8318 153.89 80.8223 153.89Z" fill="#D0CDE1"/>
<path d="M72.0212 168.883L80.0342 173.848V140.284L71.0526 134.719C70.3101 134.259 69.7675 133.536 69.5324 132.695V132.695C70.3904 132.531 71.2787 132.696 72.0213 133.156L80.0342 138.121V125.106C80.0342 122.588 80.343 120.08 80.9536 117.637C81.5643 120.08 81.8731 122.588 81.8731 125.106V146.349L93.6944 139.024C94.6383 138.439 95.7305 138.138 96.8408 138.156C96.3629 139.158 95.6069 140.002 94.663 140.587L81.873 148.512V214.573H80.0341V176.012L71.0526 170.446C70.3101 169.986 69.7675 169.264 69.5323 168.422C70.3904 168.258 71.2787 168.423 72.0212 168.883V168.883Z" fill="#3F3D56"/>
<path d="M32.5747 156.656C50.5653 156.656 65.1495 142.071 65.1495 124.081C65.1495 106.09 50.5653 91.5061 32.5747 91.5061C14.5842 91.5061 0 106.09 0 124.081C0 142.071 14.5842 156.656 32.5747 156.656Z" fill="#D0CDE1"/>
<path d="M41.3758 171.649L33.3629 176.614V143.05L42.3444 137.485C43.087 137.025 43.6296 136.302 43.8647 135.461H43.8647H43.8647C43.0066 135.297 42.1183 135.461 41.3758 135.922L33.3629 140.887V127.872C33.3629 125.354 33.0541 122.846 32.4434 120.403C31.8328 122.846 31.524 125.354 31.524 127.872V149.115L19.7027 141.79C18.7587 141.205 17.6666 140.903 16.5563 140.922C17.0342 141.924 17.7901 142.768 18.734 143.353L31.524 151.278V217.339H33.3629V178.777L42.3444 173.212C43.087 172.752 43.6296 172.029 43.8647 171.188H43.8647H43.8647C43.0067 171.024 42.1184 171.189 41.3758 171.649V171.649Z" fill="#3F3D56"/>
<path d="M118.621 222.246C169.368 222.246 210.507 220.237 210.507 217.759C210.507 215.281 169.368 213.272 118.621 213.272C67.8744 213.272 26.736 215.281 26.736 217.759C26.736 220.237 67.8744 222.246 118.621 222.246Z" fill="#3F3D56"/>
<path d="M201.287 229.296C252.034 229.296 293.173 227.288 293.173 224.81C293.173 222.332 252.034 220.323 201.287 220.323C150.54 220.323 109.402 222.332 109.402 224.81C109.402 227.288 150.54 229.296 201.287 229.296Z" fill="#3F3D56"/>
<path d="M124.46 235.706C175.207 235.706 216.345 233.697 216.345 231.219C216.345 228.741 175.207 226.732 124.46 226.732C73.7133 226.732 32.5748 228.741 32.5748 231.219C32.5748 233.697 73.7133 235.706 124.46 235.706Z" fill="#3F3D56"/>
<path d="M143.821 211.121L141.977 220.033H149.659L148.737 211.121H143.821Z" fill="#FFB8B8"/>
<path d="M116.777 208.048L114.933 216.96H122.616L121.694 208.048H116.777Z" fill="#FFB8B8"/>
<path d="M127.994 129.838C127.994 129.838 130.453 140.594 132.911 143.974C135.37 147.355 141.208 157.188 141.208 157.188C141.208 157.188 142.438 169.481 147.047 166.715C151.657 163.949 144.589 155.037 144.589 155.037L135.677 135.369L133.833 128.609L127.994 129.838Z" fill="#FFB8B8"/>
<path d="M140.747 102.026C145.33 102.026 149.045 98.3117 149.045 93.7292C149.045 89.1467 145.33 85.4318 140.747 85.4318C136.165 85.4318 132.45 89.1467 132.45 93.7292C132.45 98.3117 136.165 102.026 140.747 102.026Z" fill="#FFB8B8"/>
<path d="M142.745 99.4144L138.75 108.326L130.453 106.175C130.453 106.175 136.906 99.1071 135.984 96.034L142.745 99.4144Z" fill="#FFB8B8"/>
<path d="M129.531 104.639C129.531 104.639 139.365 104.946 141.823 108.326C144.282 111.707 145.511 113.243 145.511 113.243C145.511 113.243 148.891 114.165 149.198 118.468C149.506 122.77 150.12 129.838 150.12 129.838C150.12 129.838 157.496 137.828 158.725 153.193C159.954 168.559 170.403 213.733 158.725 214.041C147.047 214.348 138.75 218.65 140.287 213.119C141.823 207.587 144.282 175.627 144.282 175.627C144.282 175.627 142.438 214.963 135.062 214.655C127.687 214.348 118.16 209.431 116.009 208.816C113.858 208.202 131.682 170.403 131.682 170.403L133.833 137.521C133.833 137.521 118.16 109.863 129.531 104.639Z" fill="#2F2E41"/>
<path d="M126.458 113.858L127.994 133.833H134.755L126.458 113.858Z" fill="#2F2E41"/>
<path d="M139.365 129.223C139.365 129.223 141.823 139.979 144.282 143.36C146.74 146.74 152.579 156.574 152.579 156.574C152.579 156.574 153.808 168.866 158.418 166.1C163.027 163.335 155.959 154.423 155.959 154.423L147.047 134.755L145.203 127.994L139.365 129.223Z" fill="#FFB8B8"/>
<path d="M144.589 218.343C144.589 218.343 142.438 215.884 141.823 217.114C141.208 218.343 138.443 224.489 142.438 224.489C146.433 224.489 163.949 223.567 161.798 219.879C159.647 216.192 156.574 217.114 156.574 217.114H152.579C152.579 217.114 149.704 213.904 149.144 215.048C148.584 216.192 147.662 218.036 147.662 218.036C147.662 218.036 146.125 219.572 144.589 218.343Z" fill="#2F2E41"/>
<path d="M116.446 212.935C116.446 212.935 115.91 209.713 114.741 210.435C113.572 211.157 107.986 214.928 111.383 217.03C114.781 219.132 130.162 227.563 130.273 223.296C130.384 219.028 127.285 218.195 127.285 218.195L123.888 216.093C123.888 216.093 123.131 211.851 122.053 212.529C120.976 213.207 119.222 214.29 119.222 214.29C119.222 214.29 117.106 214.789 116.446 212.935Z" fill="#2F2E41"/>
<path d="M135.677 106.482C135.677 106.482 133.526 110.785 135.677 118.468C137.828 126.15 139.365 132.604 139.365 132.604C139.365 132.604 144.282 129.531 146.433 130.453C148.584 131.375 143.03 109.972 143.03 109.972C143.03 109.972 139.672 102.795 135.677 106.482Z" fill="#2F2E41"/>
<path d="M150.749 91.1414C150.749 91.1414 153.724 80.7546 142.088 82.5364C142.088 82.5364 134.377 79.8721 130.263 89.3985L126.044 99.3987L127.435 98.8955L127.834 100.295L129.834 101.139L130.993 99.5075L131.097 101.719L147.877 106.014C147.877 106.014 140.933 100.338 142.045 92.2306L143.264 93.9882L150.749 91.1414Z" fill="#2F2E41"/>
<path d="M273.496 167.047H212.034V224.514H273.496V167.047Z" fill="#427AA1"/>
<path d="M249.218 165.486H236.311V226.359H249.218V165.486Z" fill="#3F3D56"/>
<path d="M56.2376 112.171C87.2127 112.171 112.323 87.0606 112.323 56.0855C112.323 25.1103 87.2127 0 56.2376 0C25.2624 0 0.1521 25.1103 0.1521 56.0855C0.1521 87.0606 25.2624 112.171 56.2376 112.171Z" fill="#D0CDE1"/>
<path d="M71.3907 137.985L57.5944 146.534V88.7459L73.0584 79.1633C74.3369 78.3711 75.2711 77.1275 75.6759 75.679L75.6759 75.679H75.6759C74.1986 75.3968 72.6692 75.6798 71.3907 76.472L57.5944 85.0211V62.6125C57.5944 58.2775 57.0628 53.9588 56.0114 49.7532C54.96 53.9588 54.4283 58.2775 54.4283 62.6125V99.1876L34.075 86.5752C32.4498 85.5682 30.5694 85.0494 28.6577 85.0807C29.4806 86.8065 30.7821 88.2594 32.4073 89.2665L54.4283 102.912V216.653H57.5944V150.259L73.0584 140.676C74.3369 139.884 75.2711 138.641 75.6759 137.192L75.6759 137.192H75.6759C74.1986 136.91 72.6692 137.193 71.3907 137.985Z" fill="#3F3D56"/>
<path d="M52.7903 225.114C52.4281 225.122 52.0781 225.247 51.793 225.471C50.9429 223.189 49.627 221.723 48.1487 221.723C46.6703 221.723 45.3544 223.189 44.5044 225.471C44.2192 225.247 43.8693 225.122 43.507 225.114C41.8275 225.114 40.4659 227.999 40.4659 231.557H55.8314C55.8314 227.999 54.4699 225.114 52.7903 225.114Z" fill="#3F3D56"/>
<path d="M85.365 208.827C85.0028 208.835 84.6528 208.96 84.3677 209.183C83.5176 206.902 82.2017 205.436 80.7234 205.436C79.245 205.436 77.9291 206.902 77.0791 209.183C76.7939 208.96 76.444 208.835 76.0817 208.827C74.4022 208.827 73.0406 211.711 73.0406 215.27H88.4061C88.4061 211.711 87.0446 208.827 85.365 208.827Z" fill="#3F3D56"/>
<path d="M46.9515 213.129C46.5892 213.137 46.2393 213.262 45.9541 213.486C45.1041 211.204 43.7882 209.738 42.3098 209.738C40.8314 209.738 39.5155 211.204 38.6655 213.486C38.3803 213.262 38.0304 213.137 37.6682 213.129C35.9886 213.129 34.6271 216.014 34.6271 219.572H49.9925C49.9925 216.014 48.631 213.129 46.9515 213.129Z" fill="#3F3D56"/>
<path d="M286.06 161.691C285.73 167.113 278.407 171.077 278.407 171.077C278.407 171.077 271.62 166.253 271.95 160.832C272.281 155.411 279.604 151.446 279.604 151.446C279.604 151.446 286.391 156.27 286.06 161.691Z" fill="#3F3D56"/>
<path d="M286.392 178.605C280.97 178.292 276.983 170.982 276.983 170.982C276.983 170.982 281.786 164.179 287.208 164.493C292.63 164.806 296.618 172.117 296.618 172.117C296.618 172.117 291.814 178.919 286.392 178.605Z" fill="#3F3D56"/>
<path opacity="0.1" d="M273.496 173.322V193.383L253.542 167.047H268.741L273.496 173.322Z" fill="black"/>
<path d="M300 200.887L255.46 142.1L245.417 149.709L289.957 208.496L300 200.887Z" fill="#427AA1"/>
<path d="M281.775 175.561L273.795 165.028L263.263 173.009L271.243 183.541L281.775 175.561Z" fill="#3F3D56"/>
<path d="M216.013 138.331L229.452 141.932L233.053 128.493L219.614 124.892L216.013 138.331Z" fill="#D0CDE1"/>
<path d="M223.751 143.941L209.718 140.181L213.478 126.148L227.511 129.908L223.751 143.941ZM210.471 139.747L223.317 143.188L226.758 130.343L213.913 126.901L210.471 139.747Z" fill="#2F2E41"/>
</g>
<defs>
<clipPath id="clip0">
<rect width="300" height="235.706" fill="white"/>
</clipPath>
</defs>
</svg>
