<svg width="300" height="262" viewBox="0 0 300 262" fill="none" xmlns="http://www.w3.org/2000/svg">
<g clip-path="url(#clip0)">
<path d="M135.042 261.153C180.708 261.153 217.729 259.292 217.729 256.998C217.729 254.703 180.708 252.843 135.042 252.843C89.3748 252.843 52.3546 254.703 52.3546 256.998C52.3546 259.292 89.3748 261.153 135.042 261.153Z" fill="#E6E6E6"/>
<path d="M41.0334 82.0669C63.6956 82.0669 82.0669 63.6956 82.0669 41.0334C82.0669 18.3713 63.6956 0 41.0334 0C18.3713 0 0 18.3713 0 41.0334C0 63.6956 18.3713 82.0669 41.0334 82.0669Z" fill="#E6E6E6"/>
<path d="M41.0334 75.2279C59.9185 75.2279 75.2279 59.9185 75.2279 41.0334C75.2279 22.1483 59.9185 6.83887 41.0334 6.83887C22.1483 6.83887 6.83887 22.1483 6.83887 41.0334C6.83887 59.9185 22.1483 75.2279 41.0334 75.2279Z" fill="#427AA1"/>
<path d="M150 82.0669C172.662 82.0669 191.033 63.6956 191.033 41.0334C191.033 18.3713 172.662 0 150 0C127.338 0 108.967 18.3713 108.967 41.0334C108.967 63.6956 127.338 82.0669 150 82.0669Z" fill="#E6E6E6"/>
<path d="M150 75.2279C168.885 75.2279 184.194 59.9185 184.194 41.0334C184.194 22.1483 168.885 6.83887 150 6.83887C131.115 6.83887 115.805 22.1483 115.805 41.0334C115.805 59.9185 131.115 75.2279 150 75.2279Z" fill="white"/>
<path d="M258.967 82.0669C281.629 82.0669 300 63.6956 300 41.0334C300 18.3713 281.629 0 258.967 0C236.304 0 217.933 18.3713 217.933 41.0334C217.933 63.6956 236.304 82.0669 258.967 82.0669Z" fill="#E6E6E6"/>
<path d="M258.967 75.2279C277.852 75.2279 293.161 59.9185 293.161 41.0334C293.161 22.1483 277.852 6.83887 258.967 6.83887C240.081 6.83887 224.772 22.1483 224.772 41.0334C224.772 59.9185 240.081 75.2279 258.967 75.2279Z" fill="white"/>
<path d="M37.8619 55.0829L27.9 42.2747L33.6931 37.7685L38.41 43.8333L54.3445 27.0129L59.6726 32.061L37.8619 55.0829Z" fill="white"/>
<path d="M113.744 49.4006C111.049 42.8921 110.612 36.7494 114.41 31.2931C114.478 29.4596 114.913 27.6585 115.69 25.9963C116.466 24.3342 117.569 22.845 118.932 21.6171C120.295 20.3891 121.891 19.4475 123.625 18.8479C125.359 18.2484 127.196 18.0032 129.026 18.1269L131.503 18.2942C134.06 18.4603 136.519 19.3429 138.598 20.8409C140.676 22.339 142.292 24.392 143.258 26.7651C147.877 38.2198 148.022 53.4438 146.87 69.7616H112.994C115.006 62.1303 116.039 54.9681 113.744 49.4006Z" fill="#2F2E41"/>
<path d="M69.9981 69.3695L61.0462 65.3483C60.1542 64.9476 59.3588 64.3598 58.7139 63.6249C58.0689 62.8899 57.5895 62.0248 57.3082 61.0884C57.0268 60.1519 56.9501 59.1659 57.0831 58.1972C57.2162 57.2284 57.5559 56.2997 58.0793 55.4737C58.6582 54.5604 59.4459 53.7977 60.3774 53.2486C61.309 52.6995 62.3577 52.3797 63.4371 52.3156C64.5166 52.2515 65.5958 52.4449 66.5858 52.8799C67.5758 53.3149 68.4482 53.979 69.131 54.8175L73.2667 59.8955L92.5475 76.9956L105.364 68.4427L111.173 78.2909L90.3825 90.8494L69.9981 69.3695Z" fill="#9F616A"/>
<path d="M110.239 81.1879L103.172 67.6644L130.692 55.4064L130.93 57.9932C131.149 60.3735 130.742 62.7698 129.75 64.9446C128.758 67.1193 127.214 68.9969 125.273 70.3913L110.239 81.1879Z" fill="#427AA1"/>
<path d="M145.902 54.5984L117.834 77.8271L116.221 75.5687L123.964 61.696L127.512 60.0829C128.363 56.4806 126.192 51.6497 123.318 46.5329L136.868 44.5972C137.522 48.9919 140.501 52.3404 145.902 54.5984Z" fill="#9F616A"/>
<path d="M179.777 214.941L175.099 221.877L137.836 200.745L142.998 175.259L179.777 214.941Z" fill="#2F2E41"/>
<path d="M130.577 248.009L122.996 244.622L121.06 155.901L113.801 107.669L142.03 102.346L147.837 114.928C162.108 134.501 141.305 194.474 130.577 248.009Z" fill="#2F2E41"/>
<path d="M131.188 246.804L132.744 250.19C133.036 250.826 133.176 251.521 133.152 252.221C133.128 252.921 132.941 253.605 132.606 254.22C132.271 254.835 131.797 255.363 131.222 255.762C130.647 256.161 129.986 256.421 129.293 256.52L108.726 259.458C107.715 259.603 106.686 259.376 105.829 258.82C104.972 258.264 104.345 257.417 104.064 256.435C103.806 255.531 103.856 254.566 104.208 253.694C104.559 252.822 105.192 252.092 106.005 251.619L123.283 242.971L131.188 246.804Z" fill="#2F2E41"/>
<path d="M178.814 213.63L182.53 213.357C183.228 213.306 183.929 213.419 184.576 213.686C185.223 213.953 185.799 214.368 186.258 214.897C186.716 215.426 187.045 216.054 187.218 216.733C187.391 217.411 187.403 218.121 187.253 218.805L182.81 239.1C182.591 240.098 182.019 240.983 181.198 241.591C180.378 242.2 179.365 242.49 178.347 242.41V242.41C177.409 242.335 176.523 241.95 175.829 241.316C175.135 240.682 174.672 239.834 174.514 238.907L172.458 219.695L178.814 213.63Z" fill="#2F2E41"/>
<path d="M128.158 51.0496C135.285 51.0496 141.062 45.2719 141.062 38.1448C141.062 31.0177 135.285 25.24 128.158 25.24C121.03 25.24 115.253 31.0177 115.253 38.1448C115.253 45.2719 121.03 51.0496 128.158 51.0496Z" fill="#9F616A"/>
<path d="M141.385 104.282L113.317 110.089L112.672 91.3772C108.608 87.0743 118.087 69.8409 121.383 61.6961L125.577 60.4056L118.479 73.3104L143.321 52.9854L148.16 54.2758L149.451 77.8271L141.385 104.282Z" fill="#427AA1"/>
<path d="M143.321 115.574L137.234 123.272C136.628 124.039 135.863 124.666 134.993 125.112C134.123 125.558 133.167 125.811 132.19 125.855C131.213 125.899 130.238 125.733 129.331 125.367C128.424 125.001 127.607 124.445 126.934 123.736V123.736C126.19 122.951 125.643 122.001 125.338 120.963C125.033 119.926 124.979 118.831 125.181 117.769C125.382 116.706 125.834 115.707 126.497 114.853C127.161 114 128.018 113.316 128.998 112.859L134.933 110.089L156.226 95.5712L151.064 81.0532L162.033 77.827L169.13 101.056L143.321 115.574Z" fill="#9F616A"/>
<path d="M144.45 67.1806H121.069C121.948 62.7614 124.303 58.7521 130.744 55.8775C135.44 46.9013 137.447 38.7596 130.744 33.3195C123.087 31.5556 120.122 28.3527 121.069 23.9495L134.775 21.6912C146.046 31.7294 146.175 48.8645 144.45 67.1806Z" fill="#2F2E41"/>
<path d="M164.614 79.4402L149.773 82.9891L144.611 53.308L147.178 53.709C149.54 54.078 151.764 55.0579 153.63 56.5515C155.497 58.0452 156.94 60.0006 157.818 62.2241L164.614 79.4402Z" fill="#427AA1"/>
</g>
<defs>
<clipPath id="clip0">
<rect width="300" height="261.153" fill="white"/>
</clipPath>
</defs>
</svg>
