<svg width="300" height="205" viewBox="0 0 300 205" fill="none" xmlns="http://www.w3.org/2000/svg">
<g clip-path="url(#clip0)">
<path d="M189.75 57.3298H152.538V49.2815C152.538 48.7709 152.336 48.2813 151.975 47.9202C151.614 47.5592 151.124 47.3564 150.613 47.3564H139.686V38.7833C139.686 38.4619 139.558 38.1536 139.331 37.9264C139.104 37.6991 138.796 37.5714 138.474 37.5714H124.398C124.077 37.5714 123.769 37.6991 123.541 37.9264C123.314 38.1536 123.186 38.4619 123.186 38.7833V47.3593H110.34C109.829 47.3593 109.34 47.5621 108.979 47.9231C108.617 48.2842 108.415 48.7738 108.415 49.2844V57.3327H72.9307C72.8274 57.3335 72.7286 57.375 72.6559 57.4484C72.5831 57.5217 72.5422 57.6208 72.5422 57.7241V164.564C72.5422 164.668 72.5831 164.767 72.6559 164.84C72.7286 164.913 72.8274 164.955 72.9307 164.956H96.5132C96.6171 164.956 96.7166 164.915 96.79 164.841C96.8634 164.768 96.9046 164.668 96.9046 164.564V150.19C96.9054 150.086 96.9469 149.987 97.0201 149.914C97.0934 149.841 97.1925 149.799 97.296 149.799H107.258C107.361 149.799 107.461 149.841 107.534 149.914C107.607 149.987 107.649 150.086 107.649 150.19V164.564C107.649 164.668 107.69 164.767 107.763 164.84C107.836 164.913 107.934 164.955 108.038 164.956H154.637C154.741 164.955 154.84 164.914 154.913 164.84C154.987 164.767 155.028 164.668 155.029 164.564V150.19C155.029 150.087 155.07 149.988 155.142 149.914C155.215 149.841 155.314 149.799 155.417 149.799H165.379C165.483 149.799 165.583 149.84 165.656 149.913C165.729 149.987 165.771 150.086 165.771 150.19V164.564C165.771 164.668 165.813 164.767 165.886 164.84C165.959 164.914 166.058 164.955 166.162 164.956H189.744C189.848 164.955 189.947 164.914 190.02 164.84C190.094 164.767 190.135 164.668 190.136 164.564V57.7212C190.135 57.6186 190.094 57.5204 190.022 57.4473C189.95 57.3742 189.853 57.3321 189.75 57.3298ZM92.6833 144.806C92.6833 144.909 92.6424 145.008 92.5695 145.081C92.4967 145.154 92.3979 145.195 92.2948 145.195H77.729C77.6777 145.195 77.6269 145.185 77.5794 145.166C77.532 145.146 77.4888 145.118 77.4524 145.082C77.416 145.046 77.3871 145.003 77.3674 144.955C77.3477 144.908 77.3376 144.857 77.3376 144.806V139.845C77.3376 139.794 77.3477 139.743 77.3674 139.696C77.3871 139.648 77.4159 139.605 77.4522 139.569C77.4886 139.532 77.5317 139.503 77.5792 139.484C77.6267 139.464 77.6776 139.454 77.729 139.454H92.3035C92.4068 139.455 92.5057 139.496 92.5784 139.57C92.6512 139.643 92.692 139.742 92.692 139.845L92.6833 144.806ZM92.6833 131.951C92.6837 132.002 92.674 132.053 92.6546 132.1C92.6352 132.148 92.6067 132.191 92.5706 132.227C92.5345 132.264 92.4915 132.293 92.4442 132.312C92.3969 132.332 92.3461 132.342 92.2948 132.342H77.729C77.6775 132.343 77.6264 132.333 77.5788 132.313C77.5311 132.294 77.4878 132.265 77.4514 132.228C77.415 132.192 77.3861 132.149 77.3666 132.101C77.3471 132.053 77.3372 132.002 77.3376 131.951V126.979C77.3372 126.927 77.3471 126.876 77.3666 126.828C77.3861 126.781 77.415 126.737 77.4514 126.701C77.4878 126.664 77.5311 126.636 77.5788 126.616C77.6264 126.597 77.6775 126.587 77.729 126.587H92.3035C92.3548 126.587 92.4056 126.597 92.4529 126.617C92.5002 126.637 92.5432 126.666 92.5793 126.702C92.6154 126.738 92.6439 126.781 92.6633 126.829C92.6826 126.876 92.6924 126.927 92.692 126.979L92.6833 131.951ZM92.6833 119.098C92.6833 119.202 92.6425 119.301 92.5697 119.374C92.4969 119.447 92.3981 119.489 92.2948 119.49H77.729C77.6776 119.49 77.6267 119.48 77.5792 119.46C77.5317 119.44 77.4886 119.411 77.4522 119.375C77.4159 119.339 77.3871 119.296 77.3674 119.248C77.3477 119.201 77.3376 119.15 77.3376 119.098V114.123C77.3376 114.072 77.3477 114.021 77.3674 113.973C77.3871 113.926 77.4159 113.883 77.4522 113.846C77.4886 113.81 77.5317 113.781 77.5792 113.762C77.6267 113.742 77.6776 113.732 77.729 113.732H92.3035C92.4068 113.733 92.5057 113.774 92.5784 113.848C92.6512 113.921 92.692 114.02 92.692 114.123L92.6833 119.098ZM92.6833 106.243C92.6837 106.294 92.674 106.345 92.6546 106.393C92.6352 106.44 92.6067 106.483 92.5706 106.52C92.5345 106.556 92.4915 106.585 92.4442 106.605C92.3969 106.624 92.3461 106.634 92.2948 106.634H77.729C77.6775 106.635 77.6264 106.625 77.5788 106.605C77.5311 106.586 77.4878 106.557 77.4514 106.521C77.415 106.484 77.3861 106.441 77.3666 106.393C77.3471 106.346 77.3372 106.295 77.3376 106.243V101.285C77.3372 101.234 77.3471 101.183 77.3666 101.135C77.3861 101.087 77.415 101.044 77.4514 101.008C77.4878 100.971 77.5311 100.942 77.5788 100.923C77.6264 100.903 77.6775 100.894 77.729 100.894H92.3035C92.3548 100.894 92.4056 100.904 92.4529 100.924C92.5002 100.944 92.5432 100.972 92.5793 101.009C92.6154 101.045 92.6439 101.088 92.6633 101.136C92.6826 101.183 92.6924 101.234 92.692 101.285L92.6833 106.243ZM92.6833 93.3907C92.6833 93.494 92.6425 93.5931 92.5697 93.6664C92.4969 93.7398 92.3981 93.7813 92.2948 93.7821H77.729C77.6776 93.7821 77.6267 93.772 77.5792 93.7523C77.5317 93.7326 77.4886 93.7038 77.4522 93.6675C77.4159 93.6311 77.3871 93.588 77.3674 93.5405C77.3477 93.493 77.3376 93.4421 77.3376 93.3907V88.4156C77.3376 88.3643 77.3477 88.3136 77.3674 88.2662C77.3871 88.2189 77.416 88.176 77.4524 88.1398C77.4888 88.1037 77.532 88.0752 77.5794 88.0558C77.6269 88.0365 77.6777 88.0267 77.729 88.0271H92.3035C92.4066 88.0271 92.5054 88.068 92.5782 88.1409C92.6511 88.2137 92.692 88.3125 92.692 88.4156L92.6833 93.3907ZM92.6833 80.5383C92.6833 80.6414 92.6424 80.7402 92.5695 80.813C92.4967 80.8859 92.3979 80.9268 92.2948 80.9268H77.729C77.6777 80.9272 77.6269 80.9174 77.5794 80.8981C77.532 80.8787 77.4888 80.8502 77.4524 80.8141C77.416 80.7779 77.3871 80.735 77.3674 80.6877C77.3477 80.6403 77.3376 80.5896 77.3376 80.5383V75.5632C77.3376 75.5118 77.3477 75.4609 77.3674 75.4134C77.3871 75.3659 77.4159 75.3228 77.4522 75.2864C77.4886 75.2501 77.5317 75.2213 77.5792 75.2016C77.6267 75.1819 77.6776 75.1718 77.729 75.1718H92.3035C92.4068 75.1726 92.5057 75.2141 92.5784 75.2875C92.6512 75.3608 92.692 75.4599 92.692 75.5632L92.6833 80.5383ZM92.6833 67.683C92.6837 67.7343 92.674 67.7851 92.6546 67.8326C92.6352 67.8801 92.6067 67.9232 92.5706 67.9596C92.5345 67.996 92.4915 68.0249 92.4442 68.0446C92.3969 68.0643 92.3461 68.0744 92.2948 68.0744H77.729C77.6775 68.0748 77.6264 68.065 77.5788 68.0454C77.5311 68.0259 77.4878 67.9971 77.4514 67.9607C77.415 67.9242 77.3861 67.8809 77.3666 67.8333C77.3471 67.7856 77.3372 67.7345 77.3376 67.683V62.7253C77.3372 62.6738 77.3471 62.6227 77.3666 62.5751C77.3861 62.5274 77.415 62.4841 77.4514 62.4477C77.4878 62.4113 77.5311 62.3825 77.5788 62.3629C77.6264 62.3434 77.6775 62.3335 77.729 62.3339H92.3035C92.3548 62.3339 92.4056 62.3441 92.4529 62.3638C92.5002 62.3835 92.5432 62.4123 92.5793 62.4487C92.6154 62.4851 92.6439 62.5283 92.6633 62.5758C92.6826 62.6232 92.6924 62.6741 92.692 62.7253L92.6833 67.683ZM127.216 144.803C127.216 144.854 127.206 144.905 127.186 144.952C127.167 145 127.138 145.043 127.102 145.079C127.065 145.115 127.022 145.144 126.974 145.163C126.927 145.182 126.876 145.192 126.825 145.192H112.259C112.156 145.192 112.057 145.151 111.983 145.078C111.91 145.005 111.868 144.906 111.868 144.803V139.845C111.868 139.742 111.91 139.643 111.983 139.569C112.056 139.496 112.156 139.455 112.259 139.454H126.825C126.876 139.454 126.927 139.464 126.975 139.484C127.022 139.503 127.065 139.532 127.102 139.569C127.138 139.605 127.167 139.648 127.187 139.696C127.206 139.743 127.216 139.794 127.216 139.845V144.803ZM127.216 131.948C127.217 131.999 127.207 132.05 127.187 132.098C127.168 132.146 127.139 132.189 127.103 132.225C127.066 132.262 127.023 132.291 126.975 132.31C126.928 132.33 126.876 132.34 126.825 132.339H112.259C112.155 132.339 112.056 132.298 111.982 132.225C111.909 132.151 111.868 132.052 111.868 131.948V126.979C111.868 126.875 111.909 126.775 111.982 126.702C112.056 126.628 112.155 126.587 112.259 126.587H126.825C126.876 126.587 126.928 126.597 126.975 126.616C127.023 126.636 127.066 126.664 127.103 126.701C127.139 126.737 127.168 126.781 127.187 126.828C127.207 126.876 127.217 126.927 127.216 126.979V131.948ZM127.216 119.095C127.216 119.147 127.206 119.198 127.187 119.245C127.167 119.293 127.138 119.336 127.102 119.372C127.065 119.409 127.022 119.437 126.975 119.457C126.927 119.477 126.876 119.487 126.825 119.487H112.259C112.156 119.486 112.056 119.445 111.983 119.371C111.91 119.298 111.868 119.199 111.868 119.095V114.123C111.868 114.02 111.91 113.921 111.983 113.847C112.056 113.774 112.156 113.733 112.259 113.732H126.825C126.876 113.732 126.927 113.742 126.975 113.762C127.022 113.781 127.065 113.81 127.102 113.846C127.138 113.883 127.167 113.926 127.187 113.973C127.206 114.021 127.216 114.072 127.216 114.123V119.095ZM127.216 106.24C127.217 106.292 127.207 106.343 127.187 106.39C127.168 106.438 127.139 106.481 127.103 106.518C127.066 106.554 127.023 106.583 126.975 106.603C126.928 106.622 126.876 106.632 126.825 106.632H112.259C112.155 106.632 112.056 106.59 111.982 106.517C111.909 106.444 111.868 106.344 111.868 106.24V101.285C111.868 101.182 111.909 101.082 111.982 101.009C112.056 100.935 112.155 100.894 112.259 100.894H126.825C126.876 100.894 126.928 100.903 126.975 100.923C127.023 100.942 127.066 100.971 127.103 101.008C127.139 101.044 127.168 101.087 127.187 101.135C127.207 101.183 127.217 101.234 127.216 101.285V106.24ZM127.216 93.3878C127.216 93.4392 127.206 93.4901 127.187 93.5376C127.167 93.5851 127.138 93.6282 127.102 93.6646C127.065 93.7009 127.022 93.7297 126.975 93.7494C126.927 93.7691 126.876 93.7792 126.825 93.7792H112.259C112.156 93.7784 112.056 93.737 111.983 93.6637C111.91 93.5905 111.868 93.4914 111.868 93.3878V88.4156C111.868 88.3123 111.91 88.2135 111.983 88.1407C112.057 88.0679 112.156 88.0271 112.259 88.0271H126.825C126.876 88.0267 126.927 88.0365 126.974 88.0558C127.022 88.0752 127.065 88.1037 127.102 88.1398C127.138 88.176 127.167 88.2189 127.186 88.2662C127.206 88.3136 127.216 88.3643 127.216 88.4156V93.3878ZM127.216 80.5354C127.216 80.5867 127.206 80.6374 127.186 80.6848C127.167 80.7321 127.138 80.775 127.102 80.8112C127.065 80.8473 127.022 80.8758 126.974 80.8952C126.927 80.9145 126.876 80.9243 126.825 80.9239H112.259C112.156 80.9239 112.057 80.8831 111.983 80.8103C111.91 80.7375 111.868 80.6387 111.868 80.5354V75.5632C111.868 75.4596 111.91 75.3605 111.983 75.2873C112.056 75.214 112.156 75.1726 112.259 75.1718H126.825C126.876 75.1718 126.927 75.1819 126.975 75.2016C127.022 75.2213 127.065 75.2501 127.102 75.2864C127.138 75.3228 127.167 75.3659 127.187 75.4134C127.206 75.4609 127.216 75.5118 127.216 75.5632V80.5354ZM127.216 67.6801C127.217 67.7316 127.207 67.7827 127.187 67.8304C127.168 67.878 127.139 67.9213 127.103 67.9578C127.066 67.9942 127.023 68.023 126.975 68.0425C126.928 68.0621 126.876 68.0719 126.825 68.0715H112.259C112.155 68.0715 112.056 68.0303 111.982 67.9569C111.909 67.8835 111.868 67.7839 111.868 67.6801V62.7253C111.868 62.6215 111.909 62.522 111.982 62.4486C112.056 62.3752 112.155 62.3339 112.259 62.3339H126.825C126.876 62.3335 126.928 62.3434 126.975 62.3629C127.023 62.3825 127.066 62.4113 127.103 62.4477C127.139 62.4841 127.168 62.5274 127.187 62.5751C127.207 62.6227 127.217 62.6738 127.216 62.7253V67.6801ZM150.813 144.8C150.813 144.851 150.803 144.902 150.783 144.95C150.764 144.997 150.735 145.04 150.699 145.076C150.662 145.112 150.619 145.141 150.572 145.16C150.524 145.179 150.473 145.189 150.422 145.189H135.856C135.753 145.189 135.654 145.148 135.58 145.075C135.507 145.002 135.465 144.904 135.465 144.8V139.845C135.465 139.742 135.507 139.643 135.58 139.569C135.653 139.496 135.753 139.455 135.856 139.454H150.422C150.526 139.454 150.625 139.495 150.699 139.569C150.772 139.642 150.813 139.742 150.813 139.845V144.8ZM150.813 131.945C150.814 131.996 150.804 132.048 150.784 132.095C150.765 132.143 150.736 132.186 150.7 132.223C150.663 132.259 150.62 132.288 150.572 132.307C150.525 132.327 150.473 132.337 150.422 132.336H135.856C135.752 132.336 135.653 132.295 135.579 132.222C135.506 132.148 135.465 132.049 135.465 131.945V126.979C135.465 126.875 135.506 126.775 135.579 126.702C135.653 126.628 135.752 126.587 135.856 126.587H150.422C150.473 126.587 150.525 126.597 150.572 126.616C150.62 126.636 150.663 126.664 150.7 126.701C150.736 126.737 150.765 126.781 150.784 126.828C150.804 126.876 150.814 126.927 150.813 126.979V131.945ZM150.813 119.093C150.813 119.196 150.772 119.296 150.699 119.369C150.625 119.443 150.526 119.484 150.422 119.484H135.856C135.753 119.483 135.653 119.442 135.58 119.368C135.507 119.295 135.465 119.196 135.465 119.093V114.123C135.465 114.02 135.507 113.921 135.58 113.847C135.653 113.774 135.753 113.733 135.856 113.732H150.422C150.526 113.732 150.625 113.773 150.699 113.846C150.772 113.92 150.813 114.019 150.813 114.123V119.093ZM150.813 106.237C150.814 106.289 150.804 106.34 150.784 106.388C150.765 106.435 150.736 106.478 150.7 106.515C150.663 106.551 150.62 106.58 150.572 106.6C150.525 106.619 150.473 106.629 150.422 106.629H135.856C135.752 106.629 135.653 106.587 135.579 106.514C135.506 106.441 135.465 106.341 135.465 106.237V101.285C135.465 101.182 135.506 101.082 135.579 101.009C135.653 100.935 135.752 100.894 135.856 100.894H150.422C150.473 100.894 150.525 100.903 150.572 100.923C150.62 100.942 150.663 100.971 150.7 101.008C150.736 101.044 150.765 101.087 150.784 101.135C150.804 101.183 150.814 101.234 150.813 101.285V106.237ZM150.813 93.3849C150.813 93.4887 150.772 93.5883 150.699 93.6617C150.625 93.7351 150.526 93.7763 150.422 93.7763H135.856C135.753 93.7755 135.653 93.7341 135.58 93.6608C135.507 93.5876 135.465 93.4885 135.465 93.3849V88.4156C135.465 88.3123 135.507 88.2135 135.58 88.1407C135.654 88.0679 135.753 88.0271 135.856 88.0271H150.422C150.473 88.0267 150.524 88.0365 150.572 88.0558C150.619 88.0752 150.662 88.1037 150.699 88.1398C150.735 88.176 150.764 88.2189 150.783 88.2662C150.803 88.3136 150.813 88.3643 150.813 88.4156V93.3849ZM150.813 80.5325C150.813 80.5838 150.803 80.6345 150.783 80.6819C150.764 80.7292 150.735 80.7721 150.699 80.8083C150.662 80.8444 150.619 80.8729 150.572 80.8923C150.524 80.9116 150.473 80.9214 150.422 80.921H135.856C135.753 80.921 135.654 80.8802 135.58 80.8074C135.507 80.7346 135.465 80.6358 135.465 80.5325V75.5632C135.465 75.4596 135.507 75.3605 135.58 75.2873C135.653 75.214 135.753 75.1726 135.856 75.1718H150.422C150.526 75.1718 150.625 75.213 150.699 75.2864C150.772 75.3598 150.813 75.4594 150.813 75.5632V80.5325ZM150.813 67.6772C150.814 67.7287 150.804 67.7798 150.784 67.8275C150.765 67.8751 150.736 67.9184 150.7 67.9549C150.663 67.9913 150.62 68.0201 150.572 68.0396C150.525 68.0592 150.473 68.069 150.422 68.0686H135.856C135.752 68.0686 135.653 68.0274 135.579 67.954C135.506 67.8806 135.465 67.781 135.465 67.6772V62.7253C135.465 62.6215 135.506 62.522 135.579 62.4486C135.653 62.3752 135.752 62.3339 135.856 62.3339H150.422C150.473 62.3335 150.525 62.3434 150.572 62.3629C150.62 62.3825 150.663 62.4113 150.7 62.4477C150.736 62.4841 150.765 62.5274 150.784 62.5751C150.804 62.6227 150.814 62.6738 150.813 62.7253V67.6772ZM185.346 144.797C185.346 144.901 185.304 144.999 185.231 145.072C185.157 145.145 185.058 145.186 184.955 145.186H170.389C170.338 145.186 170.287 145.176 170.24 145.157C170.192 145.138 170.149 145.109 170.112 145.073C170.076 145.037 170.047 144.994 170.028 144.947C170.008 144.899 169.998 144.849 169.998 144.797V139.845C169.998 139.742 170.039 139.642 170.112 139.569C170.186 139.495 170.285 139.454 170.389 139.454H184.955C185.058 139.455 185.158 139.496 185.231 139.569C185.304 139.643 185.346 139.742 185.346 139.845V144.797ZM185.346 131.942C185.346 132.046 185.305 132.145 185.232 132.219C185.158 132.292 185.059 132.333 184.955 132.333H170.389C170.338 132.334 170.287 132.324 170.239 132.304C170.191 132.285 170.148 132.256 170.111 132.22C170.075 132.183 170.046 132.14 170.027 132.092C170.007 132.045 169.997 131.994 169.998 131.942V126.979C169.997 126.927 170.007 126.876 170.027 126.828C170.046 126.781 170.075 126.737 170.111 126.701C170.148 126.664 170.191 126.636 170.239 126.616C170.287 126.597 170.338 126.587 170.389 126.587H184.955C185.059 126.587 185.158 126.628 185.232 126.702C185.305 126.775 185.346 126.875 185.346 126.979V131.942ZM185.346 119.09C185.346 119.193 185.304 119.292 185.231 119.366C185.158 119.439 185.058 119.48 184.955 119.481H170.389C170.285 119.481 170.186 119.44 170.112 119.366C170.039 119.293 169.998 119.193 169.998 119.09V114.123C169.998 114.019 170.039 113.92 170.112 113.846C170.186 113.773 170.285 113.732 170.389 113.732H184.955C185.058 113.733 185.158 113.774 185.231 113.847C185.304 113.921 185.346 114.02 185.346 114.123V119.09ZM185.346 106.234C185.346 106.338 185.305 106.438 185.232 106.511C185.158 106.585 185.059 106.626 184.955 106.626H170.389C170.288 106.625 170.19 106.585 170.118 106.513C170.046 106.442 170.005 106.345 170.003 106.243V101.285C170.003 101.234 170.013 101.183 170.032 101.135C170.052 101.087 170.081 101.044 170.117 101.008C170.154 100.971 170.197 100.942 170.245 100.923C170.292 100.903 170.343 100.894 170.395 100.894H184.961C185.065 100.894 185.164 100.935 185.237 101.009C185.311 101.082 185.352 101.182 185.352 101.285L185.346 106.234ZM185.346 93.382C185.346 93.4856 185.304 93.5847 185.231 93.6579C185.158 93.7312 185.058 93.7726 184.955 93.7734H170.389C170.285 93.7734 170.186 93.7322 170.112 93.6588C170.039 93.5854 169.998 93.4858 169.998 93.382V88.4156C169.998 88.3643 170.008 88.3136 170.028 88.2662C170.047 88.2189 170.076 88.176 170.112 88.1398C170.149 88.1037 170.192 88.0752 170.24 88.0558C170.287 88.0365 170.338 88.0267 170.389 88.0271H184.955C185.058 88.0271 185.157 88.0679 185.231 88.1407C185.304 88.2135 185.346 88.3123 185.346 88.4156V93.382ZM185.346 80.5296C185.346 80.6329 185.304 80.7317 185.231 80.8045C185.157 80.8773 185.058 80.9181 184.955 80.9181H170.389C170.338 80.9185 170.287 80.9087 170.24 80.8894C170.192 80.87 170.149 80.8415 170.112 80.8054C170.076 80.7692 170.047 80.7263 170.028 80.679C170.008 80.6316 169.998 80.5809 169.998 80.5296V75.5632C169.998 75.4594 170.039 75.3598 170.112 75.2864C170.186 75.213 170.285 75.1718 170.389 75.1718H184.955C185.058 75.1726 185.158 75.214 185.231 75.2873C185.304 75.3605 185.346 75.4596 185.346 75.5632V80.5296ZM185.346 67.6743C185.346 67.7257 185.336 67.7766 185.317 67.8241C185.297 67.8716 185.268 67.9148 185.232 67.9511C185.195 67.9874 185.152 68.0163 185.105 68.0359C185.057 68.0556 185.006 68.0657 184.955 68.0657H170.389C170.288 68.065 170.19 68.0245 170.118 67.953C170.046 67.8815 170.005 67.7846 170.003 67.683V62.7253C170.003 62.6738 170.013 62.6227 170.032 62.5751C170.052 62.5274 170.081 62.4841 170.117 62.4477C170.154 62.4113 170.197 62.3825 170.245 62.3629C170.292 62.3434 170.343 62.3335 170.395 62.3339H184.961C185.065 62.3339 185.164 62.3752 185.237 62.4486C185.311 62.522 185.352 62.6215 185.352 62.7253L185.346 67.6743Z" fill="#F2F2F2"/>
<path d="M77.4535 12.8263L72.9538 15.6792L75.6849 10.7098C74.9116 10.0928 73.9547 9.75107 72.9654 9.73859H72.893C72.5803 9.74327 72.2679 9.71999 71.9594 9.66901L70.4344 10.6345L71.0867 9.44577C70.0052 9.06869 69.0713 8.35808 68.4194 7.41629L65.6912 9.15584L67.4134 6.02175C65.8188 4.10535 63.6675 2.93115 61.2989 2.93115C58.4605 2.93115 55.9323 4.61852 54.3001 7.24814C53.8174 8.03772 53.1334 8.68474 52.3182 9.12288C51.5031 9.56102 50.5861 9.77452 49.6613 9.74149H49.5105C46.3764 9.74149 43.8367 13.296 43.8367 17.6767C43.8367 22.0575 46.388 25.6149 49.5221 25.6149C50.2106 25.6113 50.888 25.4412 51.4965 25.1191C52.5632 24.6001 53.73 24.3194 54.916 24.2964C56.102 24.2733 57.2788 24.5086 58.3648 24.9858C59.2833 25.3966 60.2782 25.609 61.2844 25.609C62.2906 25.609 63.2854 25.3966 64.2039 24.9858C65.2813 24.5185 66.4466 24.2886 67.6207 24.3116C68.7948 24.3346 69.9502 24.61 71.0084 25.1191C71.6117 25.4385 72.2828 25.6085 72.9654 25.6149C76.0995 25.6149 78.6393 22.0604 78.6393 17.6767C78.6579 15.986 78.2501 14.3178 77.4535 12.8263Z" fill="#F2F2F2"/>
<path opacity="0.03" d="M68.9732 24.4377C67.3361 24.126 65.6432 24.3097 64.1111 24.9654C63.1929 25.3753 62.1986 25.5872 61.193 25.5872C60.1875 25.5872 59.1932 25.3753 58.2749 24.9654C57.1886 24.4895 56.0119 24.255 54.8261 24.2781C53.6404 24.3011 52.4737 24.5811 51.4066 25.0988C50.7977 25.4225 50.119 25.5927 49.4293 25.5945C46.646 25.5945 44.3295 22.7909 43.8483 19.0915C44.4046 18.6853 44.8772 18.1753 45.2399 17.5897C46.8722 14.9601 49.4003 13.2727 52.2387 13.2727C55.0771 13.2727 57.5733 14.9398 59.1969 17.5433C59.6831 18.3296 60.3645 18.9768 61.1748 19.4218C61.9851 19.8669 62.8968 20.0946 63.8212 20.083H63.8937C66.1203 20.0686 68.0396 21.8458 68.9732 24.4377Z" fill="black"/>
<path d="M236.037 4.93742L233.787 6.36096L235.15 3.8821C234.763 3.57461 234.286 3.40428 233.793 3.39792H233.758C233.602 3.40099 233.445 3.38934 233.291 3.36313L232.531 3.84731L232.856 3.26745C232.318 3.07869 231.853 2.7258 231.525 2.25852L230.166 3.12829L231.035 1.5656C230.676 1.09395 230.216 0.708569 229.689 0.437679C229.162 0.166789 228.581 0.0172471 227.988 0C226.574 0 225.312 0.843682 224.509 2.15414C224.268 2.5484 223.925 2.87133 223.518 3.08988C223.11 3.30842 222.652 3.41473 222.19 3.39792H222.114C220.552 3.39792 219.285 5.16936 219.285 7.3554C219.285 9.54143 220.552 11.3129 222.114 11.3129C222.458 11.3118 222.796 11.2272 223.1 11.0664C223.632 10.808 224.214 10.6682 224.805 10.6567C225.396 10.6452 225.983 10.7622 226.524 10.9998C226.983 11.2044 227.479 11.3101 227.981 11.3101C228.483 11.3101 228.98 11.2044 229.438 10.9998C229.976 10.7671 230.557 10.6527 231.143 10.6642C231.728 10.6757 232.305 10.8129 232.833 11.0664C233.134 11.2237 233.468 11.3062 233.807 11.3071C235.37 11.3071 236.637 9.53564 236.637 7.3496C236.641 6.50804 236.435 5.67875 236.037 4.93742V4.93742Z" fill="#F2F2F2"/>
<path opacity="0.03" d="M231.807 10.7272C230.989 10.5736 230.145 10.6654 229.38 10.9911C228.924 11.194 228.43 11.2988 227.93 11.2984C227.431 11.2958 226.937 11.1892 226.481 10.9853C225.939 10.7477 225.352 10.6306 224.76 10.6421C224.168 10.6536 223.586 10.7935 223.054 11.052C222.75 11.213 222.412 11.2976 222.068 11.2984C220.679 11.2984 219.525 9.90095 219.285 8.05413C219.562 7.85163 219.799 7.5977 219.981 7.30612C220.792 5.99566 222.054 5.15198 223.46 5.15198C224.866 5.15198 226.121 5.98406 226.939 7.28293C227.182 7.67701 227.524 8.001 227.931 8.22311C228.338 8.44522 228.795 8.55783 229.258 8.5499H229.296C230.383 8.5499 231.34 9.43707 231.807 10.7272Z" fill="black"/>
<path d="M179.701 31.0104L177.063 32.6833L178.663 29.784C178.211 29.4185 177.65 29.2144 177.069 29.2042H177.025C176.842 29.2067 176.659 29.1931 176.477 29.1636L175.584 29.7434L175.967 29.0447C175.334 28.824 174.786 28.409 174.402 27.8589L172.801 28.8736L173.813 27.0355C173.387 26.4857 172.845 26.0376 172.225 25.7236C171.604 25.4097 170.922 25.2379 170.227 25.2206C168.563 25.2206 167.078 26.2121 166.121 27.7545C165.837 28.2141 165.436 28.5904 164.96 28.845C164.483 29.0996 163.948 29.2235 163.408 29.2042H163.318C161.48 29.2042 159.992 31.2887 159.992 33.843C159.992 36.3972 161.48 38.4962 163.318 38.4962C163.722 38.4955 164.12 38.396 164.477 38.2063C165.103 37.9024 165.787 37.738 166.482 37.7245C167.178 37.711 167.868 37.8487 168.505 38.128C169.043 38.3679 169.627 38.4919 170.217 38.4919C170.806 38.4919 171.39 38.3679 171.929 38.128C172.561 37.8542 173.244 37.7195 173.933 37.733C174.622 37.7465 175.3 37.908 175.921 38.2063C176.278 38.3947 176.676 38.4942 177.08 38.4962C178.919 38.4962 180.409 36.4146 180.409 33.843C180.413 32.8545 180.17 31.8806 179.701 31.0104V31.0104Z" fill="#F2F2F2"/>
<path opacity="0.03" d="M174.729 37.8207C173.769 37.6388 172.775 37.7468 171.876 38.1309C171.337 38.3708 170.754 38.4947 170.164 38.4947C169.574 38.4947 168.991 38.3708 168.452 38.1309C167.815 37.8515 167.126 37.7138 166.43 37.7273C165.735 37.7408 165.051 37.9052 164.425 38.2092C164.068 38.3985 163.67 38.498 163.266 38.4991C161.633 38.4991 160.274 36.8552 159.992 34.6866C160.317 34.4518 160.594 34.1564 160.807 33.8168C161.764 32.2744 163.248 31.2858 164.912 31.2858C166.577 31.2858 168.044 32.2628 169 33.7878C169.285 34.2493 169.684 34.6291 170.159 34.8903C170.634 35.1515 171.169 35.2851 171.711 35.278H171.743C173.053 35.2577 174.181 36.3015 174.729 37.8207Z" fill="black"/>
<path d="M274.632 165.025C274.632 165.524 274.632 166.023 274.6 166.516C274.526 168.434 274.295 170.343 273.91 172.224C272.005 181.534 266.505 188.77 259.596 190.907C258.222 191.335 256.791 191.553 255.352 191.553C244.703 191.553 236.072 179.667 236.072 165.025C236.072 150.384 244.703 138.497 255.352 138.497C265.339 138.497 273.556 148.952 274.533 162.344C274.6 163.225 274.632 164.121 274.632 165.025Z" fill="#36334A"/>
<path opacity="0.1" d="M274.6 166.519C274.526 168.437 274.295 170.346 273.91 172.227C272.005 181.537 266.505 188.773 259.596 190.91C254.247 188.448 250.278 179.223 250.278 168.218C250.278 155.327 255.728 144.879 262.455 144.879C268.1 144.879 272.848 152.248 274.226 162.248C274.417 163.619 274.542 165.052 274.6 166.519Z" fill="black"/>
<path d="M177.797 106.316C177.797 106.316 229.983 95.5883 257.526 105.446C257.526 105.446 261.585 107.475 257.526 110.954C257.526 110.954 261.365 115.013 254.662 116.463L228.032 118.101L177.797 112.984V106.316Z" fill="#3F3D56"/>
<path opacity="0.1" d="M186.929 107.664C186.929 107.664 231.61 98.4789 255.192 106.919C255.192 106.919 258.671 108.658 255.192 111.636C255.192 111.636 258.477 115.115 252.739 116.353L229.94 117.753L186.929 113.378V107.664Z" fill="black"/>
<path d="M237.811 123.711L234.332 116.753C234.332 116.753 235.857 109.713 223.46 107.643C222.773 104.573 219.659 102.257 215.922 102.257C212.275 102.257 209.225 104.46 208.436 107.417C206.656 107.571 204.76 107.78 202.73 108.055L199.895 123.259L199.541 122.551C199.541 122.551 201.341 114.236 185.114 113.022C185.999 111.949 186.486 110.605 186.494 109.215C186.494 105.53 183.053 102.547 178.811 102.547C174.57 102.547 171.128 105.53 171.128 109.215C171.139 110.729 171.714 112.184 172.74 113.297C171.223 113.442 169.623 113.627 167.939 113.854L164.75 130.959L179.536 132.989L203.02 129.51L200.941 125.349L214.327 127.187L237.811 123.711Z" fill="#427AA1"/>
<path opacity="0.2" d="M237.811 123.711L234.332 116.753C234.332 116.753 235.857 109.713 223.46 107.643C222.773 104.573 219.659 102.257 215.922 102.257C212.275 102.257 209.225 104.46 208.436 107.417C206.656 107.571 204.76 107.78 202.73 108.055L199.895 123.259L199.541 122.551C199.541 122.551 201.341 114.236 185.114 113.022C185.999 111.949 186.486 110.605 186.494 109.215C186.494 105.53 183.053 102.547 178.811 102.547C174.57 102.547 171.128 105.53 171.128 109.215C171.139 110.729 171.714 112.184 172.74 113.297C171.223 113.442 169.623 113.627 167.939 113.854L164.75 130.959L179.536 132.989L203.02 129.51L200.941 125.349L214.327 127.187L237.811 123.711Z" fill="black"/>
<path d="M187.938 108.31C187.938 108.31 185.619 95.2984 196.346 95.0085C207.073 94.7186 203.594 113.854 203.594 113.854C203.594 113.854 211.712 115.593 212.292 118.782C212.872 121.972 184.169 122.841 184.169 122.841L187.938 108.31Z" fill="#427AA1"/>
<path d="M169.099 177.057C169.099 192.423 157.676 204.89 143.585 204.89C129.495 204.89 118.072 192.423 118.072 177.057C118.072 161.691 129.637 146.76 143.73 146.76C157.824 146.76 169.099 161.685 169.099 177.057Z" fill="#36334A"/>
<path opacity="0.1" d="M143.585 201.698C154.794 201.698 163.88 191.185 163.88 178.217C163.88 165.249 154.794 154.736 143.585 154.736C132.377 154.736 123.291 165.249 123.291 178.217C123.291 191.185 132.377 201.698 143.585 201.698Z" fill="black"/>
<path d="M31.3844 202.278C45.4751 202.278 56.8978 189.817 56.8978 174.445C56.8978 159.073 45.4751 146.612 31.3844 146.612C17.2937 146.612 5.87097 159.073 5.87097 174.445C5.87097 189.817 17.2937 202.278 31.3844 202.278Z" fill="#36334A"/>
<path d="M74.8732 108.055C74.8732 108.055 62.9862 108.635 63.5661 115.013C64.1459 121.392 73.7135 116.753 73.7135 116.753L74.8732 108.055Z" fill="#36334A"/>
<path d="M173.772 118.681L178.666 86.0207C178.666 86.0207 179.826 81.9618 164.17 81.9618C164.17 81.9618 114.013 78.7726 101.256 83.9913C101.256 83.9913 86.4702 89.4998 65.8855 117.912C65.8855 117.912 171.743 120.42 173.772 118.681Z" fill="#3F3D56"/>
<path d="M171.998 84.5712L163.01 120.232L157.374 120.096L130.701 119.446L71.2114 117.997C71.0462 115.179 99.2182 86.0208 99.2182 86.0208L171.998 84.5712Z" fill="#36334A"/>
<path opacity="0.2" d="M130.71 119.446L133.139 110.053C133.139 110.053 130.82 97.0379 141.547 96.748C152.274 96.4581 148.795 115.593 148.795 115.593C148.795 115.593 156.188 117.179 157.366 120.096L130.71 119.446Z" fill="#427AA1"/>
<path d="M274.777 162.996C273.037 146.18 262.165 142.556 262.165 142.556C251.727 141.976 244.769 181.696 244.769 181.696L164.46 188.944C164.46 188.944 167.214 155.168 147.789 149.659C128.364 144.151 123.291 183.726 122.421 189.234C121.551 194.743 5.29113 188.654 2.10196 186.335C-1.08722 184.015 0.0724813 161.691 0.942257 159.952C1.81203 158.212 4.13143 150.384 4.13143 150.384C4.13143 148.517 5.0244 146.157 5.76661 144.519C6.28848 143.359 6.74076 142.556 6.74076 142.556C9.26021 128.269 22.3416 124.81 23.2201 124.581H23.2665C26.7456 121.102 58.9273 118.782 58.9273 118.782L71.1041 116.463L170.105 118.408L174.317 118.492L224.648 116.072L258.686 114.433C266.514 114.433 270.573 134.148 270.573 134.148C277.821 151.544 274.777 162.996 274.777 162.996Z" fill="#3F3D56"/>
<path opacity="0.1" d="M111.562 145.921C119.209 142.844 123.847 136.468 121.92 131.681C119.993 126.893 112.232 125.506 104.585 128.584C96.9382 131.661 92.3008 138.037 94.2273 142.824C96.1539 147.612 103.915 148.998 111.562 145.921Z" fill="black"/>
<path d="M110.983 144.76C118.63 141.683 123.267 135.307 121.341 130.52C119.414 125.732 111.653 124.345 104.006 127.423C96.3588 130.5 91.7213 136.876 93.6479 141.663C95.5744 146.451 103.335 147.837 110.983 144.76Z" fill="#F2F2F2"/>
<path opacity="0.1" d="M23.7999 125.172C23.6521 128.361 22.2227 132.386 19.6511 136.262C15.5139 142.501 9.84003 146.174 6.34644 145.099C6.8683 143.939 7.32058 143.136 7.32058 143.136C9.84003 128.848 22.9215 125.39 23.7999 125.172Z" fill="black"/>
<path d="M22.9302 124.592C22.7823 127.782 21.353 131.806 18.7813 135.682C14.6441 141.921 8.97028 145.595 5.47668 144.519C5.99855 143.359 6.45083 142.556 6.45083 142.556C8.97028 128.269 22.0517 124.81 22.9302 124.592Z" fill="#F2F2F2"/>
<path d="M63.5661 133.276H40.662L39.5023 130.087H67.3351L63.5661 133.276Z" fill="#36334A"/>
<path d="M58.3475 156.76H20.6572V167.777H58.3475V156.76Z" fill="#36334A"/>
<path opacity="0.1" d="M98.9369 178.504C101.819 178.504 104.156 176.167 104.156 173.285C104.156 170.403 101.819 168.067 98.9369 168.067C96.0547 168.067 93.7183 170.403 93.7183 173.285C93.7183 176.167 96.0547 178.504 98.9369 178.504Z" fill="black"/>
<path d="M98.3571 177.634C101.239 177.634 103.576 175.298 103.576 172.416C103.576 169.533 101.239 167.197 98.3571 167.197C95.4749 167.197 93.1384 169.533 93.1384 172.416C93.1384 175.298 95.4749 177.634 98.3571 177.634Z" fill="#F2F2F2"/>
<path opacity="0.1" d="M4.13142 174.735C5.57251 174.735 6.74075 172.269 6.74075 169.226C6.74075 166.184 5.57251 163.718 4.13142 163.718C2.69033 163.718 1.52209 166.184 1.52209 169.226C1.52209 172.269 2.69033 174.735 4.13142 174.735Z" fill="black"/>
<path d="M3.26167 174.445C4.70276 174.445 5.871 171.979 5.871 168.936C5.871 165.894 4.70276 163.428 3.26167 163.428C1.82058 163.428 0.652344 165.894 0.652344 168.936C0.652344 171.979 1.82058 174.445 3.26167 174.445Z" fill="#F2F2F2"/>
<path d="M233.172 145.745C229.983 155.603 229.693 170.969 229.693 170.969L228.533 175.028L171.998 181.406C171.998 181.406 172.288 152.993 173.158 139.657C173.77 130.249 171.499 122.285 170.105 118.408L174.317 118.492L224.648 116.072C233.056 121.966 236.034 136.894 233.172 145.745Z" fill="#36334A"/>
<path d="M220.282 127.973C220.084 127.986 219.891 128.041 219.716 128.133C219.54 128.225 219.385 128.353 219.262 128.508C219.139 128.663 219.049 128.843 218.999 129.035C218.949 129.227 218.94 129.427 218.972 129.623C218.999 129.787 219.066 129.941 219.168 130.073C219.269 130.205 219.4 130.31 219.552 130.379C220.488 130.846 226.721 129.8 229.084 129.382C229.434 129.325 229.755 129.154 229.998 128.896C230.24 128.637 230.39 128.305 230.424 127.953C230.453 127.541 230.302 127.19 229.699 127.19L220.282 127.973Z" fill="#F2F2F2"/>
<path d="M169.969 117.333C169.969 117.333 171.418 123.711 178.376 121.682L180.696 112.694L176.057 110.085L169.969 117.333Z" fill="#36334A"/>
<path d="M178.49 104.382C181.679 102.491 186.738 100.839 191.742 104.808C192.784 105.63 193.518 106.779 193.828 108.07C194.138 109.36 194.004 110.717 193.45 111.923C191.812 115.469 187.924 119.316 178.846 114.709C177.955 114.257 177.195 113.584 176.637 112.755L176.591 112.685C176.151 112.021 175.851 111.275 175.709 110.491C175.567 109.708 175.585 108.903 175.763 108.127C175.94 107.351 176.273 106.619 176.742 105.975C177.211 105.331 177.805 104.789 178.49 104.382V104.382Z" fill="#36334A"/>
<path d="M143.73 182.708C146.933 182.708 149.529 180.112 149.529 176.909C149.529 173.707 146.933 171.111 143.73 171.111C140.528 171.111 137.932 173.707 137.932 176.909C137.932 180.112 140.528 182.708 143.73 182.708Z" fill="#F2F2F2"/>
<path d="M263.469 172.271C265.231 172.271 266.659 169.675 266.659 166.472C266.659 163.27 265.231 160.674 263.469 160.674C261.708 160.674 260.28 163.27 260.28 166.472C260.28 169.675 261.708 172.271 263.469 172.271Z" fill="#F2F2F2"/>
<path d="M143.875 159.079H143.296C141.374 159.079 139.816 160.637 139.816 162.558V165.747C139.816 167.669 141.374 169.226 143.296 169.226H143.875C145.797 169.226 147.354 167.669 147.354 165.747V162.558C147.354 160.637 145.797 159.079 143.875 159.079Z" fill="#36334A"/>
<path d="M263.469 147.917C263.736 147.917 264 147.969 264.246 148.071C264.492 148.173 264.716 148.323 264.905 148.511C265.093 148.7 265.242 148.923 265.344 149.17C265.446 149.416 265.499 149.68 265.499 149.946V154.585C265.499 155.508 265.132 156.393 264.48 157.045C263.827 157.698 262.943 158.064 262.02 158.064C261.482 158.064 260.965 157.85 260.585 157.47C260.204 157.089 259.99 156.573 259.99 156.035V151.396C259.99 150.473 260.357 149.588 261.009 148.936C261.662 148.283 262.547 147.917 263.469 147.917V147.917Z" fill="#36334A"/>
<path d="M263.469 185.03C262.547 185.03 261.662 184.664 261.009 184.011C260.357 183.359 259.99 182.474 259.99 181.551V178.362C259.99 177.439 260.357 176.554 261.009 175.902C261.662 175.249 262.547 174.883 263.469 174.883V174.883C265.383 174.883 265.209 176.448 265.209 178.362V181.551C265.206 183.465 265.389 185.03 263.469 185.03Z" fill="#36334A"/>
<path d="M254.772 161.253C255.694 161.253 256.579 161.62 257.232 162.272C257.884 162.925 258.251 163.81 258.251 164.733V169.081C258.251 169.697 258.006 170.286 257.571 170.721C257.136 171.156 256.547 171.401 255.931 171.401C255.009 171.401 254.124 171.034 253.471 170.382C252.819 169.729 252.452 168.844 252.452 167.922V163.573C252.452 162.958 252.697 162.368 253.132 161.933C253.567 161.498 254.157 161.253 254.772 161.253Z" fill="#36334A"/>
<path d="M274.632 165.025C274.632 165.524 274.632 166.023 274.6 166.516C274.526 168.434 274.295 170.343 273.91 172.224C273.718 172.257 273.524 172.273 273.33 172.273C272.407 172.273 271.522 171.907 270.87 171.254C270.217 170.602 269.851 169.717 269.851 168.794V165.605C269.851 164.682 270.217 163.798 270.87 163.145C271.522 162.493 272.407 162.126 273.33 162.126C273.633 162.125 273.936 162.165 274.229 162.245C274.333 162.274 274.437 162.306 274.536 162.344C274.6 163.225 274.632 164.121 274.632 165.025Z" fill="#36334A"/>
<path d="M158.517 171.401H157.937C156.015 171.401 154.458 172.959 154.458 174.88V178.069C154.458 179.991 156.015 181.548 157.937 181.548H158.517C160.438 181.548 161.996 179.991 161.996 178.069V174.88C161.996 172.959 160.438 171.401 158.517 171.401Z" fill="#36334A"/>
<path d="M130.104 171.401H129.524C127.603 171.401 126.045 172.959 126.045 174.88V178.069C126.045 179.991 127.603 181.548 129.524 181.548H130.104C132.025 181.548 133.583 179.991 133.583 178.069V174.88C133.583 172.959 132.025 171.401 130.104 171.401Z" fill="#36334A"/>
<path d="M144.02 186.477H143.44C141.519 186.477 139.961 188.035 139.961 189.956V193.145C139.961 195.067 141.519 196.624 143.44 196.624H144.02C145.942 196.624 147.499 195.067 147.499 193.145V189.956C147.499 188.035 145.942 186.477 144.02 186.477Z" fill="#36334A"/>
<path d="M244.99 59.7275C244.988 60.2805 244.89 60.8289 244.7 61.3482C244.369 62.2709 243.765 63.0708 242.967 63.6407C242.17 64.2106 241.217 64.5234 240.237 64.5372C239.257 64.5511 238.296 64.2654 237.483 63.7183C236.669 63.1712 236.042 62.3888 235.686 61.4758C235.467 60.9218 235.355 60.3317 235.355 59.7362C235.355 58.4598 235.862 57.2356 236.765 56.3331C237.668 55.4305 238.892 54.9235 240.168 54.9235C241.445 54.9235 242.669 55.4305 243.571 56.3331C244.474 57.2356 244.981 58.4598 244.981 59.7362L244.99 59.7275Z" fill="#FF6584"/>
<path d="M236.332 60.9278C236.026 60.3751 235.831 59.7675 235.759 59.1396C235.687 58.5116 235.74 57.8757 235.914 57.2681C236.088 56.6604 236.379 56.093 236.773 55.5982C237.166 55.1033 237.653 54.6908 238.205 54.3841C238.742 54.08 239.333 53.8831 239.945 53.8043C239.282 53.7808 238.621 53.8946 238.004 54.1387C237.387 54.3827 236.827 54.7518 236.359 55.2225C235.892 55.6933 235.527 56.2557 235.287 56.8744C235.047 57.4931 234.938 58.1546 234.966 58.8176C234.994 59.4805 235.159 60.1305 235.45 60.7267C235.741 61.3229 236.153 61.8524 236.658 62.282C237.164 62.7116 237.753 63.0319 238.388 63.223C239.024 63.414 239.692 63.4716 240.351 63.3921C239.526 63.3607 238.723 63.1176 238.019 62.686C237.315 62.2543 236.734 61.6489 236.332 60.9278V60.9278Z" fill="#FF6584"/>
<path d="M247.054 66.4305H234.161V86.5426H247.054V66.4305Z" fill="#FF6584"/>
<path opacity="0.1" d="M247.344 65.8507H234.451V85.9628H247.344V65.8507Z" fill="black"/>
<path d="M213.782 139.399C213.782 139.399 212.408 143.168 209.143 143.696C205.879 144.223 203.994 145.064 203.994 145.064L211.729 150.048L215.855 149.532C215.855 149.532 216.368 144.203 218.087 143C219.807 141.797 213.782 139.399 213.782 139.399Z" fill="#FBBEBE"/>
<path d="M269.656 139.399C269.656 139.399 271.031 143.168 274.295 143.696C277.56 144.223 279.45 145.073 279.45 145.073L271.715 150.057L267.589 149.541C267.589 149.541 267.076 144.212 265.357 143.008C263.638 141.805 269.656 139.399 269.656 139.399Z" fill="#FBBEBE"/>
<path d="M232.013 106.052C232.013 106.052 229.948 107.084 229.261 109.145C229.261 109.145 225.492 110.348 223.416 113.616C223.416 113.616 220.839 116.364 220.494 117.741C220.149 119.119 216.197 127.379 216.197 127.379C216.197 127.379 212.246 140.269 210.181 141.646C210.181 141.646 216.713 140.269 217.916 146.801C217.916 146.801 219.465 146.801 221.184 140.785C222.903 134.769 227.026 127.379 227.026 127.379C227.026 127.379 228.403 122.221 229.606 121.363C230.809 120.504 232.7 116.55 234.419 117.579C236.138 118.608 247.483 117.408 247.483 117.408C247.483 117.408 254.186 120.502 254.357 122.566C254.528 124.63 255.734 124.798 255.905 126.517C256.076 128.237 262.437 141.817 262.437 141.817C262.437 141.817 263.641 145.586 263.983 146.456C263.983 146.456 267.766 137.346 272.75 142.501C272.75 142.501 272.579 139.063 271.031 136.992C269.483 134.922 262.779 118.771 262.779 118.771C262.779 118.771 262.092 116.364 261.405 115.677C260.718 114.99 255.389 109.49 253.502 109.49C253.502 109.49 252.47 106.91 251.267 106.568L232.013 106.052Z" fill="#696880"/>
<path d="M216.542 148.337C215.199 148.876 213.739 149.058 212.305 148.865C210.87 148.672 209.51 148.111 208.358 147.236C207.237 146.376 206.01 145.666 204.707 145.122C202.887 144.386 200.704 143.838 200.04 145.073C198.836 147.305 214.652 152.808 214.652 152.808C214.652 152.808 216.713 151.602 216.542 148.337Z" fill="#696880"/>
<path d="M266.905 148.337C268.248 148.876 269.708 149.058 271.143 148.865C272.577 148.672 273.937 148.111 275.09 147.236C276.21 146.376 277.437 145.666 278.74 145.122C280.561 144.386 282.744 143.838 283.408 145.073C284.611 147.305 268.795 152.808 268.795 152.808C268.795 152.808 266.734 151.602 266.905 148.337Z" fill="#696880"/>
<path d="M237.631 77.7781C237.565 78.3754 237.37 79.0219 236.86 79.3408C236.443 79.6017 235.915 79.5786 235.434 79.68C234.928 79.8054 234.459 80.0482 234.064 80.3887C233.67 80.7292 233.361 81.1579 233.164 81.6399C232.779 82.613 232.704 83.6813 232.949 84.6986C233.061 85.198 233.208 85.6891 233.387 86.1685C233.894 87.595 234.503 89.0069 235.442 90.1956C236.247 91.1373 237.151 91.9889 238.139 92.7354C238.75 93.234 239.382 93.7443 240.136 93.9791C240.648 94.1145 241.175 94.1837 241.705 94.185C242.357 94.2169 243.05 94.2372 243.615 93.9125C244.485 93.4109 244.746 92.3005 245.216 91.4133C245.619 90.6566 246.216 90.0188 246.59 89.2476C246.855 88.6427 247.049 88.0094 247.17 87.3601L247.973 83.7912C248.263 82.4981 248.53 81.0369 247.799 79.9265C247.748 79.8348 247.674 79.7579 247.584 79.7032C247.446 79.647 247.294 79.6309 247.147 79.6568C246.222 79.719 245.3 79.5083 244.494 79.0509C244.366 78.9875 244.253 78.8987 244.16 78.79C244.042 78.6063 243.971 78.3961 243.955 78.1782C243.876 77.7355 243.752 77.3021 243.583 76.8851C243.536 76.7363 243.448 76.6031 243.331 76.4996C243.209 76.4222 243.07 76.3755 242.925 76.3633C241.684 76.161 240.433 76.0293 239.177 75.969C238.762 75.9516 238.142 75.7863 237.86 76.1487C237.579 76.5111 237.678 77.3432 237.631 77.7781Z" fill="#FBBEBE"/>
<path opacity="0.1" d="M237.631 77.7781C237.565 78.3754 237.37 79.0219 236.86 79.3408C236.443 79.6017 235.915 79.5786 235.434 79.68C234.928 79.8054 234.459 80.0482 234.064 80.3887C233.67 80.7292 233.361 81.1579 233.164 81.6399C232.779 82.613 232.704 83.6813 232.949 84.6986C233.061 85.198 233.208 85.6891 233.387 86.1685C233.894 87.595 234.503 89.0069 235.442 90.1956C236.247 91.1373 237.151 91.9889 238.139 92.7354C238.75 93.234 239.382 93.7443 240.136 93.9791C240.648 94.1145 241.175 94.1837 241.705 94.185C242.357 94.2169 243.05 94.2372 243.615 93.9125C244.485 93.4109 244.746 92.3005 245.216 91.4133C245.619 90.6566 246.216 90.0188 246.59 89.2476C246.855 88.6427 247.049 88.0094 247.17 87.3601L247.973 83.7912C248.263 82.4981 248.53 81.0369 247.799 79.9265C247.748 79.8348 247.674 79.7579 247.584 79.7032C247.446 79.647 247.294 79.6309 247.147 79.6568C246.222 79.719 245.3 79.5083 244.494 79.0509C244.366 78.9875 244.253 78.8987 244.16 78.79C244.042 78.6063 243.971 78.3961 243.955 78.1782C243.876 77.7355 243.752 77.3021 243.583 76.8851C243.536 76.7363 243.448 76.6031 243.331 76.4996C243.209 76.4222 243.07 76.3755 242.925 76.3633C241.684 76.161 240.433 76.0293 239.177 75.969C238.762 75.9516 238.142 75.7863 237.86 76.1487C237.579 76.5111 237.678 77.3432 237.631 77.7781Z" fill="black"/>
<path d="M235.303 79.8309C234.631 79.6308 233.935 79.5207 233.233 79.5033C231.575 79.4627 229.803 80.0367 228.844 81.3907C228.194 82.3668 227.956 83.5595 228.18 84.7103C228.412 85.8526 228.931 86.9172 229.687 87.8038C230.125 88.269 230.514 88.7781 230.847 89.323C231.305 90.1928 231.317 91.2307 231.427 92.2223C231.717 94.5736 232.72 96.7886 233.12 99.1254C233.52 101.462 233.172 104.176 231.325 105.666C231.015 105.915 230.641 106.176 230.615 106.574C230.572 107.209 231.398 107.481 232.033 107.539C233.932 107.722 235.88 107.899 237.724 107.409C238.489 107.206 239.223 106.89 240 106.745C241.974 106.376 243.957 107.13 245.929 107.496C247.358 107.73 248.804 107.847 250.252 107.846C250.59 107.876 250.93 107.832 251.249 107.716C251.407 107.654 251.54 107.544 251.631 107.401C251.722 107.258 251.765 107.09 251.754 106.921C251.69 106.702 251.573 106.503 251.411 106.342C250.414 105.107 250.11 103.471 249.837 101.909L248.938 96.6465C248.448 93.8401 247.993 90.793 249.321 88.2706C250.278 86.4586 252.035 85.1829 253.044 83.3999C253.4 82.8601 253.562 82.2146 253.502 81.5704C253.351 80.6746 252.542 80.0338 251.713 79.6569C250.12 78.9445 248.312 78.879 246.671 79.4743C246.7 80.7296 246.381 81.9995 246.172 83.2433L245.822 85.2728C245.644 86.4687 245.382 87.6506 245.039 88.8099C244.911 89.2727 244.698 89.7074 244.41 90.0913C244.1 90.4356 243.722 90.7111 243.299 90.9002C242.383 91.3478 241.376 91.577 240.357 91.57C239.915 91.5789 239.476 91.5122 239.058 91.3728C238.368 91.1235 237.808 90.6103 237.269 90.1116C237.092 89.961 236.933 89.7897 236.796 89.6014C236.654 89.3592 236.546 89.0988 236.474 88.8273C236.24 88.1184 236.056 87.3937 235.924 86.6586C235.834 86.0962 235.808 85.525 235.767 84.9568C235.639 83.31 235.642 81.4458 235.303 79.8309Z" fill="#F2F2F2"/>
<path d="M233.558 113.1C233.558 113.1 232.871 122.209 237.167 123.757C241.464 125.306 237.683 116.193 237.683 116.193L236.309 113.442L233.558 113.1Z" fill="#FBBEBE"/>
<path d="M248.17 113.1C248.17 113.1 248.857 122.209 244.56 123.757C240.264 125.306 244.044 116.193 244.044 116.193L245.419 113.442L248.17 113.1Z" fill="#FBBEBE"/>
<path opacity="0.1" d="M229.777 82.6751L228.403 84.9105C228.403 84.9105 229.606 92.6457 229.777 94.0199C229.924 95.0096 230.154 95.9852 230.464 96.9365C230.464 96.9365 230.635 101.062 230.635 102.607C230.635 104.153 231.505 106.733 231.505 106.733C231.626 108.194 231.918 109.637 232.375 111.03C233.062 112.923 233.752 115.155 233.752 115.155C233.752 115.155 234.622 112.749 238.049 116.359C238.432 115.969 238.647 115.444 238.647 114.897C238.647 114.351 238.432 113.826 238.049 113.436C238.049 113.436 237.017 108.797 237.017 106.391C237.017 103.985 235.126 92.4746 235.126 92.4746C235.126 92.4746 233.903 79.4077 229.777 82.6751Z" fill="black"/>
<path d="M229.438 82.504L228.064 84.7364C228.064 84.7364 229.267 92.4716 229.438 93.8488C229.587 94.8394 229.817 95.816 230.128 96.7683C230.128 96.7683 230.308 100.894 230.308 102.445C230.308 103.996 231.178 106.571 231.178 106.571C231.299 108.032 231.591 109.474 232.047 110.867C232.734 112.758 233.422 114.993 233.422 114.993C233.422 114.993 234.291 112.587 237.718 116.196C238.102 115.807 238.317 115.282 238.317 114.735C238.317 114.188 238.102 113.663 237.718 113.274C237.718 113.274 236.686 108.635 236.686 106.226C236.686 103.816 234.796 92.3093 234.796 92.3093C234.796 92.3093 233.558 79.2511 229.438 82.504Z" fill="#F2F2F2"/>
<path opacity="0.1" d="M252.122 81.2979L252.991 82.3214C252.991 82.3214 254.006 88.1749 251.771 95.5651L251.084 102.271C251.084 102.271 249.881 107.942 249.707 109.319C249.533 110.696 249.536 110.864 249.193 111.381C249.088 111.501 249.03 111.655 249.03 111.815C249.03 111.975 249.088 112.13 249.193 112.25L248.161 116.034C248.161 116.034 246.613 114.144 243.523 116.55C243.523 116.55 242.653 115.173 243.351 113.97C244.05 112.766 244.039 112.25 243.868 111.908C243.697 111.566 244.555 109.844 244.555 109.502C244.555 109.16 245.758 101.251 245.758 101.251C245.758 101.251 246.274 93.5154 246.79 90.9379C247.106 89.352 247.097 85.815 247.045 83.3274C246.99 80.7384 250.124 79.3322 251.974 81.1559C252.023 81.1936 252.072 81.2457 252.122 81.2979Z" fill="black"/>
<path d="M252.632 80.9557L253.502 81.9792C253.502 81.9792 254.514 87.8299 252.281 95.223L251.594 101.926C251.594 101.926 250.391 107.6 250.217 108.974C250.043 110.348 250.046 110.522 249.701 111.035C249.597 111.157 249.54 111.311 249.54 111.47C249.54 111.63 249.597 111.784 249.701 111.905L248.672 115.674C248.672 115.674 247.123 113.784 244.033 116.19C244.033 116.19 243.163 114.816 243.862 113.613C244.56 112.41 244.549 111.894 244.375 111.549C244.201 111.204 245.065 109.487 245.065 109.142C245.065 108.797 246.268 100.891 246.268 100.891C246.268 100.891 246.784 93.1558 247.297 90.5784C247.81 88.0009 247.471 80.2657 247.471 80.2657C247.471 80.2657 250.231 78.3812 252.632 80.9557Z" fill="#F2F2F2"/>
<path d="M241.122 78.5495C244.92 78.5495 247.999 75.4705 247.999 71.6724C247.999 67.8744 244.92 64.7954 241.122 64.7954C237.324 64.7954 234.245 67.8744 234.245 71.6724C234.245 75.4705 237.324 78.5495 241.122 78.5495Z" fill="#FBBEBE"/>
<path opacity="0.1" d="M244.708 61.3482C244.378 62.2709 243.773 63.0708 242.976 63.6407C242.178 64.2106 241.226 64.5234 240.246 64.5372C239.266 64.5511 238.305 64.2654 237.491 63.7183C236.678 63.1712 236.051 62.3888 235.695 61.4757C238.377 60.3972 241.122 61.3598 241.122 61.3598C242.485 60.8756 243.679 60.922 244.708 61.3482Z" fill="black"/>
<path d="M241.122 61.7048C241.122 61.7048 227.887 57.066 231.151 79.5816C231.151 79.5816 234.074 81.4719 236.309 80.2687C236.309 80.2687 234.761 64.6128 240.777 65.3144C246.793 66.016 245.764 79.9237 245.764 79.9237C245.764 79.9237 249.202 80.9559 250.231 79.0539C251.261 77.152 249.889 58.6084 241.122 61.7048Z" fill="#FF6584"/>
<path opacity="0.1" d="M240.777 64.2822C236.648 63.8096 236.083 71.0259 236.138 75.6038C236.19 71.0549 236.956 64.8766 240.777 65.3144C245.074 65.8043 245.775 73.0409 245.827 77.1404C245.874 73.3801 245.462 64.8186 240.777 64.2822Z" fill="black"/>
<path opacity="0.1" d="M231.152 78.5494C230.853 76.5735 230.682 74.5806 230.638 72.5828C230.624 74.9217 230.796 77.2582 231.152 79.57C231.152 79.57 234.074 81.4603 236.309 80.2571C236.309 80.2571 236.272 79.886 236.231 79.2626C234.007 80.4107 231.152 78.5494 231.152 78.5494Z" fill="black"/>
<path opacity="0.1" d="M250.232 78.0334C249.272 79.7933 246.225 79.0221 245.81 78.9032C245.79 79.5411 245.764 79.9209 245.764 79.9209C245.764 79.9209 249.202 80.953 250.232 79.0511C250.446 78.6597 250.556 77.5609 250.521 76.0909C250.492 77.0506 250.391 77.7406 250.232 78.0334Z" fill="black"/>
<path d="M285.478 189.289C286.272 187.819 285.37 186.016 284.335 184.705C283.3 183.395 282.036 182.029 282.062 180.357C282.103 177.956 284.651 176.538 286.701 175.266C288.213 174.32 289.608 173.199 290.856 171.926C291.377 171.435 291.809 170.857 292.132 170.218C292.552 169.279 292.54 168.209 292.514 167.18C292.427 163.753 292.258 160.329 292.007 156.907" stroke="#3F3D56" stroke-width="4" stroke-miterlimit="10"/>
<path d="M295.863 156.722C295.834 156.094 295.648 155.484 295.321 154.947C294.994 154.411 294.537 153.965 293.993 153.652L293.155 155.31L293.181 153.301C292.78 153.184 292.363 153.134 291.946 153.153C291.206 153.187 290.493 153.441 289.897 153.881C289.301 154.32 288.849 154.927 288.597 155.624C288.346 156.321 288.307 157.076 288.485 157.795C288.663 158.514 289.051 159.165 289.598 159.663C290.146 160.162 290.829 160.488 291.561 160.598C292.294 160.709 293.043 160.6 293.713 160.285C294.384 159.97 294.946 159.464 295.328 158.83C295.711 158.195 295.897 157.462 295.863 156.722Z" fill="#427AA1"/>
<path d="M289.183 182.076C288.805 182.809 288.196 183.397 287.45 183.748C286.704 184.1 285.863 184.196 285.058 184.02C284.252 183.845 283.526 183.409 282.994 182.78C282.461 182.15 282.151 181.363 282.112 180.539C282.085 180.02 282.168 179.502 282.355 179.017C282.629 178.307 283.112 177.698 283.741 177.269C284.369 176.841 285.114 176.613 285.874 176.618C286.635 176.622 287.376 176.858 288 177.294C288.624 177.73 289.1 178.345 289.365 179.058L287.026 180.963L289.597 180.365C289.598 180.961 289.456 181.547 289.183 182.076V182.076Z" fill="#427AA1"/>
<path d="M287.333 174.802C286.842 174.825 286.35 174.751 285.887 174.584C285.424 174.417 284.999 174.16 284.635 173.829C284.271 173.497 283.977 173.097 283.767 172.652C283.558 172.207 283.439 171.724 283.416 171.233C283.388 170.647 283.499 170.062 283.741 169.528C283.966 169.028 284.298 168.583 284.713 168.224C285.128 167.866 285.617 167.602 286.144 167.452L286.127 168.997L286.974 167.316C287.966 167.27 288.936 167.62 289.67 168.29C290.404 168.959 290.842 169.892 290.888 170.885C290.91 171.317 290.856 171.75 290.728 172.163C290.502 172.898 290.054 173.546 289.447 174.018C288.839 174.49 288.101 174.764 287.333 174.802V174.802Z" fill="#427AA1"/>
<path d="M296.428 168.751C295.937 168.774 295.445 168.7 294.982 168.533C294.519 168.366 294.094 168.109 293.73 167.778C293.366 167.447 293.072 167.047 292.862 166.601C292.653 166.156 292.534 165.673 292.511 165.182C292.48 164.57 292.601 163.96 292.865 163.408C293.084 162.943 293.397 162.528 293.783 162.189C294.17 161.85 294.622 161.595 295.111 161.438C295.601 161.282 296.118 161.228 296.629 161.28C297.14 161.332 297.635 161.489 298.084 161.741L297.423 163.553L298.782 162.245C299.512 162.913 299.948 163.843 299.994 164.831C300.011 165.178 299.979 165.525 299.899 165.863C299.713 166.656 299.273 167.368 298.647 167.889C298.021 168.41 297.242 168.712 296.428 168.751V168.751Z" fill="#427AA1"/>
<path opacity="0.1" d="M295.361 157.719C294.491 157.815 293.654 158.082 292.787 158.137C291.92 158.192 290.966 157.983 290.418 157.308C290.163 156.916 289.931 156.509 289.725 156.09C289.488 155.721 289.165 155.415 288.783 155.2C288.487 155.777 288.348 156.422 288.38 157.07C288.421 157.98 288.791 158.843 289.423 159.499C290.054 160.156 290.903 160.559 291.811 160.635C292.718 160.711 293.622 160.453 294.353 159.911C295.085 159.368 295.594 158.578 295.784 157.687C295.642 157.693 295.5 157.705 295.361 157.719Z" fill="black"/>
<path opacity="0.1" d="M296.428 168.751C295.937 168.774 295.445 168.7 294.982 168.533C294.519 168.366 294.094 168.109 293.73 167.778C293.366 167.447 293.072 167.047 292.862 166.601C292.653 166.156 292.534 165.674 292.511 165.182C292.48 164.57 292.601 163.96 292.865 163.408C293.162 163.608 293.418 163.864 293.619 164.161C293.885 164.564 294.045 165.031 294.361 165.399C294.941 166.084 295.941 166.31 296.846 166.269C297.75 166.229 298.62 165.979 299.522 165.889C299.646 165.889 299.774 165.869 299.898 165.866C299.712 166.659 299.273 167.369 298.646 167.89C298.02 168.41 297.242 168.713 296.428 168.751V168.751Z" fill="black"/>
<path opacity="0.1" d="M287.333 174.802C286.842 174.825 286.35 174.751 285.887 174.584C285.424 174.417 284.999 174.16 284.635 173.829C284.271 173.497 283.977 173.097 283.767 172.652C283.558 172.207 283.439 171.724 283.416 171.233C283.388 170.647 283.499 170.062 283.741 169.528C284.045 169.733 284.31 169.99 284.524 170.288C284.814 170.699 284.996 171.157 285.336 171.552C285.968 172.256 287.032 172.503 287.988 172.482C288.945 172.462 289.809 172.233 290.731 172.163C290.504 172.899 290.057 173.547 289.449 174.019C288.841 174.491 288.102 174.764 287.333 174.802V174.802Z" fill="black"/>
<path opacity="0.1" d="M289.183 182.076C288.805 182.809 288.196 183.397 287.45 183.748C286.704 184.1 285.863 184.195 285.058 184.02C284.252 183.845 283.526 183.409 282.994 182.78C282.461 182.15 282.151 181.363 282.112 180.539C282.085 180.02 282.168 179.502 282.355 179.017C282.663 179.22 282.939 179.467 283.176 179.751C283.532 180.186 283.755 180.678 284.179 181.081C284.944 181.835 286.182 182.145 287.281 182.174C287.916 182.178 288.551 182.145 289.183 182.076V182.076Z" fill="black"/>
<path d="M279.83 187.596C279.83 187.596 282.784 187.506 283.677 186.871C284.57 186.236 288.223 185.48 288.447 186.497C288.67 187.515 292.888 191.559 289.551 191.585C286.214 191.611 281.796 191.066 280.906 190.524C280.015 189.982 279.83 187.596 279.83 187.596Z" fill="#656380"/>
<path opacity="0.2" d="M289.609 191.232C286.272 191.258 281.854 190.71 280.964 190.171C280.288 189.756 280.018 188.277 279.929 187.593H279.83C279.83 187.593 280.015 189.979 280.906 190.521C281.796 191.064 286.214 191.609 289.551 191.583C290.514 191.583 290.847 191.232 290.83 190.713C290.696 191.035 290.322 191.226 289.609 191.232Z" fill="black"/>
</g>
<defs>
<clipPath id="clip0">
<rect width="300" height="204.887" fill="white"/>
</clipPath>
</defs>
</svg>
