<svg width="117" height="117" viewBox="0 0 117 117" fill="none" xmlns="http://www.w3.org/2000/svg">
<g clip-path="url(#clip0)">
<path d="M79.8292 107.058H47.7204C46.5865 107.058 45.667 107.977 45.667 109.111V113.798C45.667 114.932 46.5861 115.851 47.72 115.851L79.8287 115.857C80.9631 115.858 81.8821 114.938 81.8821 113.804V109.111C81.8826 107.977 80.9631 107.058 79.8292 107.058Z" fill="#1387CE"/>
<path d="M47.8457 101.907V107.058H79.1597V101.907C79.1597 101.291 78.6601 100.791 78.044 100.791H48.9613C48.3452 100.791 47.8457 101.291 47.8457 101.907Z" fill="#C5E3FF"/>
<path d="M50.6721 48.0774C50.6721 48.1103 50.6524 70.6653 50.6524 70.6653C50.6524 68.5419 48.9148 66.8043 46.7914 66.8043C44.6681 66.8043 42.9304 68.5414 42.9304 70.6653V75.4796C42.9304 79.0929 44.0346 82.6198 46.0944 85.5887C47.5908 88.181 50.4513 90.2591 50.7114 96.4025L50.7731 100.792H76.0131V92.2527C76.0131 88.665 77.1296 86.5114 77.6579 84.5992C78.1351 83.1248 78.3778 81.5847 78.3778 80.0349C78.3778 77.1112 78.3778 64.8596 78.3778 62.3331C78.3778 60.4191 76.8261 58.8675 74.9121 58.8675C72.998 58.8675 71.4464 60.4191 71.4464 62.3331C71.4464 60.4191 69.8948 58.8675 67.9808 58.8675C66.0667 58.8675 64.5151 60.4191 64.5151 62.3331C64.5151 60.4191 62.9635 58.8675 61.0494 58.8675C59.1354 58.8675 57.5838 60.4191 57.5838 62.3331V48.0774C57.5838 46.1688 56.0362 44.6213 54.1277 44.6213C52.2196 44.6213 50.6721 46.1688 50.6721 48.0774Z" fill="#F9C1A8"/>
<path d="M83.973 27.5923C83.3423 26.4931 81.9397 26.1129 80.8405 26.7436L47.198 46.0404C46.0989 46.6711 45.7186 48.0732 46.3493 49.1729C46.98 50.2725 48.3826 50.6523 49.4818 50.0216L50.6715 49.3392C50.6719 48.5472 50.6724 48.0815 50.6724 48.0769C50.6724 46.1683 52.2194 44.6208 54.1284 44.6208C55.1855 44.6208 56.1302 45.0966 56.7641 45.8443L83.1243 30.7243C84.2235 30.0941 84.6033 28.6915 83.973 27.5923Z" fill="#FE7F2D"/>
<path d="M75.9656 25.6371C73.9743 24.729 72.3632 23.2235 71.3454 21.4489L65.6403 11.5025C61.9169 5.01086 53.736 2.72341 47.2302 6.17948C40.3445 9.82477 37.8336 18.4553 41.7166 25.2249L47.4217 35.1713C48.4395 36.9455 48.9258 39.0962 48.7041 41.2735L48.2823 45.4184L79.7557 27.3656L75.9656 25.6371Z" fill="#FE7F2D"/>
<path d="M43.5678 8.99302C44.5943 7.88609 45.8182 6.92678 47.23 6.17953C48.4013 5.55752 49.6271 5.12425 50.8711 4.86557L49.9452 3.25088C48.7926 1.24177 46.2291 0.547082 44.2195 1.69971C42.2104 2.85235 41.5157 5.41584 42.6683 7.4254L43.5678 8.99302Z" fill="#FCAC27"/>
<path d="M57.584 48.0774V49.6486C59.1343 51.4297 61.7745 51.9292 63.9002 50.7099C66.3188 49.3223 67.1552 46.2369 65.7676 43.8183C65.2685 42.9481 64.5478 42.2859 63.7192 41.8553L56.7632 45.8452C57.2746 46.4471 57.584 47.2255 57.584 48.0774Z" fill="#FCAC27"/>
<path d="M48.3452 51.4699C48.0436 51.4699 47.7397 51.4297 47.4408 51.3488C46.5546 51.1089 45.8146 50.5376 45.3581 49.7405C44.9015 48.9448 44.7822 48.0175 45.0222 47.1313C45.2621 46.2451 45.8329 45.5052 46.63 45.0486L80.2721 25.7514C81.9151 24.8085 84.0211 25.3789 84.9644 27.0229C85.4214 27.8195 85.5407 28.7463 85.3003 29.6325C85.0604 30.5187 84.4895 31.2586 83.6925 31.7152L57.3323 46.8352C56.8538 47.1103 56.2487 47.0029 55.8926 46.5824C55.4511 46.0614 54.8076 45.763 54.1285 45.763C52.8529 45.763 51.815 46.8009 51.815 48.0765L51.8141 49.3402C51.8136 49.7497 51.5947 50.1272 51.2401 50.3305L50.0504 51.0124C49.5221 51.3154 48.9375 51.4699 48.3452 51.4699ZM50.251 45.6062L47.7662 47.0317C47.4993 47.1848 47.3082 47.4325 47.2273 47.7291C47.1469 48.0262 47.1871 48.337 47.3402 48.6039C47.4933 48.8712 47.741 49.0627 48.0381 49.1432C48.3352 49.2241 48.6455 49.1838 48.9133 49.0303L49.5294 48.6775L49.5299 48.0769C49.5299 47.1683 49.7945 46.3205 50.251 45.6062ZM54.128 43.4787C55.1518 43.4787 56.133 43.8183 56.9296 44.4321L82.5554 29.7335C82.8223 29.5804 83.0133 29.3327 83.0942 29.0361C83.1747 28.739 83.1349 28.4282 82.9818 28.1613C82.6655 27.6101 81.9594 27.4186 81.4087 27.7349L53.9548 43.4819C54.0124 43.4796 54.0705 43.4787 54.128 43.4787Z" fill="black"/>
<path d="M48.2825 46.561C48.0654 46.561 47.8493 46.4993 47.6605 46.3768C47.3013 46.1437 47.1025 45.7292 47.1459 45.3028L47.5677 41.1584C47.7592 39.2759 47.3557 37.3518 46.4311 35.7403L40.7255 25.7935C38.6945 22.2529 38.2009 18.1432 39.3352 14.2214C40.4705 10.296 43.0847 7.08125 46.6957 5.16949C53.8414 1.3743 62.5999 3.90488 66.6314 10.934L72.3365 20.8808C73.2616 22.4933 74.7186 23.8132 76.4398 24.5979L80.2304 26.3264C80.6202 26.5042 80.878 26.8849 80.8976 27.3126C80.9178 27.7409 80.6966 28.1435 80.325 28.357L48.8515 46.4097C48.6742 46.5107 48.4781 46.561 48.2825 46.561ZM53.7089 5.69736C51.7039 5.69736 49.6682 6.17815 47.7661 7.18865C44.7063 8.80837 42.4919 11.5314 41.5303 14.8563C40.5697 18.1775 40.9878 21.6578 42.7077 24.6559L48.4128 34.6028C49.5732 36.6256 50.0805 39.0355 49.841 41.3897L49.6445 43.3202L77.2569 27.4822L75.4914 26.6769C73.3397 25.6961 71.5153 24.0412 70.3544 22.0184L64.6493 12.0716C62.3079 7.98845 58.0836 5.69736 53.7089 5.69736Z" fill="black"/>
<path d="M34.6737 52.613C34.2468 52.613 33.8373 52.3731 33.6417 51.9617C33.3698 51.3923 33.6116 50.7104 34.181 50.4389L39.5319 47.8859C40.1023 47.614 40.7837 47.8553 41.0552 48.4252C41.3272 48.9947 41.0854 49.6766 40.5159 49.9481L35.165 52.501C35.006 52.5769 34.8387 52.613 34.6737 52.613Z" fill="black"/>
<path d="M32.7211 44.6287C32.1315 44.6287 31.6315 44.1753 31.5835 43.577C31.5333 42.9482 32.0022 42.3974 32.631 42.3472L38.5405 41.8737C39.1693 41.8243 39.7201 42.2928 39.7708 42.9217C39.8211 43.5505 39.3521 44.1013 38.7233 44.1515L32.8139 44.625C32.7828 44.6273 32.7517 44.6287 32.7211 44.6287Z" fill="black"/>
<path d="M39.8322 38.5305C39.6293 38.5305 39.4236 38.4766 39.2376 38.3628L34.1792 35.2714C33.6408 34.9423 33.4713 34.2394 33.7999 33.7006C34.1289 33.1617 34.8314 32.9917 35.3707 33.3217L40.4291 36.4131C40.9675 36.7421 41.137 37.445 40.8084 37.9839C40.5932 38.3362 40.2175 38.5305 39.8322 38.5305Z" fill="black"/>
<path d="M43.5678 10.1356C43.5249 10.1356 43.4819 10.1333 43.4385 10.1283C43.0774 10.0867 42.7575 9.87648 42.577 9.56158L41.6775 7.99351C40.9682 6.75678 40.7827 5.31805 41.1556 3.94193C41.5286 2.5658 42.4147 1.41774 43.6515 0.70843C44.8877 -0.000882457 46.3269 -0.186437 47.7026 0.1865C49.0787 0.558981 50.2272 1.44562 50.9365 2.68189L51.8625 4.29658C52.0444 4.61422 52.0636 4.99995 51.9137 5.33404C51.7633 5.66768 51.4626 5.90945 51.1043 5.98394C49.9366 6.22708 48.8132 6.63247 47.7661 7.18868C46.5065 7.85548 45.3763 8.72339 44.4056 9.76999C44.1885 10.0044 43.8841 10.1356 43.5678 10.1356ZM46.3022 2.28473C45.7762 2.28473 45.257 2.42184 44.7886 2.69057C44.0815 3.09642 43.5747 3.75317 43.3612 4.54018C43.1483 5.32719 43.2543 6.14939 43.6597 6.85641L43.827 7.148C44.7013 6.37927 45.6619 5.71658 46.6957 5.16951C47.4773 4.75453 48.2949 4.41084 49.139 4.14119L48.9544 3.81944C48.5485 3.11241 47.8923 2.60557 47.1052 2.39259C46.8393 2.31992 46.5696 2.28473 46.3022 2.28473Z" fill="black"/>
<path d="M79.1597 108.2H47.8457C47.2145 108.2 46.7031 107.689 46.7031 107.058V101.907C46.7031 100.662 47.7159 99.6488 48.9613 99.6488H78.044C79.2895 99.6488 80.3022 100.662 80.3022 101.907V107.058C80.3022 107.689 79.7904 108.2 79.1597 108.2ZM48.9883 105.915H78.0171V101.907L48.9883 101.934V105.915Z" fill="black"/>
<path d="M79.8296 117C79.8292 117 79.8287 117 79.8283 117L47.72 116.994C45.9582 116.993 44.5249 115.559 44.5249 113.798V109.111C44.5249 107.349 45.9586 105.915 47.7209 105.915H79.8296C81.592 105.915 83.0257 107.349 83.0257 109.111V113.804C83.0257 114.658 82.6929 115.461 82.0892 116.064C81.485 116.668 80.6829 117 79.8296 117ZM47.7205 108.2C47.2182 108.2 46.8096 108.609 46.8096 109.111V113.798C46.8096 114.3 47.2182 114.709 47.7205 114.709L79.8287 114.715H79.8292C80.0723 114.715 80.3008 114.62 80.4727 114.448C80.6445 114.276 80.7396 114.048 80.7396 113.804V109.111C80.7396 108.608 80.331 108.2 79.8287 108.2H47.7205Z" fill="black"/>
<path d="M76.0133 101.934H50.7733C50.1486 101.934 49.6399 101.432 49.6307 100.807L49.569 96.418C49.3867 92.1142 47.878 90.0671 46.4187 88.0868C45.9521 87.4538 45.5111 86.8556 45.1294 86.2006C42.9435 83.0339 41.7881 79.3278 41.7881 75.4791V70.6648C41.7881 67.9057 44.0326 65.6612 46.7917 65.6612C47.7948 65.6612 48.7299 65.9578 49.5137 66.4683C49.5192 59.9515 49.5297 48.1336 49.5297 48.0765C49.5297 45.5409 51.5928 43.4783 54.1284 43.4783C56.664 43.4783 58.727 45.5413 58.727 48.0769V58.3537C59.4094 57.9538 60.2032 57.7244 61.0501 57.7244C62.4303 57.7244 63.6703 58.3341 64.5158 59.2984C65.3613 58.3341 66.6012 57.7244 67.9814 57.7244C69.3617 57.7244 70.6016 58.3341 71.4471 59.2984C72.2926 58.3341 73.5325 57.7244 74.9128 57.7244C77.4539 57.7244 79.521 59.7915 79.521 62.3326V80.0344C79.521 81.6975 79.2628 83.3433 78.7532 84.9264C78.6188 85.4095 78.4552 85.8908 78.282 86.4008C77.7541 87.9534 77.1563 89.7138 77.1563 92.2522V100.791C77.1559 101.423 76.6445 101.934 76.0133 101.934ZM51.8999 99.6488H74.8707V92.2522C74.8707 89.3359 75.5622 87.3007 76.118 85.6654C76.283 85.1801 76.4388 84.7217 76.5567 84.2944C76.5613 84.2788 76.5659 84.2628 76.5709 84.2468C77.0115 82.884 77.2354 81.4667 77.2354 80.0344V62.3326C77.2354 61.0516 76.1934 60.0095 74.9123 60.0095C73.6313 60.0095 72.5892 61.0516 72.5892 62.3326C72.5892 62.9638 72.0778 63.4752 71.4467 63.4752C70.8155 63.4752 70.3041 62.9638 70.3041 62.3326C70.3041 61.0516 69.262 60.0095 67.981 60.0095C66.6999 60.0095 65.6579 61.0516 65.6579 62.3326C65.6579 62.9638 65.1465 63.4752 64.5153 63.4752C63.8842 63.4752 63.3727 62.9638 63.3727 62.3326C63.3727 61.0516 62.3307 60.0095 61.0497 60.0095C59.7686 60.0095 58.7266 61.0516 58.7266 62.3326C58.7266 62.9638 58.2152 63.4752 57.584 63.4752C56.9528 63.4752 56.4414 62.9638 56.4414 62.3326V48.0769C56.4414 46.8013 55.4035 45.7634 54.1279 45.7634C52.8523 45.7634 51.8144 46.8013 51.8144 48.0769C51.8144 48.1098 51.7952 70.6661 51.7952 70.6661C51.7948 71.2968 51.2834 71.8078 50.6527 71.8078C50.6527 71.8078 50.6527 71.8078 50.6522 71.8078C50.0215 71.8073 49.5101 71.2959 49.5101 70.6652C49.5101 69.1662 48.2907 67.9468 46.7917 67.9468C45.2926 67.9468 44.0732 69.1662 44.0732 70.6652V75.4796C44.0732 78.8762 45.097 82.1463 47.0334 84.9365C47.0517 84.963 47.0686 84.9895 47.0842 85.0169C47.4077 85.5772 47.8209 86.138 48.2583 86.7312C49.7651 88.776 51.6403 91.3203 51.8528 96.354L51.8999 99.6488ZM50.6723 48.0769H50.6769H50.6723Z" fill="black"/>
<path d="M61.3956 52.5183C59.6502 52.5183 57.9286 51.7843 56.722 50.3982C56.541 50.1902 56.4414 49.9238 56.4414 49.6477V48.0764C56.4414 47.5312 56.2463 47.0006 55.8921 46.5824C55.6727 46.3242 55.5795 45.981 55.638 45.6464C55.6965 45.3123 55.9007 45.0217 56.1951 44.8525L63.1511 40.8631C63.4884 40.6693 63.9015 40.6611 64.2461 40.8407C65.301 41.3887 66.1693 42.2214 66.7589 43.2493C67.5815 44.6834 67.7968 46.3525 67.364 47.9485C66.9317 49.5449 65.9033 50.8767 64.4687 51.6998C63.508 52.2514 62.4473 52.5183 61.3956 52.5183ZM58.7266 49.1884C59.9638 50.3419 61.838 50.5746 63.3316 49.7181C64.2365 49.1985 64.8855 48.358 65.1584 47.3511C65.4312 46.3443 65.2955 45.2908 64.7767 44.3864C64.5048 43.9124 64.1383 43.5039 63.7 43.183L58.3481 46.2529C58.5959 46.8251 58.727 47.4457 58.727 48.0769V49.1884H58.7266Z" fill="black"/>
<path d="M50.6528 75.4759C50.0217 75.4759 49.5103 74.9645 49.5103 74.3334V70.5715C49.5103 69.9404 50.0217 69.429 50.6528 69.429C51.284 69.429 51.7954 69.9404 51.7954 70.5715V74.3334C51.7954 74.9641 51.284 75.4759 50.6528 75.4759Z" fill="black"/>
<path d="M57.5842 67.6347C56.9531 67.6347 56.4417 67.1232 56.4417 66.4921V62.3326C56.4417 61.7015 56.9531 61.1901 57.5842 61.1901C58.2154 61.1901 58.7268 61.7015 58.7268 62.3326V66.4921C58.7268 67.1232 58.2154 67.6347 57.5842 67.6347Z" fill="black"/>
<path d="M64.5154 67.6347C63.8842 67.6347 63.3728 67.1232 63.3728 66.4921V62.3326C63.3728 61.7015 63.8842 61.1901 64.5154 61.1901C65.1465 61.1901 65.658 61.7015 65.658 62.3326V66.4921C65.658 67.1232 65.1465 67.6347 64.5154 67.6347Z" fill="black"/>
<path d="M71.4468 67.6347C70.8156 67.6347 70.3042 67.1232 70.3042 66.4921V62.3326C70.3042 61.7015 70.8156 61.1901 71.4468 61.1901C72.0779 61.1901 72.5894 61.7015 72.5894 62.3326V66.4921C72.5894 67.1232 72.0779 67.6347 71.4468 67.6347Z" fill="black"/>
</g>
<defs>
<clipPath id="clip0">
<rect width="117" height="117" fill="white"/>
</clipPath>
</defs>
</svg>
