<svg width="120" height="120" viewBox="0 0 120 120" fill="none" xmlns="http://www.w3.org/2000/svg">
<g clip-path="url(#clip0)">
<path d="M42.4273 79.538L30.402 71.94C28.0466 70.4554 25.2597 69.9735 22.5447 70.586L15.7487 72.1192C14.6269 72.3723 13.9219 73.4882 14.1749 74.6101C14.428 75.7319 15.5439 76.4368 16.6657 76.1837L23.4615 74.6505C25.0629 74.2892 26.7825 74.5846 28.1724 75.4628L35.9484 80.376L18.4997 84.3126C17.3779 84.5657 16.6728 85.6816 16.9258 86.8034C17.1789 87.9252 18.2949 88.6303 19.4167 88.3772L41.7714 83.3338C42.5924 83.1486 43.2203 82.4857 43.3659 81.6542C43.5114 80.8227 43.1396 79.9882 42.4273 79.538Z" fill="#233D4D"/>
<path d="M43.1472 89.4305C42.0254 89.6836 41.3203 90.7995 41.5734 91.9214L42.9488 98.0181C43.2019 99.1399 42.4928 100.257 41.375 100.509L29.1815 103.26C28.0637 103.512 26.9438 102.808 26.6907 101.686L24.8567 93.557C24.6036 92.4352 23.4877 91.7301 22.3659 91.9832C21.2441 92.2363 20.5392 93.3522 20.7922 94.474L22.6262 102.603C23.3846 105.964 26.7371 108.083 30.0985 107.324L42.292 104.573C45.6534 103.815 47.7716 100.463 47.0133 97.1011L45.6378 91.0044C45.3847 89.8826 44.269 89.1774 43.1472 89.4305Z" fill="#233D4D"/>
<path d="M97.3117 41.1473C91.0497 39.4805 78.1701 40.951 56.7906 45.7744C35.4112 50.5978 23.1479 54.7996 18.208 58.9937C12.5787 63.7662 10.9939 69.9756 13.0599 79.133C15.0461 87.9367 18.7896 95.1394 18.9474 95.4412C19.3839 96.2782 20.3281 96.7145 21.2508 96.5063L39.0615 92.4881L47.628 94.6005C47.9446 94.6786 48.2741 94.6811 48.5872 94.6105L85.1678 86.3577C85.4808 86.287 85.7771 86.1433 86.0255 85.9377L92.8594 80.3508L110.67 76.3326C111.593 76.1244 112.258 75.325 112.293 74.3817C112.306 74.0414 112.594 65.9291 110.608 57.1253C108.542 47.968 104.445 43.0405 97.3117 41.1473ZM108.148 72.6302L91.4668 76.3935C91.1498 76.465 90.8533 76.6088 90.6049 76.8144L83.771 82.4013L48.1497 90.4377L39.5832 88.3253C39.2666 88.2471 38.9371 88.2446 38.624 88.3152L21.9433 92.0785C20.7943 89.6169 18.4879 84.2598 17.1243 78.2158C15.3976 70.5622 16.4925 65.9116 20.8982 62.171C25.1934 58.528 37.576 54.3805 57.7075 49.8386C77.8391 45.2968 90.8029 43.7262 96.2463 45.1719C101.831 46.6583 104.817 50.3886 106.544 58.0421C107.907 64.0861 108.124 69.9146 108.148 72.6302Z" fill="#233D4D"/>
<path d="M107.919 64.139L90.4702 68.0757L95.3795 60.3005C96.2616 58.9098 97.6839 57.9056 99.2894 57.5433L106.085 56.0102C107.207 55.7571 107.912 54.6411 107.659 53.5193C107.406 52.3975 106.29 51.6924 105.168 51.9455L98.3724 53.4787C95.6573 54.0913 93.3473 55.723 91.8577 58.0751L84.2595 70.1005C83.8135 70.812 83.8358 71.7252 84.3203 72.4148C84.8048 73.1044 85.6605 73.4323 86.4815 73.2471L108.836 68.2037C109.958 67.9506 110.663 66.8347 110.41 65.7129C110.157 64.5909 109.041 63.886 107.919 64.139Z" fill="#233D4D"/>
<path d="M84.9185 57.7441C84.4197 57.1048 83.6018 56.811 82.8132 56.989L38.1037 67.0758C37.3152 67.2537 36.7026 67.8702 36.5266 68.6617C36.3538 69.4481 36.6501 70.2699 37.2949 70.7607L50.207 80.6618C50.6978 81.038 51.3314 81.177 51.9329 81.0413L76.3199 75.5394C76.9214 75.4037 77.434 75.0061 77.7157 74.4556L85.1259 59.9697C85.4974 59.2494 85.4124 58.3801 84.9185 57.7441ZM74.4479 71.6904L51.967 76.7623L43.3574 70.1618L79.3893 62.0327L74.4479 71.6904Z" fill="#233D4D"/>
<path d="M98.462 41.9299C94.9498 37.1353 83.258 21.3591 80.051 19.6778C76.0549 17.585 66.0671 18.053 53.3209 20.9286L49.2564 21.8456C36.5102 24.7212 27.289 28.587 24.5777 32.1888C22.4032 35.0842 18.6134 54.3532 17.5042 60.1904C17.2942 61.3228 18.0352 62.4114 19.1644 62.6263C20.2896 62.8424 21.3873 62.1034 21.6013 60.9703C23.8069 49.3715 26.7718 36.3667 27.9112 34.6959C29.1761 33.0138 35.2892 29.2682 50.1735 25.9102L54.2379 24.9933C69.1222 21.6352 76.2513 22.3933 78.1059 23.363C79.8623 24.3891 88.1226 34.857 95.0958 44.3894C95.6023 45.0825 96.457 45.368 97.2374 45.1919C97.5056 45.1314 97.7742 45.0153 98.0085 44.8427C98.936 44.1638 99.137 42.8582 98.462 41.9299Z" fill="#233D4D"/>
<path d="M107.721 72.7265C106.599 72.9796 105.894 74.0955 106.147 75.2173L107.981 83.3464C108.234 84.4682 107.525 85.585 106.407 85.8372L94.2135 88.5882C93.0957 88.8404 91.9758 88.1362 91.7227 87.0143L90.3472 80.9176C90.0942 79.7958 88.9782 79.0907 87.8564 79.3438C86.7346 79.5969 86.0295 80.7128 86.2826 81.8346L87.6581 87.9314C88.4164 91.2928 91.7689 93.411 95.1303 92.6527L107.324 89.9017C110.685 89.1433 112.804 85.7909 112.045 82.4295L110.211 74.3004C109.958 73.1785 108.843 72.4734 107.721 72.7265Z" fill="#233D4D"/>
</g>
<defs>
<clipPath id="clip0">
<rect width="100" height="100" fill="white" transform="translate(0.222046 22.2297) rotate(-12.7135)"/>
</clipPath>
</defs>
</svg>
