<svg width="132" height="131" viewBox="0 0 132 131" fill="none" xmlns="http://www.w3.org/2000/svg">
<g clip-path="url(#clip0)">
<path d="M62.9478 76.4587L62.7464 79.1971C62.4577 83.1885 63.0975 87.1926 64.6155 90.8953L71.3569 107.283C71.989 108.815 73.2029 110.033 74.7322 110.671C76.2616 111.309 77.9815 111.314 79.5146 110.686L101.19 101.769C102.722 101.137 103.94 99.9232 104.578 98.3938C105.216 96.8645 105.221 95.1446 104.592 93.6114L97.1619 75.5488C95.3315 71.0986 92.8777 66.9312 89.8741 63.1719L76.1161 45.9504L73.8233 40.3766C73.491 39.5544 73.4779 38.6376 73.7867 37.8062C74.0955 36.9749 74.7038 36.2889 75.4923 35.8829C75.8416 35.7044 76.111 35.4012 76.247 35.0333C76.383 34.6654 76.3756 34.2598 76.2264 33.8971C75.1597 31.3123 73.1113 29.2562 70.5305 28.1798C67.9497 27.1035 65.0474 27.0948 62.4602 28.1556L39.34 37.6664C38.9567 37.8241 38.6518 38.1275 38.4923 38.51C38.3328 38.8925 38.3317 39.3226 38.4894 39.7059L40.8671 45.4859C41.0248 45.8692 41.3282 46.1741 41.7107 46.3336C42.0931 46.4931 42.5233 46.4942 42.9065 46.3365L47.1948 44.5725C48.582 48.6236 48.9328 52.9577 48.215 57.1792L47.0542 64.0093C47.0075 64.2843 47.0352 64.5668 47.1345 64.8274C47.2338 65.088 47.4011 65.3173 47.6189 65.4915C47.8368 65.6657 48.0973 65.7784 48.3734 65.8179C48.6495 65.8573 48.9311 65.8222 49.1891 65.7161L54.9691 63.3384C55.1991 63.2438 55.4032 63.0956 55.5645 62.9063C55.7257 62.7169 55.8394 62.4918 55.8961 62.2496L57.1426 56.9254C57.6961 54.5694 57.9237 52.1485 57.8191 49.7306L59.2221 53.1412C62.2479 60.5217 63.5231 68.5028 62.9478 76.4587ZM94.2718 76.7376L101.702 94.8003C102.016 95.5669 102.014 96.4268 101.695 97.1915C101.376 97.9561 100.767 98.5631 100.001 98.8792L78.3258 107.796C77.5592 108.11 76.6993 108.107 75.9346 107.788C75.17 107.469 74.563 106.86 74.2469 106.094L67.5055 89.7065C66.1717 86.4528 65.6096 82.9344 65.8632 79.4271L66.0645 76.6886C66.6363 68.7746 65.4834 60.8309 62.6854 53.4061L74.2666 48.642L87.4325 65.1224C90.2513 68.6504 92.5541 72.5613 94.2718 76.7376ZM72.7165 45.9005L61.5177 50.5073L60.3288 47.6173L71.5277 43.0105L72.7165 45.9005ZM72.7663 33.9743C71.9103 34.7157 71.2551 35.661 70.8613 36.7228C70.4675 37.7845 70.3478 38.9284 70.5133 40.0487L57.6949 45.3217L55.3172 39.5417C55.1596 39.1584 54.8561 38.8535 54.4737 38.694C54.0912 38.5345 53.661 38.5334 53.2778 38.6911L48.9428 40.4744L47.7539 37.5843L63.6491 31.0456C65.2702 30.3812 67.0739 30.3107 68.742 30.8465C70.4101 31.3823 71.8354 32.4901 72.7663 33.9743ZM41.9738 39.962L44.8639 38.7732L46.0527 41.6632L43.1627 42.8521L41.9738 39.962ZM54.1 56.2129L53.0366 60.7543L50.6074 61.7536L51.2958 57.7027C52.1131 52.9037 51.6991 47.9758 50.0926 43.3804L53.0216 42.1755C54.8274 46.6298 55.2042 51.5351 54.1 56.2129Z" fill="#233D4D"/>
<path d="M84.9663 74.6522L71.9612 80.0021C71.1954 80.3182 70.5862 80.9251 70.2673 81.6898C69.9483 82.4544 69.9457 83.3144 70.26 84.0809L77.3931 101.421C77.7092 102.187 78.3162 102.796 79.0808 103.115C79.8455 103.434 80.7054 103.437 81.472 103.122L94.4771 97.7725C95.243 97.4564 95.8522 96.8494 96.1711 96.0848C96.49 95.3201 96.4926 94.4602 96.1783 93.6936L89.0452 76.3534C88.7291 75.5876 88.1222 74.9784 87.3575 74.6595C86.5928 74.3406 85.7329 74.338 84.9663 74.6522ZM93.2883 94.8824L80.2832 100.232L73.15 82.8921L86.1552 77.5423L93.2901 94.8817L93.2883 94.8824Z" fill="#233D4D"/>
<path d="M16.5543 38.2209L17.4321 35.2208L21.088 36.2904L20.2102 39.2906L16.5543 38.2209Z" fill="#233D4D"/>
<path d="M31.1787 42.4954L32.0565 39.4952L35.7125 40.5649L34.8348 43.565L31.1787 42.4954Z" fill="#233D4D"/>
<path d="M23.8667 40.358L24.7445 37.3578L28.4003 38.4274L27.5226 41.4276L23.8667 40.358Z" fill="#233D4D"/>
<path d="M28.3372 45.5717L31.8588 44.123L33.0477 47.0131L29.526 48.4617L28.3372 45.5717Z" fill="#233D4D"/>
<path d="M21.2937 48.4691L24.8154 47.0204L26.0042 49.9105L22.4826 51.3591L21.2937 48.4691Z" fill="#233D4D"/>
<path d="M14.2506 51.3664L17.7723 49.9177L18.9611 52.8077L15.4395 54.2564L14.2506 51.3664Z" fill="#233D4D"/>
<path d="M26.3308 61.9723L28.1758 58.6398L30.9106 60.1539L29.0656 63.4864L26.3308 61.9723Z" fill="#233D4D"/>
<path d="M33.7075 48.6432L35.5526 45.3105L38.2874 46.8246L36.4423 50.1573L33.7075 48.6432Z" fill="#233D4D"/>
<path d="M30.0195 55.3079L31.8645 51.9754L34.5993 53.4895L32.7543 56.8219L30.0195 55.3079Z" fill="#233D4D"/>
<path d="M81.4263 64.3529C81.267 64.4822 81.1347 64.6416 81.037 64.8221C80.9393 65.0025 80.8781 65.2004 80.8569 65.4045C80.8357 65.6086 80.8549 65.8149 80.9134 66.0116C80.9719 66.2082 81.0685 66.3915 81.1979 66.5508L82.2258 67.8175C82.3545 67.9786 82.5138 68.1126 82.6946 68.2118C82.8754 68.311 83.074 68.3734 83.279 68.3955C83.484 68.4176 83.6914 68.3989 83.8891 68.3405C84.0869 68.2821 84.2711 68.1851 84.4312 68.0551C84.5913 67.9252 84.724 67.7648 84.8219 67.5833C84.9197 67.4018 84.9806 67.2027 85.0011 66.9975C85.0216 66.7923 85.0014 66.5851 84.9414 66.3878C84.8815 66.1905 84.7831 66.0071 84.6519 65.848L83.624 64.5813C83.3628 64.2596 82.9846 64.0548 82.5724 64.012C82.1603 63.9692 81.7481 64.0918 81.4263 64.3529Z" fill="#233D4D"/>
<path d="M74.2312 55.486C74.0718 55.6153 73.9395 55.7747 73.8418 55.9552C73.7441 56.1356 73.6829 56.3335 73.6617 56.5376C73.6405 56.7417 73.6597 56.948 73.7182 57.1447C73.7767 57.3414 73.8733 57.5246 74.0027 57.6839L78.1144 62.7506C78.2431 62.9117 78.4025 63.0457 78.5832 63.1449C78.764 63.2442 78.9626 63.3066 79.1676 63.3287C79.3726 63.3508 79.58 63.3321 79.7777 63.2737C79.9755 63.2152 80.1597 63.1182 80.3198 62.9883C80.4799 62.8583 80.6127 62.698 80.7105 62.5164C80.8083 62.3349 80.8692 62.1358 80.8897 61.9307C80.9103 61.7255 80.89 61.5183 80.83 61.321C80.7701 61.1237 80.6717 60.9402 80.5405 60.7811L76.4288 55.7144C76.1676 55.3927 75.7894 55.188 75.3773 55.1451C74.9651 55.1023 74.5529 55.2249 74.2312 55.486Z" fill="#233D4D"/>
</g>
<defs>
<clipPath id="clip0">
<rect width="100" height="100" fill="white" transform="translate(0.754883 38.3331) rotate(-22.3605)"/>
</clipPath>
</defs>
</svg>
